%TF.GenerationSoftware,KiCad,Pcbnew,(5.1.9)-1*%
%TF.CreationDate,2021-06-16T12:24:14-05:00*%
%TF.ProjectId,practice-pcb-ai03-tutorial,70726163-7469-4636-952d-7063622d6169,rev?*%
%TF.SameCoordinates,Original*%
%TF.FileFunction,Copper,L1,Top*%
%TF.FilePolarity,Positive*%
%FSLAX46Y46*%
G04 Gerber Fmt 4.6, Leading zero omitted, Abs format (unit mm)*
G04 Created by KiCad (PCBNEW (5.1.9)-1) date 2021-06-16 12:24:14*
%MOMM*%
%LPD*%
G01*
G04 APERTURE LIST*
%TA.AperFunction,ComponentPad*%
%ADD10O,1.700000X2.700000*%
%TD*%
%TA.AperFunction,ViaPad*%
%ADD11C,0.800000*%
%TD*%
%TA.AperFunction,Conductor*%
%ADD12C,0.381000*%
%TD*%
%TA.AperFunction,Conductor*%
%ADD13C,0.254000*%
%TD*%
G04 APERTURE END LIST*
D10*
%TO.P,USB1,6*%
%TO.N,GND*%
X-46987500Y8032750D03*
X-39687500Y8032750D03*
X-39687500Y3532750D03*
X-46987500Y3532750D03*
%TD*%
D11*
%TO.N,+5V*%
X-17780000Y-36576000D03*
X-32869500Y-30837500D03*
X-34925000Y-19304000D03*
X-32869500Y-26693500D03*
X-14478000Y-25019000D03*
%TO.N,Net-(R3-Pad2)*%
X-48387000Y-35560000D03*
X-38735000Y-20193000D03*
%TO.N,COL0*%
X-8604250Y-30765750D03*
X-7112000Y95250D03*
X-7112000Y-18954750D03*
X-7112000Y-14192250D03*
%TO.N,COL1*%
X11938000Y95250D03*
X11938000Y-14192250D03*
X11938000Y-18954750D03*
X10445750Y-30765750D03*
%TO.N,COL2*%
X30988000Y-14192250D03*
X30988000Y95250D03*
X30988000Y-18954750D03*
X25477000Y-30022000D03*
%TD*%
D12*
%TO.N,+5V*%
X-17780000Y-36576000D02*
X-30734000Y-36576000D01*
X-30734000Y-36576000D02*
X-32893000Y-34417000D01*
X-32893000Y-30861000D02*
X-32869500Y-30837500D01*
X-32893000Y-34417000D02*
X-32893000Y-30861000D01*
X-32869500Y-21359500D02*
X-34925000Y-19304000D01*
X-32869500Y-26693500D02*
X-32869500Y-21359500D01*
X-32869500Y-30837500D02*
X-32869500Y-26693500D01*
X-16764000Y-36576000D02*
X-17780000Y-36576000D01*
X-14478000Y-34290000D02*
X-16764000Y-36576000D01*
X-14478000Y-25019000D02*
X-14478000Y-34290000D01*
D13*
%TO.N,Net-(R3-Pad2)*%
X-48387000Y-35560000D02*
X-48387000Y-25146000D01*
X-43434000Y-20193000D02*
X-38735000Y-20193000D01*
X-48387000Y-25146000D02*
X-43434000Y-20193000D01*
%TO.N,COL0*%
X-7112000Y-29273500D02*
X-8604250Y-30765750D01*
X-7112000Y-18954750D02*
X-7112000Y-29273500D01*
X-7112000Y95250D02*
X-7112000Y-14192250D01*
%TO.N,COL1*%
X11938000Y95250D02*
X11938000Y-14192250D01*
X11938000Y-29273500D02*
X10445750Y-30765750D01*
X11938000Y-18954750D02*
X11938000Y-29273500D01*
%TO.N,COL2*%
X30988000Y-14192250D02*
X30988000Y95250D01*
X30988000Y-24511000D02*
X25477000Y-30022000D01*
X30988000Y-18954750D02*
X30988000Y-24511000D01*
%TD*%
M02*
