%TF.GenerationSoftware,KiCad,Pcbnew,(5.1.9)-1*%
%TF.CreationDate,2021-06-16T12:24:14-05:00*%
%TF.ProjectId,practice-pcb-ai03-tutorial,70726163-7469-4636-952d-7063622d6169,rev?*%
%TF.SameCoordinates,Original*%
%TF.FileFunction,Soldermask,Top*%
%TF.FilePolarity,Negative*%
%FSLAX46Y46*%
G04 Gerber Fmt 4.6, Leading zero omitted, Abs format (unit mm)*
G04 Created by KiCad (PCBNEW (5.1.9)-1) date 2021-06-16 12:24:14*
%MOMM*%
%LPD*%
G01*
G04 APERTURE LIST*
%ADD10C,3.400000*%
%ADD11C,2.300000*%
%ADD12C,4.500000*%
%ADD13O,2.100000X3.100000*%
G04 APERTURE END LIST*
D10*
%TO.C,SW1*%
X2540000Y5080000D03*
X-3810000Y2540000D03*
D11*
X-5080000Y0D03*
X5080000Y0D03*
D12*
X0Y0D03*
%TD*%
%TO.C,SW2*%
X19050000Y0D03*
D11*
X24130000Y0D03*
X13970000Y0D03*
D10*
X15240000Y2540000D03*
X21590000Y5080000D03*
%TD*%
D12*
%TO.C,SW3*%
X38100000Y0D03*
D11*
X43180000Y0D03*
X33020000Y0D03*
D10*
X34290000Y2540000D03*
X40640000Y5080000D03*
%TD*%
D12*
%TO.C,SW4*%
X0Y-19050000D03*
D11*
X5080000Y-19050000D03*
X-5080000Y-19050000D03*
D10*
X-3810000Y-16510000D03*
X2540000Y-13970000D03*
%TD*%
D12*
%TO.C,SW5*%
X19050000Y-19050000D03*
D11*
X24130000Y-19050000D03*
X13970000Y-19050000D03*
D10*
X15240000Y-16510000D03*
X21590000Y-13970000D03*
%TD*%
D12*
%TO.C,SW6*%
X38100000Y-19050000D03*
D11*
X43180000Y-19050000D03*
X33020000Y-19050000D03*
D10*
X34290000Y-16510000D03*
X40640000Y-13970000D03*
%TD*%
D12*
%TO.C,SW7*%
X0Y-38100000D03*
D11*
X5080000Y-38100000D03*
X-5080000Y-38100000D03*
D10*
X-3810000Y-35560000D03*
X2540000Y-33020000D03*
%TD*%
D12*
%TO.C,SW8*%
X19050000Y-38100000D03*
D11*
X24130000Y-38100000D03*
X13970000Y-38100000D03*
D10*
X15240000Y-35560000D03*
X21590000Y-33020000D03*
%TD*%
D12*
%TO.C,SW9*%
X38100000Y-38100000D03*
D11*
X43180000Y-38100000D03*
X33020000Y-38100000D03*
D10*
X34290000Y-35560000D03*
X40640000Y-33020000D03*
%TD*%
D13*
%TO.C,USB1*%
X-46987500Y8032750D03*
X-39687500Y8032750D03*
X-39687500Y3532750D03*
X-46987500Y3532750D03*
%TD*%
M02*
