%TF.GenerationSoftware,KiCad,Pcbnew,(5.1.9)-1*%
%TF.CreationDate,2021-06-16T12:24:14-05:00*%
%TF.ProjectId,practice-pcb-ai03-tutorial,70726163-7469-4636-952d-7063622d6169,rev?*%
%TF.SameCoordinates,Original*%
%TF.FileFunction,Copper,L2,Bot*%
%TF.FilePolarity,Positive*%
%FSLAX46Y46*%
G04 Gerber Fmt 4.6, Leading zero omitted, Abs format (unit mm)*
G04 Created by KiCad (PCBNEW (5.1.9)-1) date 2021-06-16 12:24:14*
%MOMM*%
%LPD*%
G01*
G04 APERTURE LIST*
%TA.AperFunction,SMDPad,CuDef*%
%ADD10R,2.550000X2.500000*%
%TD*%
%TA.AperFunction,ComponentPad*%
%ADD11O,1.700000X2.700000*%
%TD*%
%TA.AperFunction,SMDPad,CuDef*%
%ADD12R,0.500000X2.250000*%
%TD*%
%TA.AperFunction,SMDPad,CuDef*%
%ADD13R,1.400000X1.200000*%
%TD*%
%TA.AperFunction,SMDPad,CuDef*%
%ADD14R,1.500000X0.550000*%
%TD*%
%TA.AperFunction,SMDPad,CuDef*%
%ADD15R,0.550000X1.500000*%
%TD*%
%TA.AperFunction,SMDPad,CuDef*%
%ADD16R,1.800000X1.100000*%
%TD*%
%TA.AperFunction,SMDPad,CuDef*%
%ADD17R,1.200000X0.900000*%
%TD*%
%TA.AperFunction,ViaPad*%
%ADD18C,0.800000*%
%TD*%
%TA.AperFunction,Conductor*%
%ADD19C,0.381000*%
%TD*%
%TA.AperFunction,Conductor*%
%ADD20C,0.254000*%
%TD*%
%TA.AperFunction,Conductor*%
%ADD21C,0.100000*%
%TD*%
G04 APERTURE END LIST*
D10*
%TO.P,SW1,2*%
%TO.N,Net-(D1-Pad2)*%
X5842000Y5080000D03*
%TO.P,SW1,1*%
%TO.N,COL0*%
X-7085000Y2540000D03*
%TD*%
%TO.P,SW2,1*%
%TO.N,COL1*%
X11965000Y2540000D03*
%TO.P,SW2,2*%
%TO.N,Net-(D2-Pad2)*%
X24892000Y5080000D03*
%TD*%
%TO.P,SW3,1*%
%TO.N,COL2*%
X31015000Y2540000D03*
%TO.P,SW3,2*%
%TO.N,Net-(D3-Pad2)*%
X43942000Y5080000D03*
%TD*%
%TO.P,SW4,1*%
%TO.N,COL0*%
X-7085000Y-16510000D03*
%TO.P,SW4,2*%
%TO.N,Net-(D4-Pad2)*%
X5842000Y-13970000D03*
%TD*%
%TO.P,SW5,1*%
%TO.N,COL1*%
X11965000Y-16510000D03*
%TO.P,SW5,2*%
%TO.N,Net-(D5-Pad2)*%
X24892000Y-13970000D03*
%TD*%
%TO.P,SW6,1*%
%TO.N,COL2*%
X31015000Y-16510000D03*
%TO.P,SW6,2*%
%TO.N,Net-(D6-Pad2)*%
X43942000Y-13970000D03*
%TD*%
%TO.P,SW7,1*%
%TO.N,COL0*%
X-7085000Y-35560000D03*
%TO.P,SW7,2*%
%TO.N,Net-(D7-Pad2)*%
X5842000Y-33020000D03*
%TD*%
%TO.P,SW8,1*%
%TO.N,COL1*%
X11965000Y-35560000D03*
%TO.P,SW8,2*%
%TO.N,Net-(D8-Pad2)*%
X24892000Y-33020000D03*
%TD*%
%TO.P,SW9,1*%
%TO.N,COL2*%
X31015000Y-35560000D03*
%TO.P,SW9,2*%
%TO.N,Net-(D9-Pad2)*%
X43942000Y-33020000D03*
%TD*%
D11*
%TO.P,USB1,6*%
%TO.N,GND*%
X-46987500Y8032750D03*
X-39687500Y8032750D03*
X-39687500Y3532750D03*
X-46987500Y3532750D03*
D12*
%TO.P,USB1,5*%
%TO.N,VCC*%
X-44937500Y3532750D03*
%TO.P,USB1,4*%
%TO.N,D-*%
X-44137500Y3532750D03*
%TO.P,USB1,3*%
%TO.N,D+*%
X-43337500Y3532750D03*
%TO.P,USB1,2*%
%TO.N,N/C*%
X-42537500Y3532750D03*
%TO.P,USB1,1*%
%TO.N,GND*%
X-41737500Y3532750D03*
%TD*%
%TO.P,R4,2*%
%TO.N,Net-(R4-Pad2)*%
%TA.AperFunction,SMDPad,CuDef*%
G36*
G01*
X-15424999Y-32262500D02*
X-16325001Y-32262500D01*
G75*
G02*
X-16575000Y-32012501I0J249999D01*
G01*
X-16575000Y-31487499D01*
G75*
G02*
X-16325001Y-31237500I249999J0D01*
G01*
X-15424999Y-31237500D01*
G75*
G02*
X-15175000Y-31487499I0J-249999D01*
G01*
X-15175000Y-32012501D01*
G75*
G02*
X-15424999Y-32262500I-249999J0D01*
G01*
G37*
%TD.AperFunction*%
%TO.P,R4,1*%
%TO.N,GND*%
%TA.AperFunction,SMDPad,CuDef*%
G36*
G01*
X-15424999Y-34087500D02*
X-16325001Y-34087500D01*
G75*
G02*
X-16575000Y-33837501I0J249999D01*
G01*
X-16575000Y-33312499D01*
G75*
G02*
X-16325001Y-33062500I249999J0D01*
G01*
X-15424999Y-33062500D01*
G75*
G02*
X-15175000Y-33312499I0J-249999D01*
G01*
X-15175000Y-33837501D01*
G75*
G02*
X-15424999Y-34087500I-249999J0D01*
G01*
G37*
%TD.AperFunction*%
%TD*%
%TO.P,R3,2*%
%TO.N,Net-(R3-Pad2)*%
%TA.AperFunction,SMDPad,CuDef*%
G36*
G01*
X-37280001Y-19600500D02*
X-36379999Y-19600500D01*
G75*
G02*
X-36130000Y-19850499I0J-249999D01*
G01*
X-36130000Y-20375501D01*
G75*
G02*
X-36379999Y-20625500I-249999J0D01*
G01*
X-37280001Y-20625500D01*
G75*
G02*
X-37530000Y-20375501I0J249999D01*
G01*
X-37530000Y-19850499D01*
G75*
G02*
X-37280001Y-19600500I249999J0D01*
G01*
G37*
%TD.AperFunction*%
%TO.P,R3,1*%
%TO.N,+5V*%
%TA.AperFunction,SMDPad,CuDef*%
G36*
G01*
X-37280001Y-17775500D02*
X-36379999Y-17775500D01*
G75*
G02*
X-36130000Y-18025499I0J-249999D01*
G01*
X-36130000Y-18550501D01*
G75*
G02*
X-36379999Y-18800500I-249999J0D01*
G01*
X-37280001Y-18800500D01*
G75*
G02*
X-37530000Y-18550501I0J249999D01*
G01*
X-37530000Y-18025499D01*
G75*
G02*
X-37280001Y-17775500I249999J0D01*
G01*
G37*
%TD.AperFunction*%
%TD*%
%TO.P,R2,2*%
%TO.N,D+*%
%TA.AperFunction,SMDPad,CuDef*%
G36*
G01*
X-41586999Y-3560500D02*
X-42487001Y-3560500D01*
G75*
G02*
X-42737000Y-3310501I0J249999D01*
G01*
X-42737000Y-2785499D01*
G75*
G02*
X-42487001Y-2535500I249999J0D01*
G01*
X-41586999Y-2535500D01*
G75*
G02*
X-41337000Y-2785499I0J-249999D01*
G01*
X-41337000Y-3310501D01*
G75*
G02*
X-41586999Y-3560500I-249999J0D01*
G01*
G37*
%TD.AperFunction*%
%TO.P,R2,1*%
%TO.N,Net-(R2-Pad1)*%
%TA.AperFunction,SMDPad,CuDef*%
G36*
G01*
X-41586999Y-5385500D02*
X-42487001Y-5385500D01*
G75*
G02*
X-42737000Y-5135501I0J249999D01*
G01*
X-42737000Y-4610499D01*
G75*
G02*
X-42487001Y-4360500I249999J0D01*
G01*
X-41586999Y-4360500D01*
G75*
G02*
X-41337000Y-4610499I0J-249999D01*
G01*
X-41337000Y-5135501D01*
G75*
G02*
X-41586999Y-5385500I-249999J0D01*
G01*
G37*
%TD.AperFunction*%
%TD*%
%TO.P,R1,2*%
%TO.N,D-*%
%TA.AperFunction,SMDPad,CuDef*%
G36*
G01*
X-45015999Y-3560500D02*
X-45916001Y-3560500D01*
G75*
G02*
X-46166000Y-3310501I0J249999D01*
G01*
X-46166000Y-2785499D01*
G75*
G02*
X-45916001Y-2535500I249999J0D01*
G01*
X-45015999Y-2535500D01*
G75*
G02*
X-44766000Y-2785499I0J-249999D01*
G01*
X-44766000Y-3310501D01*
G75*
G02*
X-45015999Y-3560500I-249999J0D01*
G01*
G37*
%TD.AperFunction*%
%TO.P,R1,1*%
%TO.N,Net-(R1-Pad1)*%
%TA.AperFunction,SMDPad,CuDef*%
G36*
G01*
X-45015999Y-5385500D02*
X-45916001Y-5385500D01*
G75*
G02*
X-46166000Y-5135501I0J249999D01*
G01*
X-46166000Y-4610499D01*
G75*
G02*
X-45916001Y-4360500I249999J0D01*
G01*
X-45015999Y-4360500D01*
G75*
G02*
X-44766000Y-4610499I0J-249999D01*
G01*
X-44766000Y-5135501D01*
G75*
G02*
X-45015999Y-5385500I-249999J0D01*
G01*
G37*
%TD.AperFunction*%
%TD*%
D13*
%TO.P,Y1,4*%
%TO.N,GND*%
X-24819250Y-12770750D03*
%TO.P,Y1,3*%
%TO.N,Net-(C4-Pad1)*%
X-27019250Y-12770750D03*
%TO.P,Y1,2*%
%TO.N,GND*%
X-27019250Y-14470750D03*
%TO.P,Y1,1*%
%TO.N,Net-(C3-Pad1)*%
X-24819250Y-14470750D03*
%TD*%
D14*
%TO.P,U1,1*%
%TO.N,N/C*%
X-31093750Y-31637500D03*
%TO.P,U1,2*%
%TO.N,+5V*%
X-31093750Y-30837500D03*
%TO.P,U1,3*%
%TO.N,Net-(R1-Pad1)*%
X-31093750Y-30037500D03*
%TO.P,U1,4*%
%TO.N,Net-(R2-Pad1)*%
X-31093750Y-29237500D03*
%TO.P,U1,5*%
%TO.N,GND*%
X-31093750Y-28437500D03*
%TO.P,U1,6*%
%TO.N,Net-(C6-Pad1)*%
X-31093750Y-27637500D03*
%TO.P,U1,7*%
%TO.N,+5V*%
X-31093750Y-26837500D03*
%TO.P,U1,8*%
%TO.N,N/C*%
X-31093750Y-26037500D03*
%TO.P,U1,9*%
X-31093750Y-25237500D03*
%TO.P,U1,10*%
X-31093750Y-24437500D03*
%TO.P,U1,11*%
X-31093750Y-23637500D03*
D15*
%TO.P,U1,12*%
X-29393750Y-21937500D03*
%TO.P,U1,13*%
%TO.N,Net-(R3-Pad2)*%
X-28593750Y-21937500D03*
%TO.P,U1,14*%
%TO.N,+5V*%
X-27793750Y-21937500D03*
%TO.P,U1,15*%
%TO.N,GND*%
X-26993750Y-21937500D03*
%TO.P,U1,16*%
%TO.N,Net-(C4-Pad1)*%
X-26193750Y-21937500D03*
%TO.P,U1,17*%
%TO.N,Net-(C3-Pad1)*%
X-25393750Y-21937500D03*
%TO.P,U1,18*%
%TO.N,N/C*%
X-24593750Y-21937500D03*
%TO.P,U1,19*%
X-23793750Y-21937500D03*
%TO.P,U1,20*%
X-22993750Y-21937500D03*
%TO.P,U1,21*%
X-22193750Y-21937500D03*
%TO.P,U1,22*%
X-21393750Y-21937500D03*
D14*
%TO.P,U1,23*%
%TO.N,GND*%
X-19693750Y-23637500D03*
%TO.P,U1,24*%
%TO.N,+5V*%
X-19693750Y-24437500D03*
%TO.P,U1,25*%
%TO.N,N/C*%
X-19693750Y-25237500D03*
%TO.P,U1,26*%
%TO.N,ROW0*%
X-19693750Y-26037500D03*
%TO.P,U1,27*%
%TO.N,ROW1*%
X-19693750Y-26837500D03*
%TO.P,U1,28*%
%TO.N,COL2*%
X-19693750Y-27637500D03*
%TO.P,U1,29*%
%TO.N,COL1*%
X-19693750Y-28437500D03*
%TO.P,U1,30*%
%TO.N,COL0*%
X-19693750Y-29237500D03*
%TO.P,U1,31*%
%TO.N,ROW2*%
X-19693750Y-30037500D03*
%TO.P,U1,32*%
%TO.N,N/C*%
X-19693750Y-30837500D03*
%TO.P,U1,33*%
%TO.N,Net-(R4-Pad2)*%
X-19693750Y-31637500D03*
D15*
%TO.P,U1,34*%
%TO.N,+5V*%
X-21393750Y-33337500D03*
%TO.P,U1,35*%
%TO.N,GND*%
X-22193750Y-33337500D03*
%TO.P,U1,36*%
%TO.N,N/C*%
X-22993750Y-33337500D03*
%TO.P,U1,37*%
X-23793750Y-33337500D03*
%TO.P,U1,38*%
X-24593750Y-33337500D03*
%TO.P,U1,39*%
X-25393750Y-33337500D03*
%TO.P,U1,40*%
X-26193750Y-33337500D03*
%TO.P,U1,41*%
X-26993750Y-33337500D03*
%TO.P,U1,42*%
X-27793750Y-33337500D03*
%TO.P,U1,43*%
%TO.N,GND*%
X-28593750Y-33337500D03*
%TO.P,U1,44*%
%TO.N,+5V*%
X-29393750Y-33337500D03*
%TD*%
D16*
%TO.P,RESET1,1*%
%TO.N,GND*%
X-40556250Y-33075000D03*
%TO.P,RESET1,2*%
%TO.N,Net-(R3-Pad2)*%
X-46756250Y-36775000D03*
%TO.P,RESET1,3*%
%TO.N,N/C*%
X-40556250Y-36775000D03*
%TO.P,RESET1,4*%
X-46756250Y-33075000D03*
%TD*%
%TO.P,F1,2*%
%TO.N,VCC*%
%TA.AperFunction,SMDPad,CuDef*%
G36*
G01*
X-47000000Y-9763000D02*
X-48250000Y-9763000D01*
G75*
G02*
X-48500000Y-9513000I0J250000D01*
G01*
X-48500000Y-8763000D01*
G75*
G02*
X-48250000Y-8513000I250000J0D01*
G01*
X-47000000Y-8513000D01*
G75*
G02*
X-46750000Y-8763000I0J-250000D01*
G01*
X-46750000Y-9513000D01*
G75*
G02*
X-47000000Y-9763000I-250000J0D01*
G01*
G37*
%TD.AperFunction*%
%TO.P,F1,1*%
%TO.N,+5V*%
%TA.AperFunction,SMDPad,CuDef*%
G36*
G01*
X-47000000Y-12563000D02*
X-48250000Y-12563000D01*
G75*
G02*
X-48500000Y-12313000I0J250000D01*
G01*
X-48500000Y-11563000D01*
G75*
G02*
X-48250000Y-11313000I250000J0D01*
G01*
X-47000000Y-11313000D01*
G75*
G02*
X-46750000Y-11563000I0J-250000D01*
G01*
X-46750000Y-12313000D01*
G75*
G02*
X-47000000Y-12563000I-250000J0D01*
G01*
G37*
%TD.AperFunction*%
%TD*%
D17*
%TO.P,D9,2*%
%TO.N,Net-(D9-Pad2)*%
X46037500Y-36450000D03*
%TO.P,D9,1*%
%TO.N,ROW2*%
X46037500Y-39750000D03*
%TD*%
%TO.P,D8,2*%
%TO.N,Net-(D8-Pad2)*%
X26987500Y-36450000D03*
%TO.P,D8,1*%
%TO.N,ROW2*%
X26987500Y-39750000D03*
%TD*%
%TO.P,D7,2*%
%TO.N,Net-(D7-Pad2)*%
X7937500Y-36450000D03*
%TO.P,D7,1*%
%TO.N,ROW2*%
X7937500Y-39750000D03*
%TD*%
%TO.P,D6,2*%
%TO.N,Net-(D6-Pad2)*%
X46037500Y-17400000D03*
%TO.P,D6,1*%
%TO.N,ROW1*%
X46037500Y-20700000D03*
%TD*%
%TO.P,D5,2*%
%TO.N,Net-(D5-Pad2)*%
X26987500Y-17400000D03*
%TO.P,D5,1*%
%TO.N,ROW1*%
X26987500Y-20700000D03*
%TD*%
%TO.P,D4,2*%
%TO.N,Net-(D4-Pad2)*%
X7937500Y-17400000D03*
%TO.P,D4,1*%
%TO.N,ROW1*%
X7937500Y-20700000D03*
%TD*%
%TO.P,D3,2*%
%TO.N,Net-(D3-Pad2)*%
X46037500Y1650000D03*
%TO.P,D3,1*%
%TO.N,ROW0*%
X46037500Y-1650000D03*
%TD*%
%TO.P,D2,2*%
%TO.N,Net-(D2-Pad2)*%
X26987500Y1650000D03*
%TO.P,D2,1*%
%TO.N,ROW0*%
X26987500Y-1650000D03*
%TD*%
%TO.P,D1,2*%
%TO.N,Net-(D1-Pad2)*%
X7937500Y1650000D03*
%TO.P,D1,1*%
%TO.N,ROW0*%
X7937500Y-1650000D03*
%TD*%
%TO.P,C7,2*%
%TO.N,GND*%
%TA.AperFunction,SMDPad,CuDef*%
G36*
G01*
X-35273000Y-32769000D02*
X-34323000Y-32769000D01*
G75*
G02*
X-34073000Y-33019000I0J-250000D01*
G01*
X-34073000Y-33519000D01*
G75*
G02*
X-34323000Y-33769000I-250000J0D01*
G01*
X-35273000Y-33769000D01*
G75*
G02*
X-35523000Y-33519000I0J250000D01*
G01*
X-35523000Y-33019000D01*
G75*
G02*
X-35273000Y-32769000I250000J0D01*
G01*
G37*
%TD.AperFunction*%
%TO.P,C7,1*%
%TO.N,+5V*%
%TA.AperFunction,SMDPad,CuDef*%
G36*
G01*
X-35273000Y-30869000D02*
X-34323000Y-30869000D01*
G75*
G02*
X-34073000Y-31119000I0J-250000D01*
G01*
X-34073000Y-31619000D01*
G75*
G02*
X-34323000Y-31869000I-250000J0D01*
G01*
X-35273000Y-31869000D01*
G75*
G02*
X-35523000Y-31619000I0J250000D01*
G01*
X-35523000Y-31119000D01*
G75*
G02*
X-35273000Y-30869000I250000J0D01*
G01*
G37*
%TD.AperFunction*%
%TD*%
%TO.P,C6,2*%
%TO.N,GND*%
%TA.AperFunction,SMDPad,CuDef*%
G36*
G01*
X-36076000Y-26449000D02*
X-36076000Y-27399000D01*
G75*
G02*
X-36326000Y-27649000I-250000J0D01*
G01*
X-36826000Y-27649000D01*
G75*
G02*
X-37076000Y-27399000I0J250000D01*
G01*
X-37076000Y-26449000D01*
G75*
G02*
X-36826000Y-26199000I250000J0D01*
G01*
X-36326000Y-26199000D01*
G75*
G02*
X-36076000Y-26449000I0J-250000D01*
G01*
G37*
%TD.AperFunction*%
%TO.P,C6,1*%
%TO.N,Net-(C6-Pad1)*%
%TA.AperFunction,SMDPad,CuDef*%
G36*
G01*
X-34176000Y-26449000D02*
X-34176000Y-27399000D01*
G75*
G02*
X-34426000Y-27649000I-250000J0D01*
G01*
X-34926000Y-27649000D01*
G75*
G02*
X-35176000Y-27399000I0J250000D01*
G01*
X-35176000Y-26449000D01*
G75*
G02*
X-34926000Y-26199000I250000J0D01*
G01*
X-34426000Y-26199000D01*
G75*
G02*
X-34176000Y-26449000I0J-250000D01*
G01*
G37*
%TD.AperFunction*%
%TD*%
%TO.P,C5,2*%
%TO.N,GND*%
%TA.AperFunction,SMDPad,CuDef*%
G36*
G01*
X-15400000Y-23614000D02*
X-16350000Y-23614000D01*
G75*
G02*
X-16600000Y-23364000I0J250000D01*
G01*
X-16600000Y-22864000D01*
G75*
G02*
X-16350000Y-22614000I250000J0D01*
G01*
X-15400000Y-22614000D01*
G75*
G02*
X-15150000Y-22864000I0J-250000D01*
G01*
X-15150000Y-23364000D01*
G75*
G02*
X-15400000Y-23614000I-250000J0D01*
G01*
G37*
%TD.AperFunction*%
%TO.P,C5,1*%
%TO.N,+5V*%
%TA.AperFunction,SMDPad,CuDef*%
G36*
G01*
X-15400000Y-25514000D02*
X-16350000Y-25514000D01*
G75*
G02*
X-16600000Y-25264000I0J250000D01*
G01*
X-16600000Y-24764000D01*
G75*
G02*
X-16350000Y-24514000I250000J0D01*
G01*
X-15400000Y-24514000D01*
G75*
G02*
X-15150000Y-24764000I0J-250000D01*
G01*
X-15150000Y-25264000D01*
G75*
G02*
X-15400000Y-25514000I-250000J0D01*
G01*
G37*
%TD.AperFunction*%
%TD*%
%TO.P,C4,2*%
%TO.N,GND*%
%TA.AperFunction,SMDPad,CuDef*%
G36*
G01*
X-31463000Y-14227000D02*
X-30513000Y-14227000D01*
G75*
G02*
X-30263000Y-14477000I0J-250000D01*
G01*
X-30263000Y-14977000D01*
G75*
G02*
X-30513000Y-15227000I-250000J0D01*
G01*
X-31463000Y-15227000D01*
G75*
G02*
X-31713000Y-14977000I0J250000D01*
G01*
X-31713000Y-14477000D01*
G75*
G02*
X-31463000Y-14227000I250000J0D01*
G01*
G37*
%TD.AperFunction*%
%TO.P,C4,1*%
%TO.N,Net-(C4-Pad1)*%
%TA.AperFunction,SMDPad,CuDef*%
G36*
G01*
X-31463000Y-12327000D02*
X-30513000Y-12327000D01*
G75*
G02*
X-30263000Y-12577000I0J-250000D01*
G01*
X-30263000Y-13077000D01*
G75*
G02*
X-30513000Y-13327000I-250000J0D01*
G01*
X-31463000Y-13327000D01*
G75*
G02*
X-31713000Y-13077000I0J250000D01*
G01*
X-31713000Y-12577000D01*
G75*
G02*
X-31463000Y-12327000I250000J0D01*
G01*
G37*
%TD.AperFunction*%
%TD*%
%TO.P,C3,2*%
%TO.N,GND*%
%TA.AperFunction,SMDPad,CuDef*%
G36*
G01*
X-20194250Y-13327000D02*
X-21144250Y-13327000D01*
G75*
G02*
X-21394250Y-13077000I0J250000D01*
G01*
X-21394250Y-12577000D01*
G75*
G02*
X-21144250Y-12327000I250000J0D01*
G01*
X-20194250Y-12327000D01*
G75*
G02*
X-19944250Y-12577000I0J-250000D01*
G01*
X-19944250Y-13077000D01*
G75*
G02*
X-20194250Y-13327000I-250000J0D01*
G01*
G37*
%TD.AperFunction*%
%TO.P,C3,1*%
%TO.N,Net-(C3-Pad1)*%
%TA.AperFunction,SMDPad,CuDef*%
G36*
G01*
X-20194250Y-15227000D02*
X-21144250Y-15227000D01*
G75*
G02*
X-21394250Y-14977000I0J250000D01*
G01*
X-21394250Y-14477000D01*
G75*
G02*
X-21144250Y-14227000I250000J0D01*
G01*
X-20194250Y-14227000D01*
G75*
G02*
X-19944250Y-14477000I0J-250000D01*
G01*
X-19944250Y-14977000D01*
G75*
G02*
X-20194250Y-15227000I-250000J0D01*
G01*
G37*
%TD.AperFunction*%
%TD*%
%TO.P,C2,2*%
%TO.N,GND*%
%TA.AperFunction,SMDPad,CuDef*%
G36*
G01*
X-32862500Y-18756250D02*
X-33812500Y-18756250D01*
G75*
G02*
X-34062500Y-18506250I0J250000D01*
G01*
X-34062500Y-18006250D01*
G75*
G02*
X-33812500Y-17756250I250000J0D01*
G01*
X-32862500Y-17756250D01*
G75*
G02*
X-32612500Y-18006250I0J-250000D01*
G01*
X-32612500Y-18506250D01*
G75*
G02*
X-32862500Y-18756250I-250000J0D01*
G01*
G37*
%TD.AperFunction*%
%TO.P,C2,1*%
%TO.N,+5V*%
%TA.AperFunction,SMDPad,CuDef*%
G36*
G01*
X-32862500Y-20656250D02*
X-33812500Y-20656250D01*
G75*
G02*
X-34062500Y-20406250I0J250000D01*
G01*
X-34062500Y-19906250D01*
G75*
G02*
X-33812500Y-19656250I250000J0D01*
G01*
X-32862500Y-19656250D01*
G75*
G02*
X-32612500Y-19906250I0J-250000D01*
G01*
X-32612500Y-20406250D01*
G75*
G02*
X-32862500Y-20656250I-250000J0D01*
G01*
G37*
%TD.AperFunction*%
%TD*%
%TO.P,C1,2*%
%TO.N,GND*%
%TA.AperFunction,SMDPad,CuDef*%
G36*
G01*
X-20931250Y-36037500D02*
X-20931250Y-36987500D01*
G75*
G02*
X-21181250Y-37237500I-250000J0D01*
G01*
X-21681250Y-37237500D01*
G75*
G02*
X-21931250Y-36987500I0J250000D01*
G01*
X-21931250Y-36037500D01*
G75*
G02*
X-21681250Y-35787500I250000J0D01*
G01*
X-21181250Y-35787500D01*
G75*
G02*
X-20931250Y-36037500I0J-250000D01*
G01*
G37*
%TD.AperFunction*%
%TO.P,C1,1*%
%TO.N,+5V*%
%TA.AperFunction,SMDPad,CuDef*%
G36*
G01*
X-19031250Y-36037500D02*
X-19031250Y-36987500D01*
G75*
G02*
X-19281250Y-37237500I-250000J0D01*
G01*
X-19781250Y-37237500D01*
G75*
G02*
X-20031250Y-36987500I0J250000D01*
G01*
X-20031250Y-36037500D01*
G75*
G02*
X-19781250Y-35787500I250000J0D01*
G01*
X-19281250Y-35787500D01*
G75*
G02*
X-19031250Y-36037500I0J-250000D01*
G01*
G37*
%TD.AperFunction*%
%TD*%
D18*
%TO.N,+5V*%
X-17780000Y-36576000D03*
X-32869500Y-30837500D03*
X-34925000Y-19304000D03*
X-32869500Y-26693500D03*
X-14478000Y-25019000D03*
%TO.N,Net-(R3-Pad2)*%
X-48387000Y-35560000D03*
X-38735000Y-20193000D03*
%TO.N,COL0*%
X-8604250Y-30765750D03*
X-7112000Y95250D03*
X-7112000Y-18954750D03*
X-7112000Y-14192250D03*
%TO.N,COL1*%
X11938000Y95250D03*
X11938000Y-14192250D03*
X11938000Y-18954750D03*
X10445750Y-30765750D03*
%TO.N,COL2*%
X30988000Y-14192250D03*
X30988000Y95250D03*
X30988000Y-18954750D03*
X25477000Y-30022000D03*
%TD*%
D19*
%TO.N,GND*%
X-24763000Y-12827000D02*
X-24819250Y-12770750D01*
X-20669250Y-12827000D02*
X-24763000Y-12827000D01*
X-32103510Y-13611490D02*
X-30988000Y-14727000D01*
X-32103510Y-12311690D02*
X-32103510Y-13611490D01*
X-31572069Y-11780249D02*
X-32103510Y-12311690D01*
X-25809751Y-11780249D02*
X-31572069Y-11780249D01*
X-24819250Y-12770750D02*
X-25809751Y-11780249D01*
X-26993750Y-18721250D02*
X-26993750Y-21937500D01*
X-30988000Y-14727000D02*
X-26993750Y-18721250D01*
X-26993750Y-21009598D02*
X-26993750Y-21937500D01*
X-29747098Y-18256250D02*
X-26993750Y-21009598D01*
X-33337500Y-18256250D02*
X-29747098Y-18256250D01*
X-25016348Y-12770750D02*
X-24819250Y-12770750D01*
X-26716348Y-14470750D02*
X-25016348Y-12770750D01*
X-27019250Y-14470750D02*
X-26716348Y-14470750D01*
X-40362250Y-33269000D02*
X-40556250Y-33075000D01*
X-34798000Y-33269000D02*
X-40362250Y-33269000D01*
X-28593750Y-34468500D02*
X-29177250Y-35052000D01*
X-28593750Y-33337500D02*
X-28593750Y-34468500D01*
X-33015000Y-35052000D02*
X-34798000Y-33269000D01*
X-29177250Y-35052000D02*
X-33015000Y-35052000D01*
X-22193750Y-35750000D02*
X-21431250Y-36512500D01*
X-22193750Y-33337500D02*
X-22193750Y-35750000D01*
X-21431250Y-36512500D02*
X-21431250Y-37369750D01*
X-21431250Y-37369750D02*
X-20447000Y-38354000D01*
X-20447000Y-38354000D02*
X-17526000Y-38354000D01*
X-15875000Y-36703000D02*
X-15875000Y-33575000D01*
X-17526000Y-38354000D02*
X-15875000Y-36703000D01*
X-28593750Y-29806500D02*
X-28593750Y-33337500D01*
X-29962750Y-28437500D02*
X-28593750Y-29806500D01*
X-31093750Y-28437500D02*
X-29962750Y-28437500D01*
X-22193750Y-33337500D02*
X-22193750Y-31273250D01*
X-23660500Y-29806500D02*
X-28593750Y-29806500D01*
X-22193750Y-31273250D02*
X-23660500Y-29806500D01*
X-19693750Y-23637500D02*
X-21732500Y-23637500D01*
X-23660500Y-25565500D02*
X-23660500Y-29806500D01*
X-21732500Y-23637500D02*
X-23660500Y-25565500D01*
X-24293652Y-25565500D02*
X-23660500Y-25565500D01*
X-26993750Y-22865402D02*
X-24293652Y-25565500D01*
X-26993750Y-21937500D02*
X-26993750Y-22865402D01*
X-16398500Y-23637500D02*
X-15875000Y-23114000D01*
X-19693750Y-23637500D02*
X-16398500Y-23637500D01*
X-40946490Y-22284330D02*
X-40946490Y-582510D01*
X-34793320Y-28437500D02*
X-40946490Y-22284330D01*
X-31093750Y-28437500D02*
X-34793320Y-28437500D01*
X-41737500Y208500D02*
X-40946490Y-582510D01*
X-41737500Y1723000D02*
X-41737500Y208500D01*
X-41737500Y1723000D02*
X-41737500Y3532750D01*
%TO.N,+5V*%
X-27793750Y-21937500D02*
X-27793750Y-21031270D01*
X-28668770Y-20156250D02*
X-33337500Y-20156250D01*
X-27793750Y-21031270D02*
X-28668770Y-20156250D01*
X-33337500Y-20156250D02*
X-34072750Y-20156250D01*
X-35941000Y-18288000D02*
X-36830000Y-18288000D01*
X-34798000Y-31369000D02*
X-34266500Y-30837500D01*
X-21393750Y-34650000D02*
X-19531250Y-36512500D01*
X-21393750Y-33337500D02*
X-21393750Y-34650000D01*
X-32829500Y-33337500D02*
X-34798000Y-31369000D01*
X-29393750Y-33337500D02*
X-32829500Y-33337500D01*
X-37846000Y-31369000D02*
X-34798000Y-31369000D01*
X-47625000Y-21590000D02*
X-37846000Y-31369000D01*
X-16451500Y-24437500D02*
X-15875000Y-25014000D01*
X-19693750Y-24437500D02*
X-16451500Y-24437500D01*
X-17780000Y-36576000D02*
X-20066000Y-36576000D01*
X-32869500Y-30837500D02*
X-31093750Y-30837500D01*
X-34266500Y-30837500D02*
X-32869500Y-30837500D01*
X-34925000Y-19304000D02*
X-35941000Y-18288000D01*
X-34072750Y-20156250D02*
X-34925000Y-19304000D01*
X-32725500Y-26837500D02*
X-32869500Y-26693500D01*
X-31093750Y-26837500D02*
X-32725500Y-26837500D01*
X-15875000Y-25014000D02*
X-15875000Y-25019000D01*
X-14483000Y-25014000D02*
X-14478000Y-25019000D01*
X-15875000Y-25014000D02*
X-14483000Y-25014000D01*
X-47625000Y-21590000D02*
X-47625000Y-11938000D01*
D20*
%TO.N,Net-(C3-Pad1)*%
X-24563000Y-14727000D02*
X-24819250Y-14470750D01*
X-20669250Y-14727000D02*
X-24563000Y-14727000D01*
X-25393750Y-21937500D02*
X-25393750Y-17138750D01*
X-24819250Y-16564250D02*
X-24819250Y-14470750D01*
X-25393750Y-17138750D02*
X-24819250Y-16564250D01*
%TO.N,Net-(C4-Pad1)*%
X-27075500Y-12827000D02*
X-27019250Y-12770750D01*
X-30988000Y-12827000D02*
X-27075500Y-12827000D01*
X-27207852Y-12770750D02*
X-27019250Y-12770750D01*
X-28046251Y-13609149D02*
X-27207852Y-12770750D01*
X-28046251Y-15332351D02*
X-28046251Y-13609149D01*
X-26193750Y-17184852D02*
X-28046251Y-15332351D01*
X-26193750Y-21937500D02*
X-26193750Y-17184852D01*
%TO.N,Net-(C6-Pad1)*%
X-33962500Y-27637500D02*
X-34676000Y-26924000D01*
X-31093750Y-27637500D02*
X-33962500Y-27637500D01*
%TO.N,Net-(D1-Pad2)*%
X7937500Y2984500D02*
X5842000Y5080000D01*
X7937500Y1650000D02*
X7937500Y2984500D01*
%TO.N,ROW0*%
X46037500Y-1650000D02*
X45975000Y-1650000D01*
X29147500Y-3810000D02*
X26987500Y-1650000D01*
X45975000Y-1650000D02*
X43815000Y-3810000D01*
X26987500Y-1650000D02*
X26987500Y-1714500D01*
X26987500Y-1714500D02*
X24892000Y-3810000D01*
X10097500Y-3810000D02*
X7937500Y-1650000D01*
X43815000Y-3810000D02*
X29147500Y-3810000D01*
X24892000Y-3810000D02*
X10097500Y-3810000D01*
X7937500Y-1714500D02*
X7937500Y-1650000D01*
X5842000Y-3810000D02*
X7937500Y-1714500D01*
X-14029480Y-26729480D02*
X-10160000Y-22860000D01*
X-17780000Y-26729480D02*
X-14029480Y-26729480D01*
X-18471980Y-26037500D02*
X-17780000Y-26729480D01*
X-19693750Y-26037500D02*
X-18471980Y-26037500D01*
X-5080000Y-3810000D02*
X5842000Y-3810000D01*
X-10160000Y-8890000D02*
X-5080000Y-3810000D01*
X-10160000Y-22860000D02*
X-10160000Y-8890000D01*
%TO.N,Net-(D2-Pad2)*%
X26987500Y2984500D02*
X24892000Y5080000D01*
X26987500Y1650000D02*
X26987500Y2984500D01*
%TO.N,Net-(D3-Pad2)*%
X46037500Y1650000D02*
X46037500Y1714500D01*
X46037500Y2984500D02*
X43942000Y5080000D01*
X46037500Y1650000D02*
X46037500Y2984500D01*
%TO.N,Net-(D4-Pad2)*%
X7937500Y-16065500D02*
X5842000Y-13970000D01*
X7937500Y-17400000D02*
X7937500Y-16065500D01*
%TO.N,ROW1*%
X46037500Y-20700000D02*
X46037500Y-20764500D01*
X46037500Y-20764500D02*
X43942000Y-22860000D01*
X29147500Y-22860000D02*
X26987500Y-20700000D01*
X43942000Y-22860000D02*
X29147500Y-22860000D01*
X26987500Y-20700000D02*
X26987500Y-20764500D01*
X26987500Y-20764500D02*
X24892000Y-22860000D01*
X10097500Y-22860000D02*
X7937500Y-20700000D01*
X24892000Y-22860000D02*
X10097500Y-22860000D01*
X1800000Y-26837500D02*
X7937500Y-20700000D01*
X-19693750Y-26837500D02*
X-19598500Y-26837500D01*
X-19598500Y-26837500D02*
X-19512000Y-26924000D01*
X-18669000Y-26924000D02*
X-18409510Y-27183490D01*
X-19512000Y-26924000D02*
X-18669000Y-26924000D01*
X1454010Y-27183490D02*
X1800000Y-26837500D01*
X-18409510Y-27183490D02*
X1454010Y-27183490D01*
%TO.N,Net-(D5-Pad2)*%
X26987500Y-16065500D02*
X24892000Y-13970000D01*
X26987500Y-17400000D02*
X26987500Y-16065500D01*
%TO.N,Net-(D6-Pad2)*%
X46037500Y-16065500D02*
X43942000Y-13970000D01*
X46037500Y-17400000D02*
X46037500Y-16065500D01*
%TO.N,Net-(D7-Pad2)*%
X7937500Y-35115500D02*
X5842000Y-33020000D01*
X7937500Y-36450000D02*
X7937500Y-35115500D01*
%TO.N,ROW2*%
X46037500Y-39750000D02*
X46037500Y-39941500D01*
X29147500Y-41910000D02*
X26987500Y-39750000D01*
X43877500Y-41910000D02*
X29147500Y-41910000D01*
X46037500Y-39750000D02*
X43877500Y-41910000D01*
X26987500Y-39750000D02*
X26987500Y-39941500D01*
X26987500Y-39750000D02*
X26925000Y-39750000D01*
X26925000Y-39750000D02*
X24765000Y-41910000D01*
X10097500Y-41910000D02*
X7937500Y-39750000D01*
X24765000Y-41910000D02*
X10097500Y-41910000D01*
X-5080000Y-41910000D02*
X5777500Y-41910000D01*
X5777500Y-41910000D02*
X7937500Y-39750000D01*
X-5080000Y-41910000D02*
X-5588000Y-41910000D01*
X-5588000Y-41910000D02*
X-11080750Y-36417250D01*
X-11080750Y-36417250D02*
X-11080750Y-34036000D01*
X-11080750Y-34036000D02*
X-15049500Y-30067250D01*
X-15049500Y-30067250D02*
X-19812000Y-30067250D01*
%TO.N,Net-(D8-Pad2)*%
X26987500Y-35115500D02*
X24892000Y-33020000D01*
X26987500Y-36450000D02*
X26987500Y-35115500D01*
%TO.N,Net-(D9-Pad2)*%
X46037500Y-35115500D02*
X43942000Y-33020000D01*
X46037500Y-36450000D02*
X46037500Y-35115500D01*
D19*
%TO.N,VCC*%
X-47625000Y-3588680D02*
X-47625000Y-9138000D01*
X-44937500Y-901180D02*
X-47625000Y-3588680D01*
X-44937500Y1723000D02*
X-44937500Y-901180D01*
X-44937500Y1723000D02*
X-44937500Y3532750D01*
D20*
%TO.N,D-*%
X-45243750Y-3412500D02*
X-45243750Y-3651250D01*
X-45466000Y-3349000D02*
X-45466000Y-3429000D01*
X-44137500Y-1719500D02*
X-45466000Y-3048000D01*
X-44137500Y-1719500D02*
X-44137500Y1723000D01*
X-44137500Y1723000D02*
X-44137500Y3532750D01*
%TO.N,Net-(R1-Pad1)*%
X-31093750Y-30037500D02*
X-32519509Y-30037500D01*
X-32519509Y-30037500D02*
X-32639000Y-29918009D01*
X-38407991Y-29918009D02*
X-44196000Y-24130000D01*
X-32639000Y-29918009D02*
X-38407991Y-29918009D01*
X-44196000Y-6143000D02*
X-45466000Y-4873000D01*
X-44196000Y-24130000D02*
X-44196000Y-6143000D01*
%TO.N,D+*%
X-42084000Y-3349000D02*
X-42037000Y-3349000D01*
X-43337500Y2189500D02*
X-43337500Y3532750D01*
X-43337500Y-1747500D02*
X-43337500Y2189500D01*
X-42037000Y-3048000D02*
X-43337500Y-1747500D01*
%TO.N,Net-(R2-Pad1)*%
X-38227000Y-29337000D02*
X-43434000Y-24130000D01*
X-32639000Y-29337000D02*
X-38227000Y-29337000D01*
X-32539500Y-29237500D02*
X-32639000Y-29337000D01*
X-31093750Y-29237500D02*
X-32539500Y-29237500D01*
X-43434000Y-6270000D02*
X-42037000Y-4873000D01*
X-43434000Y-24130000D02*
X-43434000Y-6270000D01*
%TO.N,Net-(R3-Pad2)*%
X-35959740Y-20983260D02*
X-36830000Y-20113000D01*
X-32500731Y-20860499D02*
X-32623492Y-20983260D01*
X-32623492Y-20983260D02*
X-35959740Y-20983260D01*
X-28857149Y-20860499D02*
X-32500731Y-20860499D01*
X-28593750Y-21123898D02*
X-28857149Y-20860499D01*
X-28593750Y-21937500D02*
X-28593750Y-21123898D01*
X-47172000Y-36775000D02*
X-48387000Y-35560000D01*
X-46756250Y-36775000D02*
X-47172000Y-36775000D01*
X-36910000Y-20193000D02*
X-36830000Y-20113000D01*
X-38735000Y-20193000D02*
X-36910000Y-20193000D01*
%TO.N,Net-(R4-Pad2)*%
X-15987500Y-31637500D02*
X-15875000Y-31750000D01*
X-19693750Y-31637500D02*
X-15987500Y-31637500D01*
%TO.N,COL0*%
X-19693750Y-29237500D02*
X-18217980Y-29237500D01*
X-18217980Y-29237500D02*
X-17526000Y-28545520D01*
X-17526000Y-28545520D02*
X-10824480Y-28545520D01*
X-7085000Y-35560000D02*
X-7085000Y-32285000D01*
X-8604250Y-30765750D02*
X-10824480Y-28545520D01*
X-7085000Y-32285000D02*
X-8604250Y-30765750D01*
X-7053250Y2535250D02*
X-7112000Y2476500D01*
X-7053250Y2635250D02*
X-7053250Y2535250D01*
X-7112000Y2513000D02*
X-7085000Y2540000D01*
X-7112000Y95250D02*
X-7112000Y2513000D01*
X-7085000Y-16546500D02*
X-7112000Y-16519500D01*
X-7085000Y-16546500D02*
X-7112000Y-16573500D01*
X-7085000Y-16510000D02*
X-7085000Y-16546500D01*
X-7112000Y-16573500D02*
X-7112000Y-18954750D01*
X-7112000Y-16519500D02*
X-7112000Y-14192250D01*
%TO.N,COL1*%
X-19693750Y-28437500D02*
X-18379990Y-28437500D01*
X-18379990Y-28437500D02*
X-18034000Y-28091510D01*
X-18034000Y-28091510D02*
X7771510Y-28091510D01*
X11965000Y2540000D02*
X11965000Y2503500D01*
X11938000Y2476500D02*
X11938000Y95250D01*
X11965000Y2503500D02*
X11938000Y2476500D01*
X11938000Y-16483000D02*
X11965000Y-16510000D01*
X11938000Y-14192250D02*
X11938000Y-16483000D01*
X11965000Y-18927750D02*
X11938000Y-18954750D01*
X11965000Y-16510000D02*
X11965000Y-18927750D01*
X11965000Y-35560000D02*
X11965000Y-32285000D01*
X10445750Y-30765750D02*
X7771510Y-28091510D01*
X11965000Y-32285000D02*
X10445750Y-30765750D01*
%TO.N,COL2*%
X31015000Y-14219250D02*
X30988000Y-14192250D01*
X31015000Y-16510000D02*
X31015000Y-14219250D01*
X30988000Y2513000D02*
X31015000Y2540000D01*
X30988000Y95250D02*
X30988000Y2513000D01*
X-19693750Y-27637500D02*
X23092500Y-27637500D01*
X31015000Y-18927750D02*
X30988000Y-18954750D01*
X31015000Y-16510000D02*
X31015000Y-18927750D01*
X25477000Y-30022000D02*
X31015000Y-35560000D01*
X23092500Y-27637500D02*
X25477000Y-30022000D01*
%TD*%
%TO.N,GND*%
X-18383250Y-21304250D02*
X-20480678Y-21304250D01*
X-20480678Y-21187500D01*
X-20492938Y-21063018D01*
X-20529248Y-20943320D01*
X-20588213Y-20833006D01*
X-20667565Y-20736315D01*
X-20764256Y-20656963D01*
X-20874570Y-20597998D01*
X-20994268Y-20561688D01*
X-21118750Y-20549428D01*
X-21668750Y-20549428D01*
X-21793232Y-20561688D01*
X-21793750Y-20561845D01*
X-21794268Y-20561688D01*
X-21918750Y-20549428D01*
X-22468750Y-20549428D01*
X-22593232Y-20561688D01*
X-22593750Y-20561845D01*
X-22594268Y-20561688D01*
X-22718750Y-20549428D01*
X-23268750Y-20549428D01*
X-23393232Y-20561688D01*
X-23393750Y-20561845D01*
X-23394268Y-20561688D01*
X-23518750Y-20549428D01*
X-24068750Y-20549428D01*
X-24193232Y-20561688D01*
X-24193750Y-20561845D01*
X-24194268Y-20561688D01*
X-24318750Y-20549428D01*
X-24631750Y-20549428D01*
X-24631750Y-17454380D01*
X-24306903Y-17129533D01*
X-24277828Y-17105672D01*
X-24217393Y-17032031D01*
X-24182605Y-16989643D01*
X-24111849Y-16857266D01*
X-24111848Y-16857265D01*
X-24068276Y-16713628D01*
X-24057250Y-16601676D01*
X-24057250Y-16601673D01*
X-24053564Y-16564250D01*
X-24057250Y-16526827D01*
X-24057250Y-15702716D01*
X-23994768Y-15696562D01*
X-23875070Y-15660252D01*
X-23764756Y-15601287D01*
X-23668065Y-15521935D01*
X-23641036Y-15489000D01*
X-21867379Y-15489000D01*
X-21772212Y-15604962D01*
X-21637636Y-15715405D01*
X-21484100Y-15797472D01*
X-21317504Y-15848008D01*
X-21144250Y-15865072D01*
X-20194250Y-15865072D01*
X-20020996Y-15848008D01*
X-19854400Y-15797472D01*
X-19700864Y-15715405D01*
X-19566288Y-15604962D01*
X-19455845Y-15470386D01*
X-19373778Y-15316850D01*
X-19323242Y-15150254D01*
X-19306178Y-14977000D01*
X-19306178Y-14477000D01*
X-19323242Y-14303746D01*
X-19373778Y-14137150D01*
X-19455845Y-13983614D01*
X-19566288Y-13849038D01*
X-19572844Y-13843658D01*
X-19493065Y-13778185D01*
X-19413713Y-13681494D01*
X-19354748Y-13571180D01*
X-19318438Y-13451482D01*
X-19306178Y-13327000D01*
X-19309250Y-13112750D01*
X-19468000Y-12954000D01*
X-20542250Y-12954000D01*
X-20542250Y-12974000D01*
X-20796250Y-12974000D01*
X-20796250Y-12954000D01*
X-21870500Y-12954000D01*
X-22029250Y-13112750D01*
X-22032322Y-13327000D01*
X-22020062Y-13451482D01*
X-21983752Y-13571180D01*
X-21924787Y-13681494D01*
X-21845435Y-13778185D01*
X-21765656Y-13843658D01*
X-21772212Y-13849038D01*
X-21867379Y-13965000D01*
X-23481178Y-13965000D01*
X-23481178Y-13870750D01*
X-23493438Y-13746268D01*
X-23529748Y-13626570D01*
X-23532859Y-13620750D01*
X-23529748Y-13614930D01*
X-23493438Y-13495232D01*
X-23481178Y-13370750D01*
X-23484250Y-13056500D01*
X-23643000Y-12897750D01*
X-24692250Y-12897750D01*
X-24692250Y-12917750D01*
X-24946250Y-12917750D01*
X-24946250Y-12897750D01*
X-24966250Y-12897750D01*
X-24966250Y-12643750D01*
X-24946250Y-12643750D01*
X-24946250Y-11694500D01*
X-24692250Y-11694500D01*
X-24692250Y-12643750D01*
X-23643000Y-12643750D01*
X-23484250Y-12485000D01*
X-23482706Y-12327000D01*
X-22032322Y-12327000D01*
X-22029250Y-12541250D01*
X-21870500Y-12700000D01*
X-20796250Y-12700000D01*
X-20796250Y-11850750D01*
X-20542250Y-11850750D01*
X-20542250Y-12700000D01*
X-19468000Y-12700000D01*
X-19309250Y-12541250D01*
X-19306178Y-12327000D01*
X-19318438Y-12202518D01*
X-19354748Y-12082820D01*
X-19413713Y-11972506D01*
X-19493065Y-11875815D01*
X-19589756Y-11796463D01*
X-19700070Y-11737498D01*
X-19819768Y-11701188D01*
X-19944250Y-11688928D01*
X-20383500Y-11692000D01*
X-20542250Y-11850750D01*
X-20796250Y-11850750D01*
X-20955000Y-11692000D01*
X-21394250Y-11688928D01*
X-21518732Y-11701188D01*
X-21638430Y-11737498D01*
X-21748744Y-11796463D01*
X-21845435Y-11875815D01*
X-21924787Y-11972506D01*
X-21983752Y-12082820D01*
X-22020062Y-12202518D01*
X-22032322Y-12327000D01*
X-23482706Y-12327000D01*
X-23481178Y-12170750D01*
X-23493438Y-12046268D01*
X-23529748Y-11926570D01*
X-23588713Y-11816256D01*
X-23668065Y-11719565D01*
X-23764756Y-11640213D01*
X-23875070Y-11581248D01*
X-23994768Y-11544938D01*
X-24119250Y-11532678D01*
X-24533500Y-11535750D01*
X-24692250Y-11694500D01*
X-24946250Y-11694500D01*
X-25105000Y-11535750D01*
X-25519250Y-11532678D01*
X-25643732Y-11544938D01*
X-25763430Y-11581248D01*
X-25873744Y-11640213D01*
X-25919250Y-11677559D01*
X-25964756Y-11640213D01*
X-26075070Y-11581248D01*
X-26194768Y-11544938D01*
X-26319250Y-11532678D01*
X-27719250Y-11532678D01*
X-27843732Y-11544938D01*
X-27963430Y-11581248D01*
X-28073744Y-11640213D01*
X-28170435Y-11719565D01*
X-28249787Y-11816256D01*
X-28308752Y-11926570D01*
X-28345062Y-12046268D01*
X-28346907Y-12065000D01*
X-29789871Y-12065000D01*
X-29885038Y-11949038D01*
X-30019614Y-11838595D01*
X-30173150Y-11756528D01*
X-30339746Y-11705992D01*
X-30513000Y-11688928D01*
X-31463000Y-11688928D01*
X-31636254Y-11705992D01*
X-31802850Y-11756528D01*
X-31956386Y-11838595D01*
X-32090962Y-11949038D01*
X-32201405Y-12083614D01*
X-32283472Y-12237150D01*
X-32334008Y-12403746D01*
X-32351072Y-12577000D01*
X-32351072Y-13077000D01*
X-32334008Y-13250254D01*
X-32283472Y-13416850D01*
X-32201405Y-13570386D01*
X-32090962Y-13704962D01*
X-32084406Y-13710342D01*
X-32164185Y-13775815D01*
X-32243537Y-13872506D01*
X-32302502Y-13982820D01*
X-32338812Y-14102518D01*
X-32351072Y-14227000D01*
X-32348000Y-14441250D01*
X-32189250Y-14600000D01*
X-31115000Y-14600000D01*
X-31115000Y-14580000D01*
X-30861000Y-14580000D01*
X-30861000Y-14600000D01*
X-29786750Y-14600000D01*
X-29628000Y-14441250D01*
X-29624928Y-14227000D01*
X-29637188Y-14102518D01*
X-29673498Y-13982820D01*
X-29732463Y-13872506D01*
X-29811815Y-13775815D01*
X-29891594Y-13710342D01*
X-29885038Y-13704962D01*
X-29789871Y-13589000D01*
X-28809952Y-13589000D01*
X-28811937Y-13609149D01*
X-28808250Y-13646582D01*
X-28808251Y-15294927D01*
X-28811937Y-15332351D01*
X-28808251Y-15369774D01*
X-28808251Y-15369776D01*
X-28797225Y-15481728D01*
X-28753653Y-15625365D01*
X-28725420Y-15678185D01*
X-28682896Y-15757743D01*
X-28650291Y-15797472D01*
X-28587673Y-15873773D01*
X-28558597Y-15897635D01*
X-26955749Y-17500484D01*
X-26955750Y-20779956D01*
X-26993417Y-20825853D01*
X-27027397Y-20713836D01*
X-27056839Y-20658754D01*
X-27104051Y-20570427D01*
X-27181359Y-20476228D01*
X-27207209Y-20444729D01*
X-27238711Y-20418876D01*
X-28056372Y-19601216D01*
X-28082229Y-19569709D01*
X-28207928Y-19466551D01*
X-28351336Y-19389897D01*
X-28506944Y-19342694D01*
X-28628217Y-19330750D01*
X-28628220Y-19330750D01*
X-28668770Y-19326756D01*
X-28709320Y-19330750D01*
X-32191484Y-19330750D01*
X-32234538Y-19278288D01*
X-32241094Y-19272908D01*
X-32161315Y-19207435D01*
X-32081963Y-19110744D01*
X-32022998Y-19000430D01*
X-31986688Y-18880732D01*
X-31974428Y-18756250D01*
X-31977500Y-18542000D01*
X-32136250Y-18383250D01*
X-33210500Y-18383250D01*
X-33210500Y-18403250D01*
X-33464500Y-18403250D01*
X-33464500Y-18383250D01*
X-33484500Y-18383250D01*
X-33484500Y-18129250D01*
X-33464500Y-18129250D01*
X-33464500Y-17280000D01*
X-33210500Y-17280000D01*
X-33210500Y-18129250D01*
X-32136250Y-18129250D01*
X-31977500Y-17970500D01*
X-31974428Y-17756250D01*
X-31986688Y-17631768D01*
X-32022998Y-17512070D01*
X-32081963Y-17401756D01*
X-32161315Y-17305065D01*
X-32258006Y-17225713D01*
X-32368320Y-17166748D01*
X-32488018Y-17130438D01*
X-32612500Y-17118178D01*
X-33051750Y-17121250D01*
X-33210500Y-17280000D01*
X-33464500Y-17280000D01*
X-33623250Y-17121250D01*
X-34004250Y-17118585D01*
X-34004250Y-15227000D01*
X-32351072Y-15227000D01*
X-32338812Y-15351482D01*
X-32302502Y-15471180D01*
X-32243537Y-15581494D01*
X-32164185Y-15678185D01*
X-32067494Y-15757537D01*
X-31957180Y-15816502D01*
X-31837482Y-15852812D01*
X-31713000Y-15865072D01*
X-31273750Y-15862000D01*
X-31115000Y-15703250D01*
X-31115000Y-14854000D01*
X-30861000Y-14854000D01*
X-30861000Y-15703250D01*
X-30702250Y-15862000D01*
X-30263000Y-15865072D01*
X-30138518Y-15852812D01*
X-30018820Y-15816502D01*
X-29908506Y-15757537D01*
X-29811815Y-15678185D01*
X-29732463Y-15581494D01*
X-29673498Y-15471180D01*
X-29637188Y-15351482D01*
X-29624928Y-15227000D01*
X-29628000Y-15012750D01*
X-29786750Y-14854000D01*
X-30861000Y-14854000D01*
X-31115000Y-14854000D01*
X-32189250Y-14854000D01*
X-32348000Y-15012750D01*
X-32351072Y-15227000D01*
X-34004250Y-15227000D01*
X-34004250Y-10445750D01*
X-18383250Y-10445750D01*
X-18383250Y-21304250D01*
%TA.AperFunction,Conductor*%
D21*
G36*
X-18383250Y-21304250D02*
G01*
X-20480678Y-21304250D01*
X-20480678Y-21187500D01*
X-20492938Y-21063018D01*
X-20529248Y-20943320D01*
X-20588213Y-20833006D01*
X-20667565Y-20736315D01*
X-20764256Y-20656963D01*
X-20874570Y-20597998D01*
X-20994268Y-20561688D01*
X-21118750Y-20549428D01*
X-21668750Y-20549428D01*
X-21793232Y-20561688D01*
X-21793750Y-20561845D01*
X-21794268Y-20561688D01*
X-21918750Y-20549428D01*
X-22468750Y-20549428D01*
X-22593232Y-20561688D01*
X-22593750Y-20561845D01*
X-22594268Y-20561688D01*
X-22718750Y-20549428D01*
X-23268750Y-20549428D01*
X-23393232Y-20561688D01*
X-23393750Y-20561845D01*
X-23394268Y-20561688D01*
X-23518750Y-20549428D01*
X-24068750Y-20549428D01*
X-24193232Y-20561688D01*
X-24193750Y-20561845D01*
X-24194268Y-20561688D01*
X-24318750Y-20549428D01*
X-24631750Y-20549428D01*
X-24631750Y-17454380D01*
X-24306903Y-17129533D01*
X-24277828Y-17105672D01*
X-24217393Y-17032031D01*
X-24182605Y-16989643D01*
X-24111849Y-16857266D01*
X-24111848Y-16857265D01*
X-24068276Y-16713628D01*
X-24057250Y-16601676D01*
X-24057250Y-16601673D01*
X-24053564Y-16564250D01*
X-24057250Y-16526827D01*
X-24057250Y-15702716D01*
X-23994768Y-15696562D01*
X-23875070Y-15660252D01*
X-23764756Y-15601287D01*
X-23668065Y-15521935D01*
X-23641036Y-15489000D01*
X-21867379Y-15489000D01*
X-21772212Y-15604962D01*
X-21637636Y-15715405D01*
X-21484100Y-15797472D01*
X-21317504Y-15848008D01*
X-21144250Y-15865072D01*
X-20194250Y-15865072D01*
X-20020996Y-15848008D01*
X-19854400Y-15797472D01*
X-19700864Y-15715405D01*
X-19566288Y-15604962D01*
X-19455845Y-15470386D01*
X-19373778Y-15316850D01*
X-19323242Y-15150254D01*
X-19306178Y-14977000D01*
X-19306178Y-14477000D01*
X-19323242Y-14303746D01*
X-19373778Y-14137150D01*
X-19455845Y-13983614D01*
X-19566288Y-13849038D01*
X-19572844Y-13843658D01*
X-19493065Y-13778185D01*
X-19413713Y-13681494D01*
X-19354748Y-13571180D01*
X-19318438Y-13451482D01*
X-19306178Y-13327000D01*
X-19309250Y-13112750D01*
X-19468000Y-12954000D01*
X-20542250Y-12954000D01*
X-20542250Y-12974000D01*
X-20796250Y-12974000D01*
X-20796250Y-12954000D01*
X-21870500Y-12954000D01*
X-22029250Y-13112750D01*
X-22032322Y-13327000D01*
X-22020062Y-13451482D01*
X-21983752Y-13571180D01*
X-21924787Y-13681494D01*
X-21845435Y-13778185D01*
X-21765656Y-13843658D01*
X-21772212Y-13849038D01*
X-21867379Y-13965000D01*
X-23481178Y-13965000D01*
X-23481178Y-13870750D01*
X-23493438Y-13746268D01*
X-23529748Y-13626570D01*
X-23532859Y-13620750D01*
X-23529748Y-13614930D01*
X-23493438Y-13495232D01*
X-23481178Y-13370750D01*
X-23484250Y-13056500D01*
X-23643000Y-12897750D01*
X-24692250Y-12897750D01*
X-24692250Y-12917750D01*
X-24946250Y-12917750D01*
X-24946250Y-12897750D01*
X-24966250Y-12897750D01*
X-24966250Y-12643750D01*
X-24946250Y-12643750D01*
X-24946250Y-11694500D01*
X-24692250Y-11694500D01*
X-24692250Y-12643750D01*
X-23643000Y-12643750D01*
X-23484250Y-12485000D01*
X-23482706Y-12327000D01*
X-22032322Y-12327000D01*
X-22029250Y-12541250D01*
X-21870500Y-12700000D01*
X-20796250Y-12700000D01*
X-20796250Y-11850750D01*
X-20542250Y-11850750D01*
X-20542250Y-12700000D01*
X-19468000Y-12700000D01*
X-19309250Y-12541250D01*
X-19306178Y-12327000D01*
X-19318438Y-12202518D01*
X-19354748Y-12082820D01*
X-19413713Y-11972506D01*
X-19493065Y-11875815D01*
X-19589756Y-11796463D01*
X-19700070Y-11737498D01*
X-19819768Y-11701188D01*
X-19944250Y-11688928D01*
X-20383500Y-11692000D01*
X-20542250Y-11850750D01*
X-20796250Y-11850750D01*
X-20955000Y-11692000D01*
X-21394250Y-11688928D01*
X-21518732Y-11701188D01*
X-21638430Y-11737498D01*
X-21748744Y-11796463D01*
X-21845435Y-11875815D01*
X-21924787Y-11972506D01*
X-21983752Y-12082820D01*
X-22020062Y-12202518D01*
X-22032322Y-12327000D01*
X-23482706Y-12327000D01*
X-23481178Y-12170750D01*
X-23493438Y-12046268D01*
X-23529748Y-11926570D01*
X-23588713Y-11816256D01*
X-23668065Y-11719565D01*
X-23764756Y-11640213D01*
X-23875070Y-11581248D01*
X-23994768Y-11544938D01*
X-24119250Y-11532678D01*
X-24533500Y-11535750D01*
X-24692250Y-11694500D01*
X-24946250Y-11694500D01*
X-25105000Y-11535750D01*
X-25519250Y-11532678D01*
X-25643732Y-11544938D01*
X-25763430Y-11581248D01*
X-25873744Y-11640213D01*
X-25919250Y-11677559D01*
X-25964756Y-11640213D01*
X-26075070Y-11581248D01*
X-26194768Y-11544938D01*
X-26319250Y-11532678D01*
X-27719250Y-11532678D01*
X-27843732Y-11544938D01*
X-27963430Y-11581248D01*
X-28073744Y-11640213D01*
X-28170435Y-11719565D01*
X-28249787Y-11816256D01*
X-28308752Y-11926570D01*
X-28345062Y-12046268D01*
X-28346907Y-12065000D01*
X-29789871Y-12065000D01*
X-29885038Y-11949038D01*
X-30019614Y-11838595D01*
X-30173150Y-11756528D01*
X-30339746Y-11705992D01*
X-30513000Y-11688928D01*
X-31463000Y-11688928D01*
X-31636254Y-11705992D01*
X-31802850Y-11756528D01*
X-31956386Y-11838595D01*
X-32090962Y-11949038D01*
X-32201405Y-12083614D01*
X-32283472Y-12237150D01*
X-32334008Y-12403746D01*
X-32351072Y-12577000D01*
X-32351072Y-13077000D01*
X-32334008Y-13250254D01*
X-32283472Y-13416850D01*
X-32201405Y-13570386D01*
X-32090962Y-13704962D01*
X-32084406Y-13710342D01*
X-32164185Y-13775815D01*
X-32243537Y-13872506D01*
X-32302502Y-13982820D01*
X-32338812Y-14102518D01*
X-32351072Y-14227000D01*
X-32348000Y-14441250D01*
X-32189250Y-14600000D01*
X-31115000Y-14600000D01*
X-31115000Y-14580000D01*
X-30861000Y-14580000D01*
X-30861000Y-14600000D01*
X-29786750Y-14600000D01*
X-29628000Y-14441250D01*
X-29624928Y-14227000D01*
X-29637188Y-14102518D01*
X-29673498Y-13982820D01*
X-29732463Y-13872506D01*
X-29811815Y-13775815D01*
X-29891594Y-13710342D01*
X-29885038Y-13704962D01*
X-29789871Y-13589000D01*
X-28809952Y-13589000D01*
X-28811937Y-13609149D01*
X-28808250Y-13646582D01*
X-28808251Y-15294927D01*
X-28811937Y-15332351D01*
X-28808251Y-15369774D01*
X-28808251Y-15369776D01*
X-28797225Y-15481728D01*
X-28753653Y-15625365D01*
X-28725420Y-15678185D01*
X-28682896Y-15757743D01*
X-28650291Y-15797472D01*
X-28587673Y-15873773D01*
X-28558597Y-15897635D01*
X-26955749Y-17500484D01*
X-26955750Y-20779956D01*
X-26993417Y-20825853D01*
X-27027397Y-20713836D01*
X-27056839Y-20658754D01*
X-27104051Y-20570427D01*
X-27181359Y-20476228D01*
X-27207209Y-20444729D01*
X-27238711Y-20418876D01*
X-28056372Y-19601216D01*
X-28082229Y-19569709D01*
X-28207928Y-19466551D01*
X-28351336Y-19389897D01*
X-28506944Y-19342694D01*
X-28628217Y-19330750D01*
X-28628220Y-19330750D01*
X-28668770Y-19326756D01*
X-28709320Y-19330750D01*
X-32191484Y-19330750D01*
X-32234538Y-19278288D01*
X-32241094Y-19272908D01*
X-32161315Y-19207435D01*
X-32081963Y-19110744D01*
X-32022998Y-19000430D01*
X-31986688Y-18880732D01*
X-31974428Y-18756250D01*
X-31977500Y-18542000D01*
X-32136250Y-18383250D01*
X-33210500Y-18383250D01*
X-33210500Y-18403250D01*
X-33464500Y-18403250D01*
X-33464500Y-18383250D01*
X-33484500Y-18383250D01*
X-33484500Y-18129250D01*
X-33464500Y-18129250D01*
X-33464500Y-17280000D01*
X-33210500Y-17280000D01*
X-33210500Y-18129250D01*
X-32136250Y-18129250D01*
X-31977500Y-17970500D01*
X-31974428Y-17756250D01*
X-31986688Y-17631768D01*
X-32022998Y-17512070D01*
X-32081963Y-17401756D01*
X-32161315Y-17305065D01*
X-32258006Y-17225713D01*
X-32368320Y-17166748D01*
X-32488018Y-17130438D01*
X-32612500Y-17118178D01*
X-33051750Y-17121250D01*
X-33210500Y-17280000D01*
X-33464500Y-17280000D01*
X-33623250Y-17121250D01*
X-34004250Y-17118585D01*
X-34004250Y-15227000D01*
X-32351072Y-15227000D01*
X-32338812Y-15351482D01*
X-32302502Y-15471180D01*
X-32243537Y-15581494D01*
X-32164185Y-15678185D01*
X-32067494Y-15757537D01*
X-31957180Y-15816502D01*
X-31837482Y-15852812D01*
X-31713000Y-15865072D01*
X-31273750Y-15862000D01*
X-31115000Y-15703250D01*
X-31115000Y-14854000D01*
X-30861000Y-14854000D01*
X-30861000Y-15703250D01*
X-30702250Y-15862000D01*
X-30263000Y-15865072D01*
X-30138518Y-15852812D01*
X-30018820Y-15816502D01*
X-29908506Y-15757537D01*
X-29811815Y-15678185D01*
X-29732463Y-15581494D01*
X-29673498Y-15471180D01*
X-29637188Y-15351482D01*
X-29624928Y-15227000D01*
X-29628000Y-15012750D01*
X-29786750Y-14854000D01*
X-30861000Y-14854000D01*
X-31115000Y-14854000D01*
X-32189250Y-14854000D01*
X-32348000Y-15012750D01*
X-32351072Y-15227000D01*
X-34004250Y-15227000D01*
X-34004250Y-10445750D01*
X-18383250Y-10445750D01*
X-18383250Y-21304250D01*
G37*
%TD.AperFunction*%
D20*
X-26892250Y-14343750D02*
X-26872250Y-14343750D01*
X-26872250Y-14597750D01*
X-26892250Y-14597750D01*
X-26892250Y-14617750D01*
X-27146250Y-14617750D01*
X-27146250Y-14597750D01*
X-27166250Y-14597750D01*
X-27166250Y-14343750D01*
X-27146250Y-14343750D01*
X-27146250Y-14323750D01*
X-26892250Y-14323750D01*
X-26892250Y-14343750D01*
%TA.AperFunction,Conductor*%
D21*
G36*
X-26892250Y-14343750D02*
G01*
X-26872250Y-14343750D01*
X-26872250Y-14597750D01*
X-26892250Y-14597750D01*
X-26892250Y-14617750D01*
X-27146250Y-14617750D01*
X-27146250Y-14597750D01*
X-27166250Y-14597750D01*
X-27166250Y-14343750D01*
X-27146250Y-14343750D01*
X-27146250Y-14323750D01*
X-26892250Y-14323750D01*
X-26892250Y-14343750D01*
G37*
%TD.AperFunction*%
%TD*%
D20*
%TO.N,GND*%
X-30294562Y-34211982D02*
X-30258252Y-34331680D01*
X-30199287Y-34441994D01*
X-30119935Y-34538685D01*
X-30023244Y-34618037D01*
X-29912930Y-34677002D01*
X-29793232Y-34713312D01*
X-29668750Y-34725572D01*
X-29118750Y-34725572D01*
X-28994268Y-34713312D01*
X-28993087Y-34712954D01*
X-28879500Y-34722500D01*
X-28787417Y-34630417D01*
X-28764256Y-34618037D01*
X-28667565Y-34538685D01*
X-28593750Y-34448741D01*
X-28519935Y-34538685D01*
X-28423244Y-34618037D01*
X-28400083Y-34630417D01*
X-28308000Y-34722500D01*
X-28194413Y-34712954D01*
X-28193232Y-34713312D01*
X-28068750Y-34725572D01*
X-27518750Y-34725572D01*
X-27394268Y-34713312D01*
X-27393750Y-34713155D01*
X-27393232Y-34713312D01*
X-27268750Y-34725572D01*
X-26718750Y-34725572D01*
X-26594268Y-34713312D01*
X-26593750Y-34713155D01*
X-26593232Y-34713312D01*
X-26468750Y-34725572D01*
X-25918750Y-34725572D01*
X-25794268Y-34713312D01*
X-25793750Y-34713155D01*
X-25793232Y-34713312D01*
X-25668750Y-34725572D01*
X-25118750Y-34725572D01*
X-24994268Y-34713312D01*
X-24993750Y-34713155D01*
X-24993232Y-34713312D01*
X-24868750Y-34725572D01*
X-24318750Y-34725572D01*
X-24194268Y-34713312D01*
X-24193750Y-34713155D01*
X-24193232Y-34713312D01*
X-24068750Y-34725572D01*
X-23518750Y-34725572D01*
X-23394268Y-34713312D01*
X-23393750Y-34713155D01*
X-23393232Y-34713312D01*
X-23268750Y-34725572D01*
X-22718750Y-34725572D01*
X-22594268Y-34713312D01*
X-22593087Y-34712954D01*
X-22479500Y-34722500D01*
X-22387417Y-34630417D01*
X-22364256Y-34618037D01*
X-22320752Y-34582334D01*
X-22320752Y-34722500D01*
X-22216103Y-34722500D01*
X-22208667Y-34798000D01*
X-32416750Y-34798000D01*
X-32416750Y-34163000D01*
X-30299386Y-34163000D01*
X-30294562Y-34211982D01*
%TA.AperFunction,Conductor*%
D21*
G36*
X-30294562Y-34211982D02*
G01*
X-30258252Y-34331680D01*
X-30199287Y-34441994D01*
X-30119935Y-34538685D01*
X-30023244Y-34618037D01*
X-29912930Y-34677002D01*
X-29793232Y-34713312D01*
X-29668750Y-34725572D01*
X-29118750Y-34725572D01*
X-28994268Y-34713312D01*
X-28993087Y-34712954D01*
X-28879500Y-34722500D01*
X-28787417Y-34630417D01*
X-28764256Y-34618037D01*
X-28667565Y-34538685D01*
X-28593750Y-34448741D01*
X-28519935Y-34538685D01*
X-28423244Y-34618037D01*
X-28400083Y-34630417D01*
X-28308000Y-34722500D01*
X-28194413Y-34712954D01*
X-28193232Y-34713312D01*
X-28068750Y-34725572D01*
X-27518750Y-34725572D01*
X-27394268Y-34713312D01*
X-27393750Y-34713155D01*
X-27393232Y-34713312D01*
X-27268750Y-34725572D01*
X-26718750Y-34725572D01*
X-26594268Y-34713312D01*
X-26593750Y-34713155D01*
X-26593232Y-34713312D01*
X-26468750Y-34725572D01*
X-25918750Y-34725572D01*
X-25794268Y-34713312D01*
X-25793750Y-34713155D01*
X-25793232Y-34713312D01*
X-25668750Y-34725572D01*
X-25118750Y-34725572D01*
X-24994268Y-34713312D01*
X-24993750Y-34713155D01*
X-24993232Y-34713312D01*
X-24868750Y-34725572D01*
X-24318750Y-34725572D01*
X-24194268Y-34713312D01*
X-24193750Y-34713155D01*
X-24193232Y-34713312D01*
X-24068750Y-34725572D01*
X-23518750Y-34725572D01*
X-23394268Y-34713312D01*
X-23393750Y-34713155D01*
X-23393232Y-34713312D01*
X-23268750Y-34725572D01*
X-22718750Y-34725572D01*
X-22594268Y-34713312D01*
X-22593087Y-34712954D01*
X-22479500Y-34722500D01*
X-22387417Y-34630417D01*
X-22364256Y-34618037D01*
X-22320752Y-34582334D01*
X-22320752Y-34722500D01*
X-22216103Y-34722500D01*
X-22208667Y-34798000D01*
X-32416750Y-34798000D01*
X-32416750Y-34163000D01*
X-30299386Y-34163000D01*
X-30294562Y-34211982D01*
G37*
%TD.AperFunction*%
D20*
X-18383250Y-23064034D02*
X-18415004Y-23005339D01*
X-18494842Y-22909049D01*
X-18591932Y-22830184D01*
X-18702542Y-22771776D01*
X-18822421Y-22736070D01*
X-18946963Y-22724436D01*
X-19408000Y-22727500D01*
X-19566750Y-22886250D01*
X-19566750Y-23510500D01*
X-19546750Y-23510500D01*
X-19546750Y-23524428D01*
X-20443750Y-23524428D01*
X-20568232Y-23536688D01*
X-20687930Y-23572998D01*
X-20798244Y-23631963D01*
X-20894935Y-23711315D01*
X-20974287Y-23808006D01*
X-20986667Y-23831167D01*
X-21078750Y-23923250D01*
X-21069204Y-24036837D01*
X-21069562Y-24038018D01*
X-21081822Y-24162500D01*
X-21081822Y-24712500D01*
X-21069562Y-24836982D01*
X-21069405Y-24837500D01*
X-21069562Y-24838018D01*
X-21081822Y-24962500D01*
X-21081822Y-25512500D01*
X-21069562Y-25636982D01*
X-21069405Y-25637500D01*
X-21069562Y-25638018D01*
X-21081822Y-25762500D01*
X-21081822Y-26312500D01*
X-21069562Y-26436982D01*
X-21069405Y-26437500D01*
X-21069562Y-26438018D01*
X-21081822Y-26562500D01*
X-21081822Y-27112500D01*
X-21069562Y-27236982D01*
X-21069405Y-27237500D01*
X-21069562Y-27238018D01*
X-21081822Y-27362500D01*
X-21081822Y-27912500D01*
X-21069562Y-28036982D01*
X-21069405Y-28037500D01*
X-21069562Y-28038018D01*
X-21081822Y-28162500D01*
X-21081822Y-28712500D01*
X-21069562Y-28836982D01*
X-21069405Y-28837500D01*
X-21069562Y-28838018D01*
X-21081822Y-28962500D01*
X-21081822Y-29512500D01*
X-21069562Y-29636982D01*
X-21069405Y-29637500D01*
X-21069562Y-29638018D01*
X-21081822Y-29762500D01*
X-21081822Y-30312500D01*
X-21069562Y-30436982D01*
X-21069405Y-30437500D01*
X-21069562Y-30438018D01*
X-21081822Y-30562500D01*
X-21081822Y-31112500D01*
X-21069562Y-31236982D01*
X-21069405Y-31237500D01*
X-21069562Y-31238018D01*
X-21081822Y-31362500D01*
X-21081822Y-31912500D01*
X-21077788Y-31953462D01*
X-21118750Y-31949428D01*
X-21668750Y-31949428D01*
X-21793232Y-31961688D01*
X-21794413Y-31962046D01*
X-21908000Y-31952500D01*
X-22000083Y-32044583D01*
X-22023244Y-32056963D01*
X-22119935Y-32136315D01*
X-22193750Y-32226259D01*
X-22267565Y-32136315D01*
X-22364256Y-32056963D01*
X-22387417Y-32044583D01*
X-22479500Y-31952500D01*
X-22593087Y-31962046D01*
X-22594268Y-31961688D01*
X-22718750Y-31949428D01*
X-23268750Y-31949428D01*
X-23393232Y-31961688D01*
X-23393750Y-31961845D01*
X-23394268Y-31961688D01*
X-23518750Y-31949428D01*
X-24068750Y-31949428D01*
X-24193232Y-31961688D01*
X-24193750Y-31961845D01*
X-24194268Y-31961688D01*
X-24318750Y-31949428D01*
X-24868750Y-31949428D01*
X-24993232Y-31961688D01*
X-24993750Y-31961845D01*
X-24994268Y-31961688D01*
X-25118750Y-31949428D01*
X-25668750Y-31949428D01*
X-25793232Y-31961688D01*
X-25793750Y-31961845D01*
X-25794268Y-31961688D01*
X-25918750Y-31949428D01*
X-26468750Y-31949428D01*
X-26593232Y-31961688D01*
X-26593750Y-31961845D01*
X-26594268Y-31961688D01*
X-26718750Y-31949428D01*
X-27268750Y-31949428D01*
X-27393232Y-31961688D01*
X-27393750Y-31961845D01*
X-27394268Y-31961688D01*
X-27518750Y-31949428D01*
X-28068750Y-31949428D01*
X-28193232Y-31961688D01*
X-28194413Y-31962046D01*
X-28308000Y-31952500D01*
X-28400083Y-32044583D01*
X-28423244Y-32056963D01*
X-28519935Y-32136315D01*
X-28593750Y-32226259D01*
X-28667565Y-32136315D01*
X-28764256Y-32056963D01*
X-28787417Y-32044583D01*
X-28879500Y-31952500D01*
X-28993087Y-31962046D01*
X-28994268Y-31961688D01*
X-29118750Y-31949428D01*
X-29668750Y-31949428D01*
X-29709712Y-31953462D01*
X-29705678Y-31912500D01*
X-29705678Y-31362500D01*
X-29717938Y-31238018D01*
X-29718095Y-31237500D01*
X-29717938Y-31236982D01*
X-29705678Y-31112500D01*
X-29705678Y-30562500D01*
X-29717938Y-30438018D01*
X-29718095Y-30437500D01*
X-29717938Y-30436982D01*
X-29705678Y-30312500D01*
X-29705678Y-29762500D01*
X-29717938Y-29638018D01*
X-29718095Y-29637500D01*
X-29717938Y-29636982D01*
X-29705678Y-29512500D01*
X-29705678Y-28962500D01*
X-29717938Y-28838018D01*
X-29718296Y-28836837D01*
X-29708750Y-28723250D01*
X-29800833Y-28631167D01*
X-29813213Y-28608006D01*
X-29892565Y-28511315D01*
X-29982509Y-28437500D01*
X-29892565Y-28363685D01*
X-29813213Y-28266994D01*
X-29800833Y-28243833D01*
X-29708750Y-28151750D01*
X-29718296Y-28038163D01*
X-29717938Y-28036982D01*
X-29705678Y-27912500D01*
X-29705678Y-27362500D01*
X-29717938Y-27238018D01*
X-29718095Y-27237500D01*
X-29717938Y-27236982D01*
X-29705678Y-27112500D01*
X-29705678Y-26562500D01*
X-29717938Y-26438018D01*
X-29718095Y-26437500D01*
X-29717938Y-26436982D01*
X-29705678Y-26312500D01*
X-29705678Y-25762500D01*
X-29717938Y-25638018D01*
X-29718095Y-25637500D01*
X-29717938Y-25636982D01*
X-29705678Y-25512500D01*
X-29705678Y-24962500D01*
X-29717938Y-24838018D01*
X-29718095Y-24837500D01*
X-29717938Y-24836982D01*
X-29705678Y-24712500D01*
X-29705678Y-24162500D01*
X-29717938Y-24038018D01*
X-29718095Y-24037500D01*
X-29717938Y-24036982D01*
X-29705678Y-23912500D01*
X-29705678Y-23362500D01*
X-29709712Y-23321538D01*
X-29668750Y-23325572D01*
X-29118750Y-23325572D01*
X-28994268Y-23313312D01*
X-28993750Y-23313155D01*
X-28993232Y-23313312D01*
X-28868750Y-23325572D01*
X-28318750Y-23325572D01*
X-28194268Y-23313312D01*
X-28193750Y-23313155D01*
X-28193232Y-23313312D01*
X-28068750Y-23325572D01*
X-27518750Y-23325572D01*
X-27394268Y-23313312D01*
X-27393087Y-23312954D01*
X-27279500Y-23322500D01*
X-27187417Y-23230417D01*
X-27164256Y-23218037D01*
X-27067565Y-23138685D01*
X-26993750Y-23048741D01*
X-26919935Y-23138685D01*
X-26823244Y-23218037D01*
X-26800083Y-23230417D01*
X-26708000Y-23322500D01*
X-26594413Y-23312954D01*
X-26593232Y-23313312D01*
X-26468750Y-23325572D01*
X-25918750Y-23325572D01*
X-25794268Y-23313312D01*
X-25793750Y-23313155D01*
X-25793232Y-23313312D01*
X-25668750Y-23325572D01*
X-25118750Y-23325572D01*
X-24994268Y-23313312D01*
X-24993750Y-23313155D01*
X-24993232Y-23313312D01*
X-24868750Y-23325572D01*
X-24318750Y-23325572D01*
X-24194268Y-23313312D01*
X-24193750Y-23313155D01*
X-24193232Y-23313312D01*
X-24068750Y-23325572D01*
X-23518750Y-23325572D01*
X-23394268Y-23313312D01*
X-23393750Y-23313155D01*
X-23393232Y-23313312D01*
X-23268750Y-23325572D01*
X-22718750Y-23325572D01*
X-22594268Y-23313312D01*
X-22593750Y-23313155D01*
X-22593232Y-23313312D01*
X-22468750Y-23325572D01*
X-21918750Y-23325572D01*
X-21794268Y-23313312D01*
X-21793750Y-23313155D01*
X-21793232Y-23313312D01*
X-21668750Y-23325572D01*
X-21118750Y-23325572D01*
X-21076198Y-23321381D01*
X-21078750Y-23351750D01*
X-20920000Y-23510500D01*
X-19820750Y-23510500D01*
X-19820750Y-22886250D01*
X-19979500Y-22727500D01*
X-20440537Y-22724436D01*
X-20484722Y-22728564D01*
X-20480678Y-22687500D01*
X-20480678Y-21187500D01*
X-20492938Y-21063018D01*
X-20529248Y-20943320D01*
X-20588213Y-20833006D01*
X-20644434Y-20764500D01*
X-18383250Y-20764500D01*
X-18383250Y-23064034D01*
%TA.AperFunction,Conductor*%
D21*
G36*
X-18383250Y-23064034D02*
G01*
X-18415004Y-23005339D01*
X-18494842Y-22909049D01*
X-18591932Y-22830184D01*
X-18702542Y-22771776D01*
X-18822421Y-22736070D01*
X-18946963Y-22724436D01*
X-19408000Y-22727500D01*
X-19566750Y-22886250D01*
X-19566750Y-23510500D01*
X-19546750Y-23510500D01*
X-19546750Y-23524428D01*
X-20443750Y-23524428D01*
X-20568232Y-23536688D01*
X-20687930Y-23572998D01*
X-20798244Y-23631963D01*
X-20894935Y-23711315D01*
X-20974287Y-23808006D01*
X-20986667Y-23831167D01*
X-21078750Y-23923250D01*
X-21069204Y-24036837D01*
X-21069562Y-24038018D01*
X-21081822Y-24162500D01*
X-21081822Y-24712500D01*
X-21069562Y-24836982D01*
X-21069405Y-24837500D01*
X-21069562Y-24838018D01*
X-21081822Y-24962500D01*
X-21081822Y-25512500D01*
X-21069562Y-25636982D01*
X-21069405Y-25637500D01*
X-21069562Y-25638018D01*
X-21081822Y-25762500D01*
X-21081822Y-26312500D01*
X-21069562Y-26436982D01*
X-21069405Y-26437500D01*
X-21069562Y-26438018D01*
X-21081822Y-26562500D01*
X-21081822Y-27112500D01*
X-21069562Y-27236982D01*
X-21069405Y-27237500D01*
X-21069562Y-27238018D01*
X-21081822Y-27362500D01*
X-21081822Y-27912500D01*
X-21069562Y-28036982D01*
X-21069405Y-28037500D01*
X-21069562Y-28038018D01*
X-21081822Y-28162500D01*
X-21081822Y-28712500D01*
X-21069562Y-28836982D01*
X-21069405Y-28837500D01*
X-21069562Y-28838018D01*
X-21081822Y-28962500D01*
X-21081822Y-29512500D01*
X-21069562Y-29636982D01*
X-21069405Y-29637500D01*
X-21069562Y-29638018D01*
X-21081822Y-29762500D01*
X-21081822Y-30312500D01*
X-21069562Y-30436982D01*
X-21069405Y-30437500D01*
X-21069562Y-30438018D01*
X-21081822Y-30562500D01*
X-21081822Y-31112500D01*
X-21069562Y-31236982D01*
X-21069405Y-31237500D01*
X-21069562Y-31238018D01*
X-21081822Y-31362500D01*
X-21081822Y-31912500D01*
X-21077788Y-31953462D01*
X-21118750Y-31949428D01*
X-21668750Y-31949428D01*
X-21793232Y-31961688D01*
X-21794413Y-31962046D01*
X-21908000Y-31952500D01*
X-22000083Y-32044583D01*
X-22023244Y-32056963D01*
X-22119935Y-32136315D01*
X-22193750Y-32226259D01*
X-22267565Y-32136315D01*
X-22364256Y-32056963D01*
X-22387417Y-32044583D01*
X-22479500Y-31952500D01*
X-22593087Y-31962046D01*
X-22594268Y-31961688D01*
X-22718750Y-31949428D01*
X-23268750Y-31949428D01*
X-23393232Y-31961688D01*
X-23393750Y-31961845D01*
X-23394268Y-31961688D01*
X-23518750Y-31949428D01*
X-24068750Y-31949428D01*
X-24193232Y-31961688D01*
X-24193750Y-31961845D01*
X-24194268Y-31961688D01*
X-24318750Y-31949428D01*
X-24868750Y-31949428D01*
X-24993232Y-31961688D01*
X-24993750Y-31961845D01*
X-24994268Y-31961688D01*
X-25118750Y-31949428D01*
X-25668750Y-31949428D01*
X-25793232Y-31961688D01*
X-25793750Y-31961845D01*
X-25794268Y-31961688D01*
X-25918750Y-31949428D01*
X-26468750Y-31949428D01*
X-26593232Y-31961688D01*
X-26593750Y-31961845D01*
X-26594268Y-31961688D01*
X-26718750Y-31949428D01*
X-27268750Y-31949428D01*
X-27393232Y-31961688D01*
X-27393750Y-31961845D01*
X-27394268Y-31961688D01*
X-27518750Y-31949428D01*
X-28068750Y-31949428D01*
X-28193232Y-31961688D01*
X-28194413Y-31962046D01*
X-28308000Y-31952500D01*
X-28400083Y-32044583D01*
X-28423244Y-32056963D01*
X-28519935Y-32136315D01*
X-28593750Y-32226259D01*
X-28667565Y-32136315D01*
X-28764256Y-32056963D01*
X-28787417Y-32044583D01*
X-28879500Y-31952500D01*
X-28993087Y-31962046D01*
X-28994268Y-31961688D01*
X-29118750Y-31949428D01*
X-29668750Y-31949428D01*
X-29709712Y-31953462D01*
X-29705678Y-31912500D01*
X-29705678Y-31362500D01*
X-29717938Y-31238018D01*
X-29718095Y-31237500D01*
X-29717938Y-31236982D01*
X-29705678Y-31112500D01*
X-29705678Y-30562500D01*
X-29717938Y-30438018D01*
X-29718095Y-30437500D01*
X-29717938Y-30436982D01*
X-29705678Y-30312500D01*
X-29705678Y-29762500D01*
X-29717938Y-29638018D01*
X-29718095Y-29637500D01*
X-29717938Y-29636982D01*
X-29705678Y-29512500D01*
X-29705678Y-28962500D01*
X-29717938Y-28838018D01*
X-29718296Y-28836837D01*
X-29708750Y-28723250D01*
X-29800833Y-28631167D01*
X-29813213Y-28608006D01*
X-29892565Y-28511315D01*
X-29982509Y-28437500D01*
X-29892565Y-28363685D01*
X-29813213Y-28266994D01*
X-29800833Y-28243833D01*
X-29708750Y-28151750D01*
X-29718296Y-28038163D01*
X-29717938Y-28036982D01*
X-29705678Y-27912500D01*
X-29705678Y-27362500D01*
X-29717938Y-27238018D01*
X-29718095Y-27237500D01*
X-29717938Y-27236982D01*
X-29705678Y-27112500D01*
X-29705678Y-26562500D01*
X-29717938Y-26438018D01*
X-29718095Y-26437500D01*
X-29717938Y-26436982D01*
X-29705678Y-26312500D01*
X-29705678Y-25762500D01*
X-29717938Y-25638018D01*
X-29718095Y-25637500D01*
X-29717938Y-25636982D01*
X-29705678Y-25512500D01*
X-29705678Y-24962500D01*
X-29717938Y-24838018D01*
X-29718095Y-24837500D01*
X-29717938Y-24836982D01*
X-29705678Y-24712500D01*
X-29705678Y-24162500D01*
X-29717938Y-24038018D01*
X-29718095Y-24037500D01*
X-29717938Y-24036982D01*
X-29705678Y-23912500D01*
X-29705678Y-23362500D01*
X-29709712Y-23321538D01*
X-29668750Y-23325572D01*
X-29118750Y-23325572D01*
X-28994268Y-23313312D01*
X-28993750Y-23313155D01*
X-28993232Y-23313312D01*
X-28868750Y-23325572D01*
X-28318750Y-23325572D01*
X-28194268Y-23313312D01*
X-28193750Y-23313155D01*
X-28193232Y-23313312D01*
X-28068750Y-23325572D01*
X-27518750Y-23325572D01*
X-27394268Y-23313312D01*
X-27393087Y-23312954D01*
X-27279500Y-23322500D01*
X-27187417Y-23230417D01*
X-27164256Y-23218037D01*
X-27067565Y-23138685D01*
X-26993750Y-23048741D01*
X-26919935Y-23138685D01*
X-26823244Y-23218037D01*
X-26800083Y-23230417D01*
X-26708000Y-23322500D01*
X-26594413Y-23312954D01*
X-26593232Y-23313312D01*
X-26468750Y-23325572D01*
X-25918750Y-23325572D01*
X-25794268Y-23313312D01*
X-25793750Y-23313155D01*
X-25793232Y-23313312D01*
X-25668750Y-23325572D01*
X-25118750Y-23325572D01*
X-24994268Y-23313312D01*
X-24993750Y-23313155D01*
X-24993232Y-23313312D01*
X-24868750Y-23325572D01*
X-24318750Y-23325572D01*
X-24194268Y-23313312D01*
X-24193750Y-23313155D01*
X-24193232Y-23313312D01*
X-24068750Y-23325572D01*
X-23518750Y-23325572D01*
X-23394268Y-23313312D01*
X-23393750Y-23313155D01*
X-23393232Y-23313312D01*
X-23268750Y-23325572D01*
X-22718750Y-23325572D01*
X-22594268Y-23313312D01*
X-22593750Y-23313155D01*
X-22593232Y-23313312D01*
X-22468750Y-23325572D01*
X-21918750Y-23325572D01*
X-21794268Y-23313312D01*
X-21793750Y-23313155D01*
X-21793232Y-23313312D01*
X-21668750Y-23325572D01*
X-21118750Y-23325572D01*
X-21076198Y-23321381D01*
X-21078750Y-23351750D01*
X-20920000Y-23510500D01*
X-19820750Y-23510500D01*
X-19820750Y-22886250D01*
X-19979500Y-22727500D01*
X-20440537Y-22724436D01*
X-20484722Y-22728564D01*
X-20480678Y-22687500D01*
X-20480678Y-21187500D01*
X-20492938Y-21063018D01*
X-20529248Y-20943320D01*
X-20588213Y-20833006D01*
X-20644434Y-20764500D01*
X-18383250Y-20764500D01*
X-18383250Y-23064034D01*
G37*
%TD.AperFunction*%
%TD*%
D20*
%TO.N,GND*%
X-48472500Y8659750D02*
X-48472500Y8159750D01*
X-47114500Y8159750D01*
X-47114500Y8179750D01*
X-46860500Y8179750D01*
X-46860500Y8159750D01*
X-45502500Y8159750D01*
X-45502500Y8659750D01*
X-45540589Y8865000D01*
X-41134411Y8865000D01*
X-41172500Y8659750D01*
X-41172500Y8159750D01*
X-39814500Y8159750D01*
X-39814500Y8179750D01*
X-39560500Y8179750D01*
X-39560500Y8159750D01*
X-38202500Y8159750D01*
X-38202500Y8659750D01*
X-38240589Y8865000D01*
X-37719000Y8865000D01*
X-37719000Y-889000D01*
X-42575500Y-889000D01*
X-42575500Y1769678D01*
X-42287500Y1769678D01*
X-42163018Y1781938D01*
X-42138234Y1789456D01*
X-42118861Y1783346D01*
X-42019250Y1772750D01*
X-41860500Y1931500D01*
X-41860500Y1936717D01*
X-41836315Y1956565D01*
X-41756963Y2053256D01*
X-41697998Y2163570D01*
X-41661688Y2283268D01*
X-41649428Y2407750D01*
X-41649428Y3405750D01*
X-41614500Y3405750D01*
X-41614500Y1931500D01*
X-41455750Y1772750D01*
X-41356139Y1783346D01*
X-41236848Y1820971D01*
X-41127189Y1881146D01*
X-41031377Y1961557D01*
X-40953094Y2059116D01*
X-40895557Y2169668D01*
X-40851676Y2102131D01*
X-40647752Y1892893D01*
X-40406926Y1727459D01*
X-40138453Y1612187D01*
X-40044390Y1591274D01*
X-39814500Y1712595D01*
X-39814500Y3405750D01*
X-39560500Y3405750D01*
X-39560500Y1712595D01*
X-39330610Y1591274D01*
X-39236547Y1612187D01*
X-38968074Y1727459D01*
X-38727248Y1892893D01*
X-38523324Y2102131D01*
X-38364139Y2347132D01*
X-38255810Y2618481D01*
X-38202500Y2905750D01*
X-38202500Y3405750D01*
X-39560500Y3405750D01*
X-39814500Y3405750D01*
X-41614500Y3405750D01*
X-41649428Y3405750D01*
X-41649428Y4657750D01*
X-41661688Y4782232D01*
X-41697998Y4901930D01*
X-41756963Y5012244D01*
X-41836315Y5108935D01*
X-41860500Y5128783D01*
X-41860500Y5134000D01*
X-41614500Y5134000D01*
X-41614500Y3659750D01*
X-39814500Y3659750D01*
X-39814500Y5352905D01*
X-39560500Y5352905D01*
X-39560500Y3659750D01*
X-38202500Y3659750D01*
X-38202500Y4159750D01*
X-38255810Y4447019D01*
X-38364139Y4718368D01*
X-38523324Y4963369D01*
X-38727248Y5172607D01*
X-38968074Y5338041D01*
X-39236547Y5453313D01*
X-39330610Y5474226D01*
X-39560500Y5352905D01*
X-39814500Y5352905D01*
X-40044390Y5474226D01*
X-40138453Y5453313D01*
X-40406926Y5338041D01*
X-40647752Y5172607D01*
X-40851676Y4963369D01*
X-40895557Y4895832D01*
X-40953094Y5006384D01*
X-41031377Y5103943D01*
X-41127189Y5184354D01*
X-41236848Y5244529D01*
X-41356139Y5282154D01*
X-41455750Y5292750D01*
X-41614500Y5134000D01*
X-41860500Y5134000D01*
X-42019250Y5292750D01*
X-42118861Y5282154D01*
X-42138234Y5276044D01*
X-42163018Y5283562D01*
X-42287500Y5295822D01*
X-42787500Y5295822D01*
X-42911982Y5283562D01*
X-42937500Y5275821D01*
X-42963018Y5283562D01*
X-43087500Y5295822D01*
X-43587500Y5295822D01*
X-43711982Y5283562D01*
X-43737500Y5275821D01*
X-43763018Y5283562D01*
X-43887500Y5295822D01*
X-44387500Y5295822D01*
X-44511982Y5283562D01*
X-44537500Y5275821D01*
X-44563018Y5283562D01*
X-44687500Y5295822D01*
X-45187500Y5295822D01*
X-45311982Y5283562D01*
X-45431680Y5247252D01*
X-45541994Y5188287D01*
X-45638685Y5108935D01*
X-45718037Y5012244D01*
X-45777002Y4901930D01*
X-45779040Y4895212D01*
X-45823324Y4963369D01*
X-46027248Y5172607D01*
X-46268074Y5338041D01*
X-46536547Y5453313D01*
X-46630610Y5474226D01*
X-46860500Y5352905D01*
X-46860500Y3659750D01*
X-46840500Y3659750D01*
X-46840500Y3405750D01*
X-46860500Y3405750D01*
X-46860500Y1712595D01*
X-46630610Y1591274D01*
X-46536547Y1612187D01*
X-46268074Y1727459D01*
X-46027248Y1892893D01*
X-45823324Y2102131D01*
X-45779040Y2170288D01*
X-45777002Y2163570D01*
X-45763000Y2137374D01*
X-45763000Y1763552D01*
X-45762999Y-559246D01*
X-46092753Y-889000D01*
X-48895000Y-889000D01*
X-48895000Y3405750D01*
X-48472500Y3405750D01*
X-48472500Y2905750D01*
X-48419190Y2618481D01*
X-48310861Y2347132D01*
X-48151676Y2102131D01*
X-47947752Y1892893D01*
X-47706926Y1727459D01*
X-47438453Y1612187D01*
X-47344390Y1591274D01*
X-47114500Y1712595D01*
X-47114500Y3405750D01*
X-48472500Y3405750D01*
X-48895000Y3405750D01*
X-48895000Y4159750D01*
X-48472500Y4159750D01*
X-48472500Y3659750D01*
X-47114500Y3659750D01*
X-47114500Y5352905D01*
X-47344390Y5474226D01*
X-47438453Y5453313D01*
X-47706926Y5338041D01*
X-47947752Y5172607D01*
X-48151676Y4963369D01*
X-48310861Y4718368D01*
X-48419190Y4447019D01*
X-48472500Y4159750D01*
X-48895000Y4159750D01*
X-48895000Y7905750D01*
X-48472500Y7905750D01*
X-48472500Y7405750D01*
X-48419190Y7118481D01*
X-48310861Y6847132D01*
X-48151676Y6602131D01*
X-47947752Y6392893D01*
X-47706926Y6227459D01*
X-47438453Y6112187D01*
X-47344390Y6091274D01*
X-47114500Y6212595D01*
X-47114500Y7905750D01*
X-46860500Y7905750D01*
X-46860500Y6212595D01*
X-46630610Y6091274D01*
X-46536547Y6112187D01*
X-46268074Y6227459D01*
X-46027248Y6392893D01*
X-45823324Y6602131D01*
X-45664139Y6847132D01*
X-45555810Y7118481D01*
X-45502500Y7405750D01*
X-45502500Y7905750D01*
X-41172500Y7905750D01*
X-41172500Y7405750D01*
X-41119190Y7118481D01*
X-41010861Y6847132D01*
X-40851676Y6602131D01*
X-40647752Y6392893D01*
X-40406926Y6227459D01*
X-40138453Y6112187D01*
X-40044390Y6091274D01*
X-39814500Y6212595D01*
X-39814500Y7905750D01*
X-39560500Y7905750D01*
X-39560500Y6212595D01*
X-39330610Y6091274D01*
X-39236547Y6112187D01*
X-38968074Y6227459D01*
X-38727248Y6392893D01*
X-38523324Y6602131D01*
X-38364139Y6847132D01*
X-38255810Y7118481D01*
X-38202500Y7405750D01*
X-38202500Y7905750D01*
X-39560500Y7905750D01*
X-39814500Y7905750D01*
X-41172500Y7905750D01*
X-45502500Y7905750D01*
X-46860500Y7905750D01*
X-47114500Y7905750D01*
X-48472500Y7905750D01*
X-48895000Y7905750D01*
X-48895000Y8865000D01*
X-48434411Y8865000D01*
X-48472500Y8659750D01*
%TA.AperFunction,Conductor*%
D21*
G36*
X-48472500Y8659750D02*
G01*
X-48472500Y8159750D01*
X-47114500Y8159750D01*
X-47114500Y8179750D01*
X-46860500Y8179750D01*
X-46860500Y8159750D01*
X-45502500Y8159750D01*
X-45502500Y8659750D01*
X-45540589Y8865000D01*
X-41134411Y8865000D01*
X-41172500Y8659750D01*
X-41172500Y8159750D01*
X-39814500Y8159750D01*
X-39814500Y8179750D01*
X-39560500Y8179750D01*
X-39560500Y8159750D01*
X-38202500Y8159750D01*
X-38202500Y8659750D01*
X-38240589Y8865000D01*
X-37719000Y8865000D01*
X-37719000Y-889000D01*
X-42575500Y-889000D01*
X-42575500Y1769678D01*
X-42287500Y1769678D01*
X-42163018Y1781938D01*
X-42138234Y1789456D01*
X-42118861Y1783346D01*
X-42019250Y1772750D01*
X-41860500Y1931500D01*
X-41860500Y1936717D01*
X-41836315Y1956565D01*
X-41756963Y2053256D01*
X-41697998Y2163570D01*
X-41661688Y2283268D01*
X-41649428Y2407750D01*
X-41649428Y3405750D01*
X-41614500Y3405750D01*
X-41614500Y1931500D01*
X-41455750Y1772750D01*
X-41356139Y1783346D01*
X-41236848Y1820971D01*
X-41127189Y1881146D01*
X-41031377Y1961557D01*
X-40953094Y2059116D01*
X-40895557Y2169668D01*
X-40851676Y2102131D01*
X-40647752Y1892893D01*
X-40406926Y1727459D01*
X-40138453Y1612187D01*
X-40044390Y1591274D01*
X-39814500Y1712595D01*
X-39814500Y3405750D01*
X-39560500Y3405750D01*
X-39560500Y1712595D01*
X-39330610Y1591274D01*
X-39236547Y1612187D01*
X-38968074Y1727459D01*
X-38727248Y1892893D01*
X-38523324Y2102131D01*
X-38364139Y2347132D01*
X-38255810Y2618481D01*
X-38202500Y2905750D01*
X-38202500Y3405750D01*
X-39560500Y3405750D01*
X-39814500Y3405750D01*
X-41614500Y3405750D01*
X-41649428Y3405750D01*
X-41649428Y4657750D01*
X-41661688Y4782232D01*
X-41697998Y4901930D01*
X-41756963Y5012244D01*
X-41836315Y5108935D01*
X-41860500Y5128783D01*
X-41860500Y5134000D01*
X-41614500Y5134000D01*
X-41614500Y3659750D01*
X-39814500Y3659750D01*
X-39814500Y5352905D01*
X-39560500Y5352905D01*
X-39560500Y3659750D01*
X-38202500Y3659750D01*
X-38202500Y4159750D01*
X-38255810Y4447019D01*
X-38364139Y4718368D01*
X-38523324Y4963369D01*
X-38727248Y5172607D01*
X-38968074Y5338041D01*
X-39236547Y5453313D01*
X-39330610Y5474226D01*
X-39560500Y5352905D01*
X-39814500Y5352905D01*
X-40044390Y5474226D01*
X-40138453Y5453313D01*
X-40406926Y5338041D01*
X-40647752Y5172607D01*
X-40851676Y4963369D01*
X-40895557Y4895832D01*
X-40953094Y5006384D01*
X-41031377Y5103943D01*
X-41127189Y5184354D01*
X-41236848Y5244529D01*
X-41356139Y5282154D01*
X-41455750Y5292750D01*
X-41614500Y5134000D01*
X-41860500Y5134000D01*
X-42019250Y5292750D01*
X-42118861Y5282154D01*
X-42138234Y5276044D01*
X-42163018Y5283562D01*
X-42287500Y5295822D01*
X-42787500Y5295822D01*
X-42911982Y5283562D01*
X-42937500Y5275821D01*
X-42963018Y5283562D01*
X-43087500Y5295822D01*
X-43587500Y5295822D01*
X-43711982Y5283562D01*
X-43737500Y5275821D01*
X-43763018Y5283562D01*
X-43887500Y5295822D01*
X-44387500Y5295822D01*
X-44511982Y5283562D01*
X-44537500Y5275821D01*
X-44563018Y5283562D01*
X-44687500Y5295822D01*
X-45187500Y5295822D01*
X-45311982Y5283562D01*
X-45431680Y5247252D01*
X-45541994Y5188287D01*
X-45638685Y5108935D01*
X-45718037Y5012244D01*
X-45777002Y4901930D01*
X-45779040Y4895212D01*
X-45823324Y4963369D01*
X-46027248Y5172607D01*
X-46268074Y5338041D01*
X-46536547Y5453313D01*
X-46630610Y5474226D01*
X-46860500Y5352905D01*
X-46860500Y3659750D01*
X-46840500Y3659750D01*
X-46840500Y3405750D01*
X-46860500Y3405750D01*
X-46860500Y1712595D01*
X-46630610Y1591274D01*
X-46536547Y1612187D01*
X-46268074Y1727459D01*
X-46027248Y1892893D01*
X-45823324Y2102131D01*
X-45779040Y2170288D01*
X-45777002Y2163570D01*
X-45763000Y2137374D01*
X-45763000Y1763552D01*
X-45762999Y-559246D01*
X-46092753Y-889000D01*
X-48895000Y-889000D01*
X-48895000Y3405750D01*
X-48472500Y3405750D01*
X-48472500Y2905750D01*
X-48419190Y2618481D01*
X-48310861Y2347132D01*
X-48151676Y2102131D01*
X-47947752Y1892893D01*
X-47706926Y1727459D01*
X-47438453Y1612187D01*
X-47344390Y1591274D01*
X-47114500Y1712595D01*
X-47114500Y3405750D01*
X-48472500Y3405750D01*
X-48895000Y3405750D01*
X-48895000Y4159750D01*
X-48472500Y4159750D01*
X-48472500Y3659750D01*
X-47114500Y3659750D01*
X-47114500Y5352905D01*
X-47344390Y5474226D01*
X-47438453Y5453313D01*
X-47706926Y5338041D01*
X-47947752Y5172607D01*
X-48151676Y4963369D01*
X-48310861Y4718368D01*
X-48419190Y4447019D01*
X-48472500Y4159750D01*
X-48895000Y4159750D01*
X-48895000Y7905750D01*
X-48472500Y7905750D01*
X-48472500Y7405750D01*
X-48419190Y7118481D01*
X-48310861Y6847132D01*
X-48151676Y6602131D01*
X-47947752Y6392893D01*
X-47706926Y6227459D01*
X-47438453Y6112187D01*
X-47344390Y6091274D01*
X-47114500Y6212595D01*
X-47114500Y7905750D01*
X-46860500Y7905750D01*
X-46860500Y6212595D01*
X-46630610Y6091274D01*
X-46536547Y6112187D01*
X-46268074Y6227459D01*
X-46027248Y6392893D01*
X-45823324Y6602131D01*
X-45664139Y6847132D01*
X-45555810Y7118481D01*
X-45502500Y7405750D01*
X-45502500Y7905750D01*
X-41172500Y7905750D01*
X-41172500Y7405750D01*
X-41119190Y7118481D01*
X-41010861Y6847132D01*
X-40851676Y6602131D01*
X-40647752Y6392893D01*
X-40406926Y6227459D01*
X-40138453Y6112187D01*
X-40044390Y6091274D01*
X-39814500Y6212595D01*
X-39814500Y7905750D01*
X-39560500Y7905750D01*
X-39560500Y6212595D01*
X-39330610Y6091274D01*
X-39236547Y6112187D01*
X-38968074Y6227459D01*
X-38727248Y6392893D01*
X-38523324Y6602131D01*
X-38364139Y6847132D01*
X-38255810Y7118481D01*
X-38202500Y7405750D01*
X-38202500Y7905750D01*
X-39560500Y7905750D01*
X-39814500Y7905750D01*
X-41172500Y7905750D01*
X-45502500Y7905750D01*
X-46860500Y7905750D01*
X-47114500Y7905750D01*
X-48472500Y7905750D01*
X-48895000Y7905750D01*
X-48895000Y8865000D01*
X-48434411Y8865000D01*
X-48472500Y8659750D01*
G37*
%TD.AperFunction*%
%TD*%
M02*
