%TF.GenerationSoftware,KiCad,Pcbnew,(5.1.9)-1*%
%TF.CreationDate,2021-06-16T12:24:14-05:00*%
%TF.ProjectId,practice-pcb-ai03-tutorial,70726163-7469-4636-952d-7063622d6169,rev?*%
%TF.SameCoordinates,Original*%
%TF.FileFunction,Legend,Bot*%
%TF.FilePolarity,Positive*%
%FSLAX46Y46*%
G04 Gerber Fmt 4.6, Leading zero omitted, Abs format (unit mm)*
G04 Created by KiCad (PCBNEW (5.1.9)-1) date 2021-06-16 12:24:14*
%MOMM*%
%LPD*%
G01*
G04 APERTURE LIST*
%ADD10C,0.150000*%
%ADD11C,0.300000*%
%ADD12C,0.800000*%
%ADD13C,3.000000*%
%ADD14C,0.500000*%
%ADD15C,1.000000*%
%ADD16C,3.500000*%
%ADD17C,0.400000*%
%ADD18C,0.120000*%
G04 APERTURE END LIST*
D10*
X-12423214Y7485119D02*
X-12423214Y8008928D01*
X-12375595Y8104166D01*
X-12280357Y8151785D01*
X-12089880Y8151785D01*
X-11994642Y8104166D01*
X-12423214Y7532738D02*
X-12327976Y7485119D01*
X-12089880Y7485119D01*
X-11994642Y7532738D01*
X-11947023Y7627976D01*
X-11947023Y7723214D01*
X-11994642Y7818452D01*
X-12089880Y7866071D01*
X-12327976Y7866071D01*
X-12423214Y7913690D01*
X-13042261Y7485119D02*
X-12947023Y7532738D01*
X-12899404Y7627976D01*
X-12899404Y8485119D01*
X-13804166Y7532738D02*
X-13708928Y7485119D01*
X-13518452Y7485119D01*
X-13423214Y7532738D01*
X-13375595Y7627976D01*
X-13375595Y8008928D01*
X-13423214Y8104166D01*
X-13518452Y8151785D01*
X-13708928Y8151785D01*
X-13804166Y8104166D01*
X-13851785Y8008928D01*
X-13851785Y7913690D01*
X-13375595Y7818452D01*
X-14185119Y7485119D02*
X-14708928Y8151785D01*
X-14185119Y8151785D02*
X-14708928Y7485119D01*
X-15089880Y7485119D02*
X-15089880Y8485119D01*
X-15185119Y7866071D02*
X-15470833Y7485119D01*
X-15470833Y8151785D02*
X-15089880Y7770833D01*
X-16327976Y7485119D02*
X-16327976Y8008928D01*
X-16280357Y8104166D01*
X-16185119Y8151785D01*
X-15994642Y8151785D01*
X-15899404Y8104166D01*
X-16327976Y7532738D02*
X-16232738Y7485119D01*
X-15994642Y7485119D01*
X-15899404Y7532738D01*
X-15851785Y7627976D01*
X-15851785Y7723214D01*
X-15899404Y7818452D01*
X-15994642Y7866071D01*
X-16232738Y7866071D01*
X-16327976Y7913690D01*
X-16804166Y8151785D02*
X-16804166Y7485119D01*
X-16804166Y8056547D02*
X-16851785Y8104166D01*
X-16947023Y8151785D01*
X-17089880Y8151785D01*
X-17185119Y8104166D01*
X-17232738Y8008928D01*
X-17232738Y7485119D01*
X-18137500Y7485119D02*
X-18137500Y8485119D01*
X-18137500Y7532738D02*
X-18042261Y7485119D01*
X-17851785Y7485119D01*
X-17756547Y7532738D01*
X-17708928Y7580357D01*
X-17661309Y7675595D01*
X-17661309Y7961309D01*
X-17708928Y8056547D01*
X-17756547Y8104166D01*
X-17851785Y8151785D01*
X-18042261Y8151785D01*
X-18137500Y8104166D01*
X-18994642Y7532738D02*
X-18899404Y7485119D01*
X-18708928Y7485119D01*
X-18613690Y7532738D01*
X-18566071Y7627976D01*
X-18566071Y8008928D01*
X-18613690Y8104166D01*
X-18708928Y8151785D01*
X-18899404Y8151785D01*
X-18994642Y8104166D01*
X-19042261Y8008928D01*
X-19042261Y7913690D01*
X-18566071Y7818452D01*
X-19470833Y7485119D02*
X-19470833Y8151785D01*
X-19470833Y7961309D02*
X-19518452Y8056547D01*
X-19566071Y8104166D01*
X-19661309Y8151785D01*
X-19756547Y8151785D01*
X-20089880Y7580357D02*
X-20137500Y7532738D01*
X-20089880Y7485119D01*
X-20042261Y7532738D01*
X-20089880Y7580357D01*
X-20089880Y7485119D01*
X-20566071Y8151785D02*
X-20566071Y7151785D01*
X-20566071Y8104166D02*
X-20661309Y8151785D01*
X-20851785Y8151785D01*
X-20947023Y8104166D01*
X-20994642Y8056547D01*
X-21042261Y7961309D01*
X-21042261Y7675595D01*
X-20994642Y7580357D01*
X-20947023Y7532738D01*
X-20851785Y7485119D01*
X-20661309Y7485119D01*
X-20566071Y7532738D01*
X-21470833Y7485119D02*
X-21470833Y8151785D01*
X-21470833Y7961309D02*
X-21518452Y8056547D01*
X-21566071Y8104166D01*
X-21661309Y8151785D01*
X-21756547Y8151785D01*
X-22232738Y7485119D02*
X-22137500Y7532738D01*
X-22089880Y7580357D01*
X-22042261Y7675595D01*
X-22042261Y7961309D01*
X-22089880Y8056547D01*
X-22137500Y8104166D01*
X-22232738Y8151785D01*
X-22375595Y8151785D01*
X-22470833Y8104166D01*
X-22518452Y8056547D01*
X-22566071Y7961309D01*
X-22566071Y7675595D01*
X-22518452Y7580357D01*
X-22470833Y7532738D01*
X-22375595Y7485119D01*
X-22232738Y7485119D01*
X-22851785Y8151785D02*
X-23232738Y8151785D01*
X-22994642Y8485119D02*
X-22994642Y7627976D01*
X-23042261Y7532738D01*
X-23137500Y7485119D01*
X-23232738Y7485119D01*
X-23708928Y7485119D02*
X-23613690Y7532738D01*
X-23566071Y7580357D01*
X-23518452Y7675595D01*
X-23518452Y7961309D01*
X-23566071Y8056547D01*
X-23613690Y8104166D01*
X-23708928Y8151785D01*
X-23851785Y8151785D01*
X-23947023Y8104166D01*
X-23994642Y8056547D01*
X-24042261Y7961309D01*
X-24042261Y7675595D01*
X-23994642Y7580357D01*
X-23947023Y7532738D01*
X-23851785Y7485119D01*
X-23708928Y7485119D01*
X-24327976Y8151785D02*
X-24708928Y8151785D01*
X-24470833Y8485119D02*
X-24470833Y7627976D01*
X-24518452Y7532738D01*
X-24613690Y7485119D01*
X-24708928Y7485119D01*
X-24947023Y8151785D02*
X-25185119Y7485119D01*
X-25423214Y8151785D02*
X-25185119Y7485119D01*
X-25089880Y7247023D01*
X-25042261Y7199404D01*
X-24947023Y7151785D01*
X-25804166Y8151785D02*
X-25804166Y7151785D01*
X-25804166Y8104166D02*
X-25899404Y8151785D01*
X-26089880Y8151785D01*
X-26185119Y8104166D01*
X-26232738Y8056547D01*
X-26280357Y7961309D01*
X-26280357Y7675595D01*
X-26232738Y7580357D01*
X-26185119Y7532738D01*
X-26089880Y7485119D01*
X-25899404Y7485119D01*
X-25804166Y7532738D01*
X-27089880Y7532738D02*
X-26994642Y7485119D01*
X-26804166Y7485119D01*
X-26708928Y7532738D01*
X-26661309Y7627976D01*
X-26661309Y8008928D01*
X-26708928Y8104166D01*
X-26804166Y8151785D01*
X-26994642Y8151785D01*
X-27089880Y8104166D01*
X-27137499Y8008928D01*
X-27137499Y7913690D01*
X-26661309Y7818452D01*
X-27566071Y7580357D02*
X-27613690Y7532738D01*
X-27566071Y7485119D01*
X-27518452Y7532738D01*
X-27566071Y7580357D01*
X-27566071Y7485119D01*
X-27947023Y8151785D02*
X-28185119Y7485119D01*
X-28423214Y8151785D01*
X-29327976Y7485119D02*
X-28756547Y7485119D01*
X-29042261Y7485119D02*
X-29042261Y8485119D01*
X-28947023Y8342261D01*
X-28851785Y8247023D01*
X-28756547Y8199404D01*
D11*
%TO.C,SW1*%
X-5800000Y4050000D02*
X-5800000Y4700000D01*
D12*
X-5300000Y1600000D02*
X-5300000Y3399999D01*
D13*
X-4170000Y5100000D02*
X-4170000Y2860000D01*
D14*
X4200000Y3250000D02*
X2900000Y3300000D01*
D15*
X3900000Y6000000D02*
X3900000Y3500000D01*
D16*
X2600000Y4800000D02*
X-4100000Y4800000D01*
D10*
X4400000Y3000000D02*
X4400000Y6600000D01*
X4380000Y4000000D02*
X4380000Y6250000D01*
X-5900000Y3950000D02*
X-5700000Y3950000D01*
X-5650000Y5550000D02*
X-5650000Y1100000D01*
X-5900000Y4700000D02*
X-5900000Y3950000D01*
X-5650000Y1100000D02*
X-2620000Y1100000D01*
X-400000Y3000000D02*
X4400000Y3000000D01*
X4400000Y6600000D02*
X-3800001Y6600000D01*
D14*
X-5450000Y1300000D02*
X-3000000Y1300000D01*
D17*
X4250000Y6400000D02*
X3000000Y6400000D01*
D10*
X-2616318Y1121471D02*
G75*
G02*
X-400000Y3000000I2151318J-291471D01*
G01*
X-5900000Y4699999D02*
G75*
G02*
X-3800001Y6600000I2000000J-99999D01*
G01*
D15*
X-3016318Y1521471D02*
G75*
G02*
X-800000Y3400000I2151318J-291471D01*
G01*
D17*
%TO.C,SW2*%
X23300000Y6400000D02*
X22050000Y6400000D01*
D14*
X13600000Y1300000D02*
X16050000Y1300000D01*
D10*
X23450000Y6600000D02*
X15249999Y6600000D01*
X18650000Y3000000D02*
X23450000Y3000000D01*
X13400000Y1100000D02*
X16430000Y1100000D01*
X13150000Y4700000D02*
X13150000Y3950000D01*
X13400000Y5550000D02*
X13400000Y1100000D01*
X13150000Y3950000D02*
X13350000Y3950000D01*
X23430000Y4000000D02*
X23430000Y6250000D01*
X23450000Y3000000D02*
X23450000Y6600000D01*
D16*
X21650000Y4800000D02*
X14950000Y4800000D01*
D15*
X22950000Y6000000D02*
X22950000Y3500000D01*
D14*
X23250000Y3250000D02*
X21950000Y3300000D01*
D13*
X14880000Y5100000D02*
X14880000Y2860000D01*
D12*
X13750000Y1600000D02*
X13750000Y3399999D01*
D11*
X13250000Y4050000D02*
X13250000Y4700000D01*
D15*
X16033682Y1521471D02*
G75*
G02*
X18250000Y3400000I2151318J-291471D01*
G01*
D10*
X13150000Y4699999D02*
G75*
G02*
X15249999Y6600000I2000000J-99999D01*
G01*
X16433682Y1121471D02*
G75*
G02*
X18650000Y3000000I2151318J-291471D01*
G01*
D17*
%TO.C,SW3*%
X42350000Y6400000D02*
X41100000Y6400000D01*
D14*
X32650000Y1300000D02*
X35100000Y1300000D01*
D10*
X42500000Y6600000D02*
X34299999Y6600000D01*
X37700000Y3000000D02*
X42500000Y3000000D01*
X32450000Y1100000D02*
X35480000Y1100000D01*
X32200000Y4700000D02*
X32200000Y3950000D01*
X32450000Y5550000D02*
X32450000Y1100000D01*
X32200000Y3950000D02*
X32400000Y3950000D01*
X42480000Y4000000D02*
X42480000Y6250000D01*
X42500000Y3000000D02*
X42500000Y6600000D01*
D16*
X40700000Y4800000D02*
X34000000Y4800000D01*
D15*
X42000000Y6000000D02*
X42000000Y3500000D01*
D14*
X42300000Y3250000D02*
X41000000Y3300000D01*
D13*
X33930000Y5100000D02*
X33930000Y2860000D01*
D12*
X32800000Y1600000D02*
X32800000Y3399999D01*
D11*
X32300000Y4050000D02*
X32300000Y4700000D01*
D15*
X35083682Y1521471D02*
G75*
G02*
X37300000Y3400000I2151318J-291471D01*
G01*
D10*
X32200000Y4699999D02*
G75*
G02*
X34299999Y6600000I2000000J-99999D01*
G01*
X35483682Y1121471D02*
G75*
G02*
X37700000Y3000000I2151318J-291471D01*
G01*
D17*
%TO.C,SW4*%
X4250000Y-12650000D02*
X3000000Y-12650000D01*
D14*
X-5450000Y-17750000D02*
X-3000000Y-17750000D01*
D10*
X4400000Y-12450000D02*
X-3800001Y-12450000D01*
X-400000Y-16050000D02*
X4400000Y-16050000D01*
X-5650000Y-17950000D02*
X-2620000Y-17950000D01*
X-5900000Y-14350000D02*
X-5900000Y-15100000D01*
X-5650000Y-13500000D02*
X-5650000Y-17950000D01*
X-5900000Y-15100000D02*
X-5700000Y-15100000D01*
X4380000Y-15050000D02*
X4380000Y-12800000D01*
X4400000Y-16050000D02*
X4400000Y-12450000D01*
D16*
X2600000Y-14250000D02*
X-4100000Y-14250000D01*
D15*
X3900000Y-13050000D02*
X3900000Y-15550000D01*
D14*
X4200000Y-15800000D02*
X2900000Y-15750000D01*
D13*
X-4170000Y-13950000D02*
X-4170000Y-16190000D01*
D12*
X-5300000Y-17450000D02*
X-5300000Y-15650001D01*
D11*
X-5800000Y-15000000D02*
X-5800000Y-14350000D01*
D15*
X-3016318Y-17528529D02*
G75*
G02*
X-800000Y-15650000I2151318J-291471D01*
G01*
D10*
X-5900000Y-14350001D02*
G75*
G02*
X-3800001Y-12450000I2000000J-99999D01*
G01*
X-2616318Y-17928529D02*
G75*
G02*
X-400000Y-16050000I2151318J-291471D01*
G01*
D17*
%TO.C,SW5*%
X23300000Y-12650000D02*
X22050000Y-12650000D01*
D14*
X13600000Y-17750000D02*
X16050000Y-17750000D01*
D10*
X23450000Y-12450000D02*
X15249999Y-12450000D01*
X18650000Y-16050000D02*
X23450000Y-16050000D01*
X13400000Y-17950000D02*
X16430000Y-17950000D01*
X13150000Y-14350000D02*
X13150000Y-15100000D01*
X13400000Y-13500000D02*
X13400000Y-17950000D01*
X13150000Y-15100000D02*
X13350000Y-15100000D01*
X23430000Y-15050000D02*
X23430000Y-12800000D01*
X23450000Y-16050000D02*
X23450000Y-12450000D01*
D16*
X21650000Y-14250000D02*
X14950000Y-14250000D01*
D15*
X22950000Y-13050000D02*
X22950000Y-15550000D01*
D14*
X23250000Y-15800000D02*
X21950000Y-15750000D01*
D13*
X14880000Y-13950000D02*
X14880000Y-16190000D01*
D12*
X13750000Y-17450000D02*
X13750000Y-15650001D01*
D11*
X13250000Y-15000000D02*
X13250000Y-14350000D01*
D15*
X16033682Y-17528529D02*
G75*
G02*
X18250000Y-15650000I2151318J-291471D01*
G01*
D10*
X13150000Y-14350001D02*
G75*
G02*
X15249999Y-12450000I2000000J-99999D01*
G01*
X16433682Y-17928529D02*
G75*
G02*
X18650000Y-16050000I2151318J-291471D01*
G01*
D17*
%TO.C,SW6*%
X42350000Y-12650000D02*
X41100000Y-12650000D01*
D14*
X32650000Y-17750000D02*
X35100000Y-17750000D01*
D10*
X42500000Y-12450000D02*
X34299999Y-12450000D01*
X37700000Y-16050000D02*
X42500000Y-16050000D01*
X32450000Y-17950000D02*
X35480000Y-17950000D01*
X32200000Y-14350000D02*
X32200000Y-15100000D01*
X32450000Y-13500000D02*
X32450000Y-17950000D01*
X32200000Y-15100000D02*
X32400000Y-15100000D01*
X42480000Y-15050000D02*
X42480000Y-12800000D01*
X42500000Y-16050000D02*
X42500000Y-12450000D01*
D16*
X40700000Y-14250000D02*
X34000000Y-14250000D01*
D15*
X42000000Y-13050000D02*
X42000000Y-15550000D01*
D14*
X42300000Y-15800000D02*
X41000000Y-15750000D01*
D13*
X33930000Y-13950000D02*
X33930000Y-16190000D01*
D12*
X32800000Y-17450000D02*
X32800000Y-15650001D01*
D11*
X32300000Y-15000000D02*
X32300000Y-14350000D01*
D15*
X35083682Y-17528529D02*
G75*
G02*
X37300000Y-15650000I2151318J-291471D01*
G01*
D10*
X32200000Y-14350001D02*
G75*
G02*
X34299999Y-12450000I2000000J-99999D01*
G01*
X35483682Y-17928529D02*
G75*
G02*
X37700000Y-16050000I2151318J-291471D01*
G01*
D17*
%TO.C,SW7*%
X4250000Y-31700000D02*
X3000000Y-31700000D01*
D14*
X-5450000Y-36800000D02*
X-3000000Y-36800000D01*
D10*
X4400000Y-31500000D02*
X-3800001Y-31500000D01*
X-400000Y-35100000D02*
X4400000Y-35100000D01*
X-5650000Y-37000000D02*
X-2620000Y-37000000D01*
X-5900000Y-33400000D02*
X-5900000Y-34150000D01*
X-5650000Y-32550000D02*
X-5650000Y-37000000D01*
X-5900000Y-34150000D02*
X-5700000Y-34150000D01*
X4380000Y-34100000D02*
X4380000Y-31850000D01*
X4400000Y-35100000D02*
X4400000Y-31500000D01*
D16*
X2600000Y-33300000D02*
X-4100000Y-33300000D01*
D15*
X3900000Y-32100000D02*
X3900000Y-34600000D01*
D14*
X4200000Y-34850000D02*
X2900000Y-34800000D01*
D13*
X-4170000Y-33000000D02*
X-4170000Y-35240000D01*
D12*
X-5300000Y-36500000D02*
X-5300000Y-34700001D01*
D11*
X-5800000Y-34050000D02*
X-5800000Y-33400000D01*
D15*
X-3016318Y-36578529D02*
G75*
G02*
X-800000Y-34700000I2151318J-291471D01*
G01*
D10*
X-5900000Y-33400001D02*
G75*
G02*
X-3800001Y-31500000I2000000J-99999D01*
G01*
X-2616318Y-36978529D02*
G75*
G02*
X-400000Y-35100000I2151318J-291471D01*
G01*
D17*
%TO.C,SW8*%
X23300000Y-31700000D02*
X22050000Y-31700000D01*
D14*
X13600000Y-36800000D02*
X16050000Y-36800000D01*
D10*
X23450000Y-31500000D02*
X15249999Y-31500000D01*
X18650000Y-35100000D02*
X23450000Y-35100000D01*
X13400000Y-37000000D02*
X16430000Y-37000000D01*
X13150000Y-33400000D02*
X13150000Y-34150000D01*
X13400000Y-32550000D02*
X13400000Y-37000000D01*
X13150000Y-34150000D02*
X13350000Y-34150000D01*
X23430000Y-34100000D02*
X23430000Y-31850000D01*
X23450000Y-35100000D02*
X23450000Y-31500000D01*
D16*
X21650000Y-33300000D02*
X14950000Y-33300000D01*
D15*
X22950000Y-32100000D02*
X22950000Y-34600000D01*
D14*
X23250000Y-34850000D02*
X21950000Y-34800000D01*
D13*
X14880000Y-33000000D02*
X14880000Y-35240000D01*
D12*
X13750000Y-36500000D02*
X13750000Y-34700001D01*
D11*
X13250000Y-34050000D02*
X13250000Y-33400000D01*
D15*
X16033682Y-36578529D02*
G75*
G02*
X18250000Y-34700000I2151318J-291471D01*
G01*
D10*
X13150000Y-33400001D02*
G75*
G02*
X15249999Y-31500000I2000000J-99999D01*
G01*
X16433682Y-36978529D02*
G75*
G02*
X18650000Y-35100000I2151318J-291471D01*
G01*
D17*
%TO.C,SW9*%
X42350000Y-31700000D02*
X41100000Y-31700000D01*
D14*
X32650000Y-36800000D02*
X35100000Y-36800000D01*
D10*
X42500000Y-31500000D02*
X34299999Y-31500000D01*
X37700000Y-35100000D02*
X42500000Y-35100000D01*
X32450000Y-37000000D02*
X35480000Y-37000000D01*
X32200000Y-33400000D02*
X32200000Y-34150000D01*
X32450000Y-32550000D02*
X32450000Y-37000000D01*
X32200000Y-34150000D02*
X32400000Y-34150000D01*
X42480000Y-34100000D02*
X42480000Y-31850000D01*
X42500000Y-35100000D02*
X42500000Y-31500000D01*
D16*
X40700000Y-33300000D02*
X34000000Y-33300000D01*
D15*
X42000000Y-32100000D02*
X42000000Y-34600000D01*
D14*
X42300000Y-34850000D02*
X41000000Y-34800000D01*
D13*
X33930000Y-33000000D02*
X33930000Y-35240000D01*
D12*
X32800000Y-36500000D02*
X32800000Y-34700001D01*
D11*
X32300000Y-34050000D02*
X32300000Y-33400000D01*
D15*
X35083682Y-36578529D02*
G75*
G02*
X37300000Y-34700000I2151318J-291471D01*
G01*
D10*
X32200000Y-33400001D02*
G75*
G02*
X34299999Y-31500000I2000000J-99999D01*
G01*
X35483682Y-36978529D02*
G75*
G02*
X37700000Y-35100000I2151318J-291471D01*
G01*
%TO.C,USB1*%
X-47187500Y8032750D02*
X-47187500Y2582750D01*
X-39487500Y8032750D02*
X-39487500Y2582750D01*
X-47187500Y2582750D02*
X-39487500Y2582750D01*
D18*
%TO.C,R4*%
X-16610000Y-32889564D02*
X-16610000Y-32435436D01*
X-15140000Y-32889564D02*
X-15140000Y-32435436D01*
%TO.C,R3*%
X-36095000Y-18973436D02*
X-36095000Y-19427564D01*
X-37565000Y-18973436D02*
X-37565000Y-19427564D01*
%TO.C,R2*%
X-42772000Y-4187564D02*
X-42772000Y-3733436D01*
X-41302000Y-4187564D02*
X-41302000Y-3733436D01*
%TO.C,R1*%
X-46201000Y-4187564D02*
X-46201000Y-3733436D01*
X-44731000Y-4187564D02*
X-44731000Y-3733436D01*
%TO.C,Y1*%
X-23919250Y-11970750D02*
X-23919250Y-15270750D01*
X-23919250Y-15270750D02*
X-27919250Y-15270750D01*
D10*
%TO.C,U1*%
X-30568750Y-32237500D02*
X-31843750Y-32237500D01*
X-20218750Y-32812500D02*
X-20893750Y-32812500D01*
X-20218750Y-22462500D02*
X-20893750Y-22462500D01*
X-30568750Y-22462500D02*
X-29893750Y-22462500D01*
X-30568750Y-32812500D02*
X-29893750Y-32812500D01*
X-30568750Y-22462500D02*
X-30568750Y-23137500D01*
X-20218750Y-22462500D02*
X-20218750Y-23137500D01*
X-20218750Y-32812500D02*
X-20218750Y-32137500D01*
X-30568750Y-32812500D02*
X-30568750Y-32237500D01*
%TO.C,RESET1*%
X-46256250Y-37525000D02*
X-41056250Y-37525000D01*
X-41056250Y-37525000D02*
X-41056250Y-32325000D01*
X-41056250Y-32325000D02*
X-46256250Y-32325000D01*
X-46256250Y-32325000D02*
X-46256250Y-37525000D01*
X-42656250Y-34925000D02*
G75*
G03*
X-42656250Y-34925000I-1000000J0D01*
G01*
D18*
%TO.C,F1*%
X-46715000Y-11140064D02*
X-46715000Y-9935936D01*
X-48535000Y-11140064D02*
X-48535000Y-9935936D01*
%TO.C,D9*%
X47037500Y-40350000D02*
X45037500Y-40350000D01*
X45037500Y-40350000D02*
X45037500Y-36450000D01*
X47037500Y-40350000D02*
X47037500Y-36450000D01*
%TO.C,D8*%
X27987500Y-40350000D02*
X25987500Y-40350000D01*
X25987500Y-40350000D02*
X25987500Y-36450000D01*
X27987500Y-40350000D02*
X27987500Y-36450000D01*
%TO.C,D7*%
X8937500Y-40350000D02*
X6937500Y-40350000D01*
X6937500Y-40350000D02*
X6937500Y-36450000D01*
X8937500Y-40350000D02*
X8937500Y-36450000D01*
%TO.C,D6*%
X47037500Y-21300000D02*
X45037500Y-21300000D01*
X45037500Y-21300000D02*
X45037500Y-17400000D01*
X47037500Y-21300000D02*
X47037500Y-17400000D01*
%TO.C,D5*%
X27987500Y-21300000D02*
X25987500Y-21300000D01*
X25987500Y-21300000D02*
X25987500Y-17400000D01*
X27987500Y-21300000D02*
X27987500Y-17400000D01*
%TO.C,D4*%
X8937500Y-21300000D02*
X6937500Y-21300000D01*
X6937500Y-21300000D02*
X6937500Y-17400000D01*
X8937500Y-21300000D02*
X8937500Y-17400000D01*
%TO.C,D3*%
X47037500Y-2250000D02*
X45037500Y-2250000D01*
X45037500Y-2250000D02*
X45037500Y1650000D01*
X47037500Y-2250000D02*
X47037500Y1650000D01*
%TO.C,D2*%
X27987500Y-2250000D02*
X25987500Y-2250000D01*
X25987500Y-2250000D02*
X25987500Y1650000D01*
X27987500Y-2250000D02*
X27987500Y1650000D01*
%TO.C,D1*%
X8937500Y-2250000D02*
X6937500Y-2250000D01*
X6937500Y-2250000D02*
X6937500Y1650000D01*
X8937500Y-2250000D02*
X8937500Y1650000D01*
%TO.C,C7*%
X-35533000Y-32057748D02*
X-35533000Y-32580252D01*
X-34063000Y-32057748D02*
X-34063000Y-32580252D01*
%TO.C,C6*%
X-35364748Y-26189000D02*
X-35887252Y-26189000D01*
X-35364748Y-27659000D02*
X-35887252Y-27659000D01*
%TO.C,C5*%
X-15140000Y-24325252D02*
X-15140000Y-23802748D01*
X-16610000Y-24325252D02*
X-16610000Y-23802748D01*
%TO.C,C4*%
X-31723000Y-13515748D02*
X-31723000Y-14038252D01*
X-30253000Y-13515748D02*
X-30253000Y-14038252D01*
%TO.C,C3*%
X-19934250Y-14038252D02*
X-19934250Y-13515748D01*
X-21404250Y-14038252D02*
X-21404250Y-13515748D01*
%TO.C,C2*%
X-32602500Y-19467502D02*
X-32602500Y-18944998D01*
X-34072500Y-19467502D02*
X-34072500Y-18944998D01*
%TO.C,C1*%
X-20219998Y-35777500D02*
X-20742502Y-35777500D01*
X-20219998Y-37247500D02*
X-20742502Y-37247500D01*
%TO.C,USB1*%
D10*
X-41599404Y6548369D02*
X-41599404Y5738845D01*
X-41647023Y5643607D01*
X-41694642Y5595988D01*
X-41789880Y5548369D01*
X-41980357Y5548369D01*
X-42075595Y5595988D01*
X-42123214Y5643607D01*
X-42170833Y5738845D01*
X-42170833Y6548369D01*
X-42599404Y5595988D02*
X-42742261Y5548369D01*
X-42980357Y5548369D01*
X-43075595Y5595988D01*
X-43123214Y5643607D01*
X-43170833Y5738845D01*
X-43170833Y5834083D01*
X-43123214Y5929321D01*
X-43075595Y5976940D01*
X-42980357Y6024559D01*
X-42789880Y6072178D01*
X-42694642Y6119797D01*
X-42647023Y6167416D01*
X-42599404Y6262654D01*
X-42599404Y6357892D01*
X-42647023Y6453130D01*
X-42694642Y6500750D01*
X-42789880Y6548369D01*
X-43027976Y6548369D01*
X-43170833Y6500750D01*
X-43932738Y6072178D02*
X-44075595Y6024559D01*
X-44123214Y5976940D01*
X-44170833Y5881702D01*
X-44170833Y5738845D01*
X-44123214Y5643607D01*
X-44075595Y5595988D01*
X-43980357Y5548369D01*
X-43599404Y5548369D01*
X-43599404Y6548369D01*
X-43932738Y6548369D01*
X-44027976Y6500750D01*
X-44075595Y6453130D01*
X-44123214Y6357892D01*
X-44123214Y6262654D01*
X-44075595Y6167416D01*
X-44027976Y6119797D01*
X-43932738Y6072178D01*
X-43599404Y6072178D01*
X-45123214Y5548369D02*
X-44551785Y5548369D01*
X-44837500Y5548369D02*
X-44837500Y6548369D01*
X-44742261Y6405511D01*
X-44647023Y6310273D01*
X-44551785Y6262654D01*
%TO.C,R4*%
X-13772619Y-32495833D02*
X-14248809Y-32162500D01*
X-13772619Y-31924404D02*
X-14772619Y-31924404D01*
X-14772619Y-32305357D01*
X-14725000Y-32400595D01*
X-14677380Y-32448214D01*
X-14582142Y-32495833D01*
X-14439285Y-32495833D01*
X-14344047Y-32448214D01*
X-14296428Y-32400595D01*
X-14248809Y-32305357D01*
X-14248809Y-31924404D01*
X-14439285Y-33352976D02*
X-13772619Y-33352976D01*
X-14820238Y-33114880D02*
X-14105952Y-32876785D01*
X-14105952Y-33495833D01*
%TO.C,R3*%
X-38027619Y-19033833D02*
X-38503809Y-18700500D01*
X-38027619Y-18462404D02*
X-39027619Y-18462404D01*
X-39027619Y-18843357D01*
X-38980000Y-18938595D01*
X-38932380Y-18986214D01*
X-38837142Y-19033833D01*
X-38694285Y-19033833D01*
X-38599047Y-18986214D01*
X-38551428Y-18938595D01*
X-38503809Y-18843357D01*
X-38503809Y-18462404D01*
X-39027619Y-19367166D02*
X-39027619Y-19986214D01*
X-38646666Y-19652880D01*
X-38646666Y-19795738D01*
X-38599047Y-19890976D01*
X-38551428Y-19938595D01*
X-38456190Y-19986214D01*
X-38218095Y-19986214D01*
X-38122857Y-19938595D01*
X-38075238Y-19890976D01*
X-38027619Y-19795738D01*
X-38027619Y-19510023D01*
X-38075238Y-19414785D01*
X-38122857Y-19367166D01*
%TO.C,R2*%
X-39934619Y-3793833D02*
X-40410809Y-3460500D01*
X-39934619Y-3222404D02*
X-40934619Y-3222404D01*
X-40934619Y-3603357D01*
X-40887000Y-3698595D01*
X-40839380Y-3746214D01*
X-40744142Y-3793833D01*
X-40601285Y-3793833D01*
X-40506047Y-3746214D01*
X-40458428Y-3698595D01*
X-40410809Y-3603357D01*
X-40410809Y-3222404D01*
X-40839380Y-4174785D02*
X-40887000Y-4222404D01*
X-40934619Y-4317642D01*
X-40934619Y-4555738D01*
X-40887000Y-4650976D01*
X-40839380Y-4698595D01*
X-40744142Y-4746214D01*
X-40648904Y-4746214D01*
X-40506047Y-4698595D01*
X-39934619Y-4127166D01*
X-39934619Y-4746214D01*
%TO.C,R1*%
X-43363619Y-3793833D02*
X-43839809Y-3460500D01*
X-43363619Y-3222404D02*
X-44363619Y-3222404D01*
X-44363619Y-3603357D01*
X-44316000Y-3698595D01*
X-44268380Y-3746214D01*
X-44173142Y-3793833D01*
X-44030285Y-3793833D01*
X-43935047Y-3746214D01*
X-43887428Y-3698595D01*
X-43839809Y-3603357D01*
X-43839809Y-3222404D01*
X-43363619Y-4746214D02*
X-43363619Y-4174785D01*
X-43363619Y-4460500D02*
X-44363619Y-4460500D01*
X-44220761Y-4365261D01*
X-44125523Y-4270023D01*
X-44077904Y-4174785D01*
%TO.C,Y1*%
X-25443059Y-11146940D02*
X-25443059Y-11623130D01*
X-25109726Y-10623130D02*
X-25443059Y-11146940D01*
X-25776392Y-10623130D01*
X-26633535Y-11623130D02*
X-26062107Y-11623130D01*
X-26347821Y-11623130D02*
X-26347821Y-10623130D01*
X-26252583Y-10765988D01*
X-26157345Y-10861226D01*
X-26062107Y-10908845D01*
%TO.C,U1*%
X-24631845Y-34539880D02*
X-24631845Y-35349404D01*
X-24679464Y-35444642D01*
X-24727083Y-35492261D01*
X-24822321Y-35539880D01*
X-25012797Y-35539880D01*
X-25108035Y-35492261D01*
X-25155654Y-35444642D01*
X-25203273Y-35349404D01*
X-25203273Y-34539880D01*
X-26203273Y-35539880D02*
X-25631845Y-35539880D01*
X-25917559Y-35539880D02*
X-25917559Y-34539880D01*
X-25822321Y-34682738D01*
X-25727083Y-34777976D01*
X-25631845Y-34825595D01*
%TO.C,RESET1*%
X-41727678Y-31313380D02*
X-41394345Y-30837190D01*
X-41156250Y-31313380D02*
X-41156250Y-30313380D01*
X-41537202Y-30313380D01*
X-41632440Y-30361000D01*
X-41680059Y-30408619D01*
X-41727678Y-30503857D01*
X-41727678Y-30646714D01*
X-41680059Y-30741952D01*
X-41632440Y-30789571D01*
X-41537202Y-30837190D01*
X-41156250Y-30837190D01*
X-42156250Y-30789571D02*
X-42489583Y-30789571D01*
X-42632440Y-31313380D02*
X-42156250Y-31313380D01*
X-42156250Y-30313380D01*
X-42632440Y-30313380D01*
X-43013392Y-31265761D02*
X-43156250Y-31313380D01*
X-43394345Y-31313380D01*
X-43489583Y-31265761D01*
X-43537202Y-31218142D01*
X-43584821Y-31122904D01*
X-43584821Y-31027666D01*
X-43537202Y-30932428D01*
X-43489583Y-30884809D01*
X-43394345Y-30837190D01*
X-43203869Y-30789571D01*
X-43108630Y-30741952D01*
X-43061011Y-30694333D01*
X-43013392Y-30599095D01*
X-43013392Y-30503857D01*
X-43061011Y-30408619D01*
X-43108630Y-30361000D01*
X-43203869Y-30313380D01*
X-43441964Y-30313380D01*
X-43584821Y-30361000D01*
X-44013392Y-30789571D02*
X-44346726Y-30789571D01*
X-44489583Y-31313380D02*
X-44013392Y-31313380D01*
X-44013392Y-30313380D01*
X-44489583Y-30313380D01*
X-44775297Y-30313380D02*
X-45346726Y-30313380D01*
X-45061011Y-31313380D02*
X-45061011Y-30313380D01*
X-46203869Y-31313380D02*
X-45632440Y-31313380D01*
X-45918154Y-31313380D02*
X-45918154Y-30313380D01*
X-45822916Y-30456238D01*
X-45727678Y-30551476D01*
X-45632440Y-30599095D01*
%TO.C,F1*%
X-45876428Y-10204666D02*
X-45876428Y-9871333D01*
X-45352619Y-9871333D02*
X-46352619Y-9871333D01*
X-46352619Y-10347523D01*
X-45352619Y-11252285D02*
X-45352619Y-10680857D01*
X-45352619Y-10966571D02*
X-46352619Y-10966571D01*
X-46209761Y-10871333D01*
X-46114523Y-10776095D01*
X-46066904Y-10680857D01*
%TO.C,D9*%
X48489880Y-37361904D02*
X47489880Y-37361904D01*
X47489880Y-37600000D01*
X47537500Y-37742857D01*
X47632738Y-37838095D01*
X47727976Y-37885714D01*
X47918452Y-37933333D01*
X48061309Y-37933333D01*
X48251785Y-37885714D01*
X48347023Y-37838095D01*
X48442261Y-37742857D01*
X48489880Y-37600000D01*
X48489880Y-37361904D01*
X48489880Y-38409523D02*
X48489880Y-38600000D01*
X48442261Y-38695238D01*
X48394642Y-38742857D01*
X48251785Y-38838095D01*
X48061309Y-38885714D01*
X47680357Y-38885714D01*
X47585119Y-38838095D01*
X47537500Y-38790476D01*
X47489880Y-38695238D01*
X47489880Y-38504761D01*
X47537500Y-38409523D01*
X47585119Y-38361904D01*
X47680357Y-38314285D01*
X47918452Y-38314285D01*
X48013690Y-38361904D01*
X48061309Y-38409523D01*
X48108928Y-38504761D01*
X48108928Y-38695238D01*
X48061309Y-38790476D01*
X48013690Y-38838095D01*
X47918452Y-38885714D01*
%TO.C,D8*%
X29439880Y-37361904D02*
X28439880Y-37361904D01*
X28439880Y-37600000D01*
X28487500Y-37742857D01*
X28582738Y-37838095D01*
X28677976Y-37885714D01*
X28868452Y-37933333D01*
X29011309Y-37933333D01*
X29201785Y-37885714D01*
X29297023Y-37838095D01*
X29392261Y-37742857D01*
X29439880Y-37600000D01*
X29439880Y-37361904D01*
X28868452Y-38504761D02*
X28820833Y-38409523D01*
X28773214Y-38361904D01*
X28677976Y-38314285D01*
X28630357Y-38314285D01*
X28535119Y-38361904D01*
X28487500Y-38409523D01*
X28439880Y-38504761D01*
X28439880Y-38695238D01*
X28487500Y-38790476D01*
X28535119Y-38838095D01*
X28630357Y-38885714D01*
X28677976Y-38885714D01*
X28773214Y-38838095D01*
X28820833Y-38790476D01*
X28868452Y-38695238D01*
X28868452Y-38504761D01*
X28916071Y-38409523D01*
X28963690Y-38361904D01*
X29058928Y-38314285D01*
X29249404Y-38314285D01*
X29344642Y-38361904D01*
X29392261Y-38409523D01*
X29439880Y-38504761D01*
X29439880Y-38695238D01*
X29392261Y-38790476D01*
X29344642Y-38838095D01*
X29249404Y-38885714D01*
X29058928Y-38885714D01*
X28963690Y-38838095D01*
X28916071Y-38790476D01*
X28868452Y-38695238D01*
%TO.C,D7*%
X10389880Y-37361904D02*
X9389880Y-37361904D01*
X9389880Y-37600000D01*
X9437500Y-37742857D01*
X9532738Y-37838095D01*
X9627976Y-37885714D01*
X9818452Y-37933333D01*
X9961309Y-37933333D01*
X10151785Y-37885714D01*
X10247023Y-37838095D01*
X10342261Y-37742857D01*
X10389880Y-37600000D01*
X10389880Y-37361904D01*
X9389880Y-38266666D02*
X9389880Y-38933333D01*
X10389880Y-38504761D01*
%TO.C,D6*%
X48489880Y-18311904D02*
X47489880Y-18311904D01*
X47489880Y-18550000D01*
X47537500Y-18692857D01*
X47632738Y-18788095D01*
X47727976Y-18835714D01*
X47918452Y-18883333D01*
X48061309Y-18883333D01*
X48251785Y-18835714D01*
X48347023Y-18788095D01*
X48442261Y-18692857D01*
X48489880Y-18550000D01*
X48489880Y-18311904D01*
X47489880Y-19740476D02*
X47489880Y-19550000D01*
X47537500Y-19454761D01*
X47585119Y-19407142D01*
X47727976Y-19311904D01*
X47918452Y-19264285D01*
X48299404Y-19264285D01*
X48394642Y-19311904D01*
X48442261Y-19359523D01*
X48489880Y-19454761D01*
X48489880Y-19645238D01*
X48442261Y-19740476D01*
X48394642Y-19788095D01*
X48299404Y-19835714D01*
X48061309Y-19835714D01*
X47966071Y-19788095D01*
X47918452Y-19740476D01*
X47870833Y-19645238D01*
X47870833Y-19454761D01*
X47918452Y-19359523D01*
X47966071Y-19311904D01*
X48061309Y-19264285D01*
%TO.C,D5*%
X29439880Y-18311904D02*
X28439880Y-18311904D01*
X28439880Y-18550000D01*
X28487500Y-18692857D01*
X28582738Y-18788095D01*
X28677976Y-18835714D01*
X28868452Y-18883333D01*
X29011309Y-18883333D01*
X29201785Y-18835714D01*
X29297023Y-18788095D01*
X29392261Y-18692857D01*
X29439880Y-18550000D01*
X29439880Y-18311904D01*
X28439880Y-19788095D02*
X28439880Y-19311904D01*
X28916071Y-19264285D01*
X28868452Y-19311904D01*
X28820833Y-19407142D01*
X28820833Y-19645238D01*
X28868452Y-19740476D01*
X28916071Y-19788095D01*
X29011309Y-19835714D01*
X29249404Y-19835714D01*
X29344642Y-19788095D01*
X29392261Y-19740476D01*
X29439880Y-19645238D01*
X29439880Y-19407142D01*
X29392261Y-19311904D01*
X29344642Y-19264285D01*
%TO.C,D4*%
X10389880Y-18311904D02*
X9389880Y-18311904D01*
X9389880Y-18550000D01*
X9437500Y-18692857D01*
X9532738Y-18788095D01*
X9627976Y-18835714D01*
X9818452Y-18883333D01*
X9961309Y-18883333D01*
X10151785Y-18835714D01*
X10247023Y-18788095D01*
X10342261Y-18692857D01*
X10389880Y-18550000D01*
X10389880Y-18311904D01*
X9723214Y-19740476D02*
X10389880Y-19740476D01*
X9342261Y-19502380D02*
X10056547Y-19264285D01*
X10056547Y-19883333D01*
%TO.C,D3*%
X48489880Y738095D02*
X47489880Y738095D01*
X47489880Y500000D01*
X47537500Y357142D01*
X47632738Y261904D01*
X47727976Y214285D01*
X47918452Y166666D01*
X48061309Y166666D01*
X48251785Y214285D01*
X48347023Y261904D01*
X48442261Y357142D01*
X48489880Y500000D01*
X48489880Y738095D01*
X47489880Y-166666D02*
X47489880Y-785714D01*
X47870833Y-452380D01*
X47870833Y-595238D01*
X47918452Y-690476D01*
X47966071Y-738095D01*
X48061309Y-785714D01*
X48299404Y-785714D01*
X48394642Y-738095D01*
X48442261Y-690476D01*
X48489880Y-595238D01*
X48489880Y-309523D01*
X48442261Y-214285D01*
X48394642Y-166666D01*
%TO.C,D2*%
X29439880Y738095D02*
X28439880Y738095D01*
X28439880Y500000D01*
X28487500Y357142D01*
X28582738Y261904D01*
X28677976Y214285D01*
X28868452Y166666D01*
X29011309Y166666D01*
X29201785Y214285D01*
X29297023Y261904D01*
X29392261Y357142D01*
X29439880Y500000D01*
X29439880Y738095D01*
X28535119Y-214285D02*
X28487500Y-261904D01*
X28439880Y-357142D01*
X28439880Y-595238D01*
X28487500Y-690476D01*
X28535119Y-738095D01*
X28630357Y-785714D01*
X28725595Y-785714D01*
X28868452Y-738095D01*
X29439880Y-166666D01*
X29439880Y-785714D01*
%TO.C,D1*%
X10389880Y738095D02*
X9389880Y738095D01*
X9389880Y500000D01*
X9437500Y357142D01*
X9532738Y261904D01*
X9627976Y214285D01*
X9818452Y166666D01*
X9961309Y166666D01*
X10151785Y214285D01*
X10247023Y261904D01*
X10342261Y357142D01*
X10389880Y500000D01*
X10389880Y738095D01*
X10389880Y-785714D02*
X10389880Y-214285D01*
X10389880Y-500000D02*
X9389880Y-499999D01*
X9532738Y-404761D01*
X9627976Y-309523D01*
X9675595Y-214285D01*
%TO.C,C7*%
X-36120857Y-32152333D02*
X-36073238Y-32104714D01*
X-36025619Y-31961857D01*
X-36025619Y-31866619D01*
X-36073238Y-31723761D01*
X-36168476Y-31628523D01*
X-36263714Y-31580904D01*
X-36454190Y-31533285D01*
X-36597047Y-31533285D01*
X-36787523Y-31580904D01*
X-36882761Y-31628523D01*
X-36978000Y-31723761D01*
X-37025619Y-31866619D01*
X-37025619Y-31961857D01*
X-36978000Y-32104714D01*
X-36930380Y-32152333D01*
X-37025619Y-32485666D02*
X-37025619Y-33152333D01*
X-36025619Y-32723761D01*
%TO.C,C6*%
X-35459333Y-25601142D02*
X-35411714Y-25648761D01*
X-35268857Y-25696380D01*
X-35173619Y-25696380D01*
X-35030761Y-25648761D01*
X-34935523Y-25553523D01*
X-34887904Y-25458285D01*
X-34840285Y-25267809D01*
X-34840285Y-25124952D01*
X-34887904Y-24934476D01*
X-34935523Y-24839238D01*
X-35030761Y-24744000D01*
X-35173619Y-24696380D01*
X-35268857Y-24696380D01*
X-35411714Y-24744000D01*
X-35459333Y-24791619D01*
X-36316476Y-24696380D02*
X-36126000Y-24696380D01*
X-36030761Y-24744000D01*
X-35983142Y-24791619D01*
X-35887904Y-24934476D01*
X-35840285Y-25124952D01*
X-35840285Y-25505904D01*
X-35887904Y-25601142D01*
X-35935523Y-25648761D01*
X-36030761Y-25696380D01*
X-36221238Y-25696380D01*
X-36316476Y-25648761D01*
X-36364095Y-25601142D01*
X-36411714Y-25505904D01*
X-36411714Y-25267809D01*
X-36364095Y-25172571D01*
X-36316476Y-25124952D01*
X-36221238Y-25077333D01*
X-36030761Y-25077333D01*
X-35935523Y-25124952D01*
X-35887904Y-25172571D01*
X-35840285Y-25267809D01*
%TO.C,C5*%
X-13837857Y-23897333D02*
X-13790238Y-23849714D01*
X-13742619Y-23706857D01*
X-13742619Y-23611619D01*
X-13790238Y-23468761D01*
X-13885476Y-23373523D01*
X-13980714Y-23325904D01*
X-14171190Y-23278285D01*
X-14314047Y-23278285D01*
X-14504523Y-23325904D01*
X-14599761Y-23373523D01*
X-14695000Y-23468761D01*
X-14742619Y-23611619D01*
X-14742619Y-23706857D01*
X-14695000Y-23849714D01*
X-14647380Y-23897333D01*
X-14742619Y-24802095D02*
X-14742619Y-24325904D01*
X-14266428Y-24278285D01*
X-14314047Y-24325904D01*
X-14361666Y-24421142D01*
X-14361666Y-24659238D01*
X-14314047Y-24754476D01*
X-14266428Y-24802095D01*
X-14171190Y-24849714D01*
X-13933095Y-24849714D01*
X-13837857Y-24802095D01*
X-13790238Y-24754476D01*
X-13742619Y-24659238D01*
X-13742619Y-24421142D01*
X-13790238Y-24325904D01*
X-13837857Y-24278285D01*
%TO.C,C4*%
X-32310857Y-13610333D02*
X-32263238Y-13562714D01*
X-32215619Y-13419857D01*
X-32215619Y-13324619D01*
X-32263238Y-13181761D01*
X-32358476Y-13086523D01*
X-32453714Y-13038904D01*
X-32644190Y-12991285D01*
X-32787047Y-12991285D01*
X-32977523Y-13038904D01*
X-33072761Y-13086523D01*
X-33168000Y-13181761D01*
X-33215619Y-13324619D01*
X-33215619Y-13419857D01*
X-33168000Y-13562714D01*
X-33120380Y-13610333D01*
X-32882285Y-14467476D02*
X-32215619Y-14467476D01*
X-33263238Y-14229380D02*
X-32548952Y-13991285D01*
X-32548952Y-14610333D01*
%TO.C,C3*%
X-18632107Y-13610333D02*
X-18584488Y-13562714D01*
X-18536869Y-13419857D01*
X-18536869Y-13324619D01*
X-18584488Y-13181761D01*
X-18679726Y-13086523D01*
X-18774964Y-13038904D01*
X-18965440Y-12991285D01*
X-19108297Y-12991285D01*
X-19298773Y-13038904D01*
X-19394011Y-13086523D01*
X-19489250Y-13181761D01*
X-19536869Y-13324619D01*
X-19536869Y-13419857D01*
X-19489250Y-13562714D01*
X-19441630Y-13610333D01*
X-19536869Y-13943666D02*
X-19536869Y-14562714D01*
X-19155916Y-14229380D01*
X-19155916Y-14372238D01*
X-19108297Y-14467476D01*
X-19060678Y-14515095D01*
X-18965440Y-14562714D01*
X-18727345Y-14562714D01*
X-18632107Y-14515095D01*
X-18584488Y-14467476D01*
X-18536869Y-14372238D01*
X-18536869Y-14086523D01*
X-18584488Y-13991285D01*
X-18632107Y-13943666D01*
%TO.C,C2*%
X-31300357Y-19039583D02*
X-31252738Y-18991964D01*
X-31205119Y-18849107D01*
X-31205119Y-18753869D01*
X-31252738Y-18611011D01*
X-31347976Y-18515773D01*
X-31443214Y-18468154D01*
X-31633690Y-18420535D01*
X-31776547Y-18420535D01*
X-31967023Y-18468154D01*
X-32062261Y-18515773D01*
X-32157500Y-18611011D01*
X-32205119Y-18753869D01*
X-32205119Y-18849107D01*
X-32157500Y-18991964D01*
X-32109880Y-19039583D01*
X-32109880Y-19420535D02*
X-32157500Y-19468154D01*
X-32205119Y-19563392D01*
X-32205119Y-19801488D01*
X-32157500Y-19896726D01*
X-32109880Y-19944345D01*
X-32014642Y-19991964D01*
X-31919404Y-19991964D01*
X-31776547Y-19944345D01*
X-31205119Y-19372916D01*
X-31205119Y-19991964D01*
%TO.C,C1*%
X-20314583Y-35189642D02*
X-20266964Y-35237261D01*
X-20124107Y-35284880D01*
X-20028869Y-35284880D01*
X-19886011Y-35237261D01*
X-19790773Y-35142023D01*
X-19743154Y-35046785D01*
X-19695535Y-34856309D01*
X-19695535Y-34713452D01*
X-19743154Y-34522976D01*
X-19790773Y-34427738D01*
X-19886011Y-34332500D01*
X-20028869Y-34284880D01*
X-20124107Y-34284880D01*
X-20266964Y-34332500D01*
X-20314583Y-34380119D01*
X-21266964Y-35284880D02*
X-20695535Y-35284880D01*
X-20981250Y-35284880D02*
X-20981250Y-34284880D01*
X-20886011Y-34427738D01*
X-20790773Y-34522976D01*
X-20695535Y-34570595D01*
%TD*%
M02*
