%TF.GenerationSoftware,KiCad,Pcbnew,(5.1.9)-1*%
%TF.CreationDate,2021-06-16T12:24:14-05:00*%
%TF.ProjectId,practice-pcb-ai03-tutorial,70726163-7469-4636-952d-7063622d6169,rev?*%
%TF.SameCoordinates,Original*%
%TF.FileFunction,Soldermask,Bot*%
%TF.FilePolarity,Negative*%
%FSLAX46Y46*%
G04 Gerber Fmt 4.6, Leading zero omitted, Abs format (unit mm)*
G04 Created by KiCad (PCBNEW (5.1.9)-1) date 2021-06-16 12:24:14*
%MOMM*%
%LPD*%
G01*
G04 APERTURE LIST*
%ADD10C,3.400000*%
%ADD11C,2.300000*%
%ADD12C,4.500000*%
%ADD13O,2.100000X3.100000*%
G04 APERTURE END LIST*
D10*
%TO.C,SW1*%
X2540000Y5080000D03*
X-3810000Y2540000D03*
G36*
G01*
X7317000Y6330000D02*
X7317000Y3830000D01*
G75*
G02*
X7117000Y3630000I-200000J0D01*
G01*
X4567000Y3630000D01*
G75*
G02*
X4367000Y3830000I0J200000D01*
G01*
X4367000Y6330000D01*
G75*
G02*
X4567000Y6530000I200000J0D01*
G01*
X7117000Y6530000D01*
G75*
G02*
X7317000Y6330000I0J-200000D01*
G01*
G37*
D11*
X-5080000Y0D03*
X5080000Y0D03*
D12*
X0Y0D03*
G36*
G01*
X-5610000Y3790000D02*
X-5610000Y1290000D01*
G75*
G02*
X-5810000Y1090000I-200000J0D01*
G01*
X-8360000Y1090000D01*
G75*
G02*
X-8560000Y1290000I0J200000D01*
G01*
X-8560000Y3790000D01*
G75*
G02*
X-8360000Y3990000I200000J0D01*
G01*
X-5810000Y3990000D01*
G75*
G02*
X-5610000Y3790000I0J-200000D01*
G01*
G37*
%TD*%
%TO.C,SW2*%
G36*
G01*
X13440000Y3790000D02*
X13440000Y1290000D01*
G75*
G02*
X13240000Y1090000I-200000J0D01*
G01*
X10690000Y1090000D01*
G75*
G02*
X10490000Y1290000I0J200000D01*
G01*
X10490000Y3790000D01*
G75*
G02*
X10690000Y3990000I200000J0D01*
G01*
X13240000Y3990000D01*
G75*
G02*
X13440000Y3790000I0J-200000D01*
G01*
G37*
X19050000Y0D03*
D11*
X24130000Y0D03*
X13970000Y0D03*
G36*
G01*
X26367000Y6330000D02*
X26367000Y3830000D01*
G75*
G02*
X26167000Y3630000I-200000J0D01*
G01*
X23617000Y3630000D01*
G75*
G02*
X23417000Y3830000I0J200000D01*
G01*
X23417000Y6330000D01*
G75*
G02*
X23617000Y6530000I200000J0D01*
G01*
X26167000Y6530000D01*
G75*
G02*
X26367000Y6330000I0J-200000D01*
G01*
G37*
D10*
X15240000Y2540000D03*
X21590000Y5080000D03*
%TD*%
%TO.C,SW3*%
G36*
G01*
X32490000Y3790000D02*
X32490000Y1290000D01*
G75*
G02*
X32290000Y1090000I-200000J0D01*
G01*
X29740000Y1090000D01*
G75*
G02*
X29540000Y1290000I0J200000D01*
G01*
X29540000Y3790000D01*
G75*
G02*
X29740000Y3990000I200000J0D01*
G01*
X32290000Y3990000D01*
G75*
G02*
X32490000Y3790000I0J-200000D01*
G01*
G37*
D12*
X38100000Y0D03*
D11*
X43180000Y0D03*
X33020000Y0D03*
G36*
G01*
X45417000Y6330000D02*
X45417000Y3830000D01*
G75*
G02*
X45217000Y3630000I-200000J0D01*
G01*
X42667000Y3630000D01*
G75*
G02*
X42467000Y3830000I0J200000D01*
G01*
X42467000Y6330000D01*
G75*
G02*
X42667000Y6530000I200000J0D01*
G01*
X45217000Y6530000D01*
G75*
G02*
X45417000Y6330000I0J-200000D01*
G01*
G37*
D10*
X34290000Y2540000D03*
X40640000Y5080000D03*
%TD*%
%TO.C,SW4*%
G36*
G01*
X-5610000Y-15260000D02*
X-5610000Y-17760000D01*
G75*
G02*
X-5810000Y-17960000I-200000J0D01*
G01*
X-8360000Y-17960000D01*
G75*
G02*
X-8560000Y-17760000I0J200000D01*
G01*
X-8560000Y-15260000D01*
G75*
G02*
X-8360000Y-15060000I200000J0D01*
G01*
X-5810000Y-15060000D01*
G75*
G02*
X-5610000Y-15260000I0J-200000D01*
G01*
G37*
D12*
X0Y-19050000D03*
D11*
X5080000Y-19050000D03*
X-5080000Y-19050000D03*
G36*
G01*
X7317000Y-12720000D02*
X7317000Y-15220000D01*
G75*
G02*
X7117000Y-15420000I-200000J0D01*
G01*
X4567000Y-15420000D01*
G75*
G02*
X4367000Y-15220000I0J200000D01*
G01*
X4367000Y-12720000D01*
G75*
G02*
X4567000Y-12520000I200000J0D01*
G01*
X7117000Y-12520000D01*
G75*
G02*
X7317000Y-12720000I0J-200000D01*
G01*
G37*
D10*
X-3810000Y-16510000D03*
X2540000Y-13970000D03*
%TD*%
%TO.C,SW5*%
G36*
G01*
X13440000Y-15260000D02*
X13440000Y-17760000D01*
G75*
G02*
X13240000Y-17960000I-200000J0D01*
G01*
X10690000Y-17960000D01*
G75*
G02*
X10490000Y-17760000I0J200000D01*
G01*
X10490000Y-15260000D01*
G75*
G02*
X10690000Y-15060000I200000J0D01*
G01*
X13240000Y-15060000D01*
G75*
G02*
X13440000Y-15260000I0J-200000D01*
G01*
G37*
D12*
X19050000Y-19050000D03*
D11*
X24130000Y-19050000D03*
X13970000Y-19050000D03*
G36*
G01*
X26367000Y-12720000D02*
X26367000Y-15220000D01*
G75*
G02*
X26167000Y-15420000I-200000J0D01*
G01*
X23617000Y-15420000D01*
G75*
G02*
X23417000Y-15220000I0J200000D01*
G01*
X23417000Y-12720000D01*
G75*
G02*
X23617000Y-12520000I200000J0D01*
G01*
X26167000Y-12520000D01*
G75*
G02*
X26367000Y-12720000I0J-200000D01*
G01*
G37*
D10*
X15240000Y-16510000D03*
X21590000Y-13970000D03*
%TD*%
%TO.C,SW6*%
G36*
G01*
X32490000Y-15260000D02*
X32490000Y-17760000D01*
G75*
G02*
X32290000Y-17960000I-200000J0D01*
G01*
X29740000Y-17960000D01*
G75*
G02*
X29540000Y-17760000I0J200000D01*
G01*
X29540000Y-15260000D01*
G75*
G02*
X29740000Y-15060000I200000J0D01*
G01*
X32290000Y-15060000D01*
G75*
G02*
X32490000Y-15260000I0J-200000D01*
G01*
G37*
D12*
X38100000Y-19050000D03*
D11*
X43180000Y-19050000D03*
X33020000Y-19050000D03*
G36*
G01*
X45417000Y-12720000D02*
X45417000Y-15220000D01*
G75*
G02*
X45217000Y-15420000I-200000J0D01*
G01*
X42667000Y-15420000D01*
G75*
G02*
X42467000Y-15220000I0J200000D01*
G01*
X42467000Y-12720000D01*
G75*
G02*
X42667000Y-12520000I200000J0D01*
G01*
X45217000Y-12520000D01*
G75*
G02*
X45417000Y-12720000I0J-200000D01*
G01*
G37*
D10*
X34290000Y-16510000D03*
X40640000Y-13970000D03*
%TD*%
%TO.C,SW7*%
G36*
G01*
X-5610000Y-34310000D02*
X-5610000Y-36810000D01*
G75*
G02*
X-5810000Y-37010000I-200000J0D01*
G01*
X-8360000Y-37010000D01*
G75*
G02*
X-8560000Y-36810000I0J200000D01*
G01*
X-8560000Y-34310000D01*
G75*
G02*
X-8360000Y-34110000I200000J0D01*
G01*
X-5810000Y-34110000D01*
G75*
G02*
X-5610000Y-34310000I0J-200000D01*
G01*
G37*
D12*
X0Y-38100000D03*
D11*
X5080000Y-38100000D03*
X-5080000Y-38100000D03*
G36*
G01*
X7317000Y-31770000D02*
X7317000Y-34270000D01*
G75*
G02*
X7117000Y-34470000I-200000J0D01*
G01*
X4567000Y-34470000D01*
G75*
G02*
X4367000Y-34270000I0J200000D01*
G01*
X4367000Y-31770000D01*
G75*
G02*
X4567000Y-31570000I200000J0D01*
G01*
X7117000Y-31570000D01*
G75*
G02*
X7317000Y-31770000I0J-200000D01*
G01*
G37*
D10*
X-3810000Y-35560000D03*
X2540000Y-33020000D03*
%TD*%
%TO.C,SW8*%
G36*
G01*
X13440000Y-34310000D02*
X13440000Y-36810000D01*
G75*
G02*
X13240000Y-37010000I-200000J0D01*
G01*
X10690000Y-37010000D01*
G75*
G02*
X10490000Y-36810000I0J200000D01*
G01*
X10490000Y-34310000D01*
G75*
G02*
X10690000Y-34110000I200000J0D01*
G01*
X13240000Y-34110000D01*
G75*
G02*
X13440000Y-34310000I0J-200000D01*
G01*
G37*
D12*
X19050000Y-38100000D03*
D11*
X24130000Y-38100000D03*
X13970000Y-38100000D03*
G36*
G01*
X26367000Y-31770000D02*
X26367000Y-34270000D01*
G75*
G02*
X26167000Y-34470000I-200000J0D01*
G01*
X23617000Y-34470000D01*
G75*
G02*
X23417000Y-34270000I0J200000D01*
G01*
X23417000Y-31770000D01*
G75*
G02*
X23617000Y-31570000I200000J0D01*
G01*
X26167000Y-31570000D01*
G75*
G02*
X26367000Y-31770000I0J-200000D01*
G01*
G37*
D10*
X15240000Y-35560000D03*
X21590000Y-33020000D03*
%TD*%
%TO.C,SW9*%
G36*
G01*
X32490000Y-34310000D02*
X32490000Y-36810000D01*
G75*
G02*
X32290000Y-37010000I-200000J0D01*
G01*
X29740000Y-37010000D01*
G75*
G02*
X29540000Y-36810000I0J200000D01*
G01*
X29540000Y-34310000D01*
G75*
G02*
X29740000Y-34110000I200000J0D01*
G01*
X32290000Y-34110000D01*
G75*
G02*
X32490000Y-34310000I0J-200000D01*
G01*
G37*
D12*
X38100000Y-38100000D03*
D11*
X43180000Y-38100000D03*
X33020000Y-38100000D03*
G36*
G01*
X45417000Y-31770000D02*
X45417000Y-34270000D01*
G75*
G02*
X45217000Y-34470000I-200000J0D01*
G01*
X42667000Y-34470000D01*
G75*
G02*
X42467000Y-34270000I0J200000D01*
G01*
X42467000Y-31770000D01*
G75*
G02*
X42667000Y-31570000I200000J0D01*
G01*
X45217000Y-31570000D01*
G75*
G02*
X45417000Y-31770000I0J-200000D01*
G01*
G37*
D10*
X34290000Y-35560000D03*
X40640000Y-33020000D03*
%TD*%
D13*
%TO.C,USB1*%
X-46987500Y8032750D03*
X-39687500Y8032750D03*
X-39687500Y3532750D03*
X-46987500Y3532750D03*
G36*
G01*
X-45187500Y4857750D02*
X-44687500Y4857750D01*
G75*
G02*
X-44487500Y4657750I0J-200000D01*
G01*
X-44487500Y2407750D01*
G75*
G02*
X-44687500Y2207750I-200000J0D01*
G01*
X-45187500Y2207750D01*
G75*
G02*
X-45387500Y2407750I0J200000D01*
G01*
X-45387500Y4657750D01*
G75*
G02*
X-45187500Y4857750I200000J0D01*
G01*
G37*
G36*
G01*
X-44387500Y4857750D02*
X-43887500Y4857750D01*
G75*
G02*
X-43687500Y4657750I0J-200000D01*
G01*
X-43687500Y2407750D01*
G75*
G02*
X-43887500Y2207750I-200000J0D01*
G01*
X-44387500Y2207750D01*
G75*
G02*
X-44587500Y2407750I0J200000D01*
G01*
X-44587500Y4657750D01*
G75*
G02*
X-44387500Y4857750I200000J0D01*
G01*
G37*
G36*
G01*
X-43587500Y4857750D02*
X-43087500Y4857750D01*
G75*
G02*
X-42887500Y4657750I0J-200000D01*
G01*
X-42887500Y2407750D01*
G75*
G02*
X-43087500Y2207750I-200000J0D01*
G01*
X-43587500Y2207750D01*
G75*
G02*
X-43787500Y2407750I0J200000D01*
G01*
X-43787500Y4657750D01*
G75*
G02*
X-43587500Y4857750I200000J0D01*
G01*
G37*
G36*
G01*
X-42787500Y4857750D02*
X-42287500Y4857750D01*
G75*
G02*
X-42087500Y4657750I0J-200000D01*
G01*
X-42087500Y2407750D01*
G75*
G02*
X-42287500Y2207750I-200000J0D01*
G01*
X-42787500Y2207750D01*
G75*
G02*
X-42987500Y2407750I0J200000D01*
G01*
X-42987500Y4657750D01*
G75*
G02*
X-42787500Y4857750I200000J0D01*
G01*
G37*
G36*
G01*
X-41987500Y4857750D02*
X-41487500Y4857750D01*
G75*
G02*
X-41287500Y4657750I0J-200000D01*
G01*
X-41287500Y2407750D01*
G75*
G02*
X-41487500Y2207750I-200000J0D01*
G01*
X-41987500Y2207750D01*
G75*
G02*
X-42187500Y2407750I0J200000D01*
G01*
X-42187500Y4657750D01*
G75*
G02*
X-41987500Y4857750I200000J0D01*
G01*
G37*
%TD*%
%TO.C,R4*%
G36*
G01*
X-15322559Y-32462500D02*
X-16427441Y-32462500D01*
G75*
G02*
X-16775000Y-32114941I0J347559D01*
G01*
X-16775000Y-31385059D01*
G75*
G02*
X-16427441Y-31037500I347559J0D01*
G01*
X-15322559Y-31037500D01*
G75*
G02*
X-14975000Y-31385059I0J-347559D01*
G01*
X-14975000Y-32114941D01*
G75*
G02*
X-15322559Y-32462500I-347559J0D01*
G01*
G37*
G36*
G01*
X-15322559Y-34287500D02*
X-16427441Y-34287500D01*
G75*
G02*
X-16775000Y-33939941I0J347559D01*
G01*
X-16775000Y-33210059D01*
G75*
G02*
X-16427441Y-32862500I347559J0D01*
G01*
X-15322559Y-32862500D01*
G75*
G02*
X-14975000Y-33210059I0J-347559D01*
G01*
X-14975000Y-33939941D01*
G75*
G02*
X-15322559Y-34287500I-347559J0D01*
G01*
G37*
%TD*%
%TO.C,R3*%
G36*
G01*
X-37382441Y-19400500D02*
X-36277559Y-19400500D01*
G75*
G02*
X-35930000Y-19748059I0J-347559D01*
G01*
X-35930000Y-20477941D01*
G75*
G02*
X-36277559Y-20825500I-347559J0D01*
G01*
X-37382441Y-20825500D01*
G75*
G02*
X-37730000Y-20477941I0J347559D01*
G01*
X-37730000Y-19748059D01*
G75*
G02*
X-37382441Y-19400500I347559J0D01*
G01*
G37*
G36*
G01*
X-37382441Y-17575500D02*
X-36277559Y-17575500D01*
G75*
G02*
X-35930000Y-17923059I0J-347559D01*
G01*
X-35930000Y-18652941D01*
G75*
G02*
X-36277559Y-19000500I-347559J0D01*
G01*
X-37382441Y-19000500D01*
G75*
G02*
X-37730000Y-18652941I0J347559D01*
G01*
X-37730000Y-17923059D01*
G75*
G02*
X-37382441Y-17575500I347559J0D01*
G01*
G37*
%TD*%
%TO.C,R2*%
G36*
G01*
X-41484559Y-3760500D02*
X-42589441Y-3760500D01*
G75*
G02*
X-42937000Y-3412941I0J347559D01*
G01*
X-42937000Y-2683059D01*
G75*
G02*
X-42589441Y-2335500I347559J0D01*
G01*
X-41484559Y-2335500D01*
G75*
G02*
X-41137000Y-2683059I0J-347559D01*
G01*
X-41137000Y-3412941D01*
G75*
G02*
X-41484559Y-3760500I-347559J0D01*
G01*
G37*
G36*
G01*
X-41484559Y-5585500D02*
X-42589441Y-5585500D01*
G75*
G02*
X-42937000Y-5237941I0J347559D01*
G01*
X-42937000Y-4508059D01*
G75*
G02*
X-42589441Y-4160500I347559J0D01*
G01*
X-41484559Y-4160500D01*
G75*
G02*
X-41137000Y-4508059I0J-347559D01*
G01*
X-41137000Y-5237941D01*
G75*
G02*
X-41484559Y-5585500I-347559J0D01*
G01*
G37*
%TD*%
%TO.C,R1*%
G36*
G01*
X-44913559Y-3760500D02*
X-46018441Y-3760500D01*
G75*
G02*
X-46366000Y-3412941I0J347559D01*
G01*
X-46366000Y-2683059D01*
G75*
G02*
X-46018441Y-2335500I347559J0D01*
G01*
X-44913559Y-2335500D01*
G75*
G02*
X-44566000Y-2683059I0J-347559D01*
G01*
X-44566000Y-3412941D01*
G75*
G02*
X-44913559Y-3760500I-347559J0D01*
G01*
G37*
G36*
G01*
X-44913559Y-5585500D02*
X-46018441Y-5585500D01*
G75*
G02*
X-46366000Y-5237941I0J347559D01*
G01*
X-46366000Y-4508059D01*
G75*
G02*
X-46018441Y-4160500I347559J0D01*
G01*
X-44913559Y-4160500D01*
G75*
G02*
X-44566000Y-4508059I0J-347559D01*
G01*
X-44566000Y-5237941D01*
G75*
G02*
X-44913559Y-5585500I-347559J0D01*
G01*
G37*
%TD*%
%TO.C,Y1*%
G36*
G01*
X-23919250Y-12170750D02*
X-23919250Y-13370750D01*
G75*
G02*
X-24119250Y-13570750I-200000J0D01*
G01*
X-25519250Y-13570750D01*
G75*
G02*
X-25719250Y-13370750I0J200000D01*
G01*
X-25719250Y-12170750D01*
G75*
G02*
X-25519250Y-11970750I200000J0D01*
G01*
X-24119250Y-11970750D01*
G75*
G02*
X-23919250Y-12170750I0J-200000D01*
G01*
G37*
G36*
G01*
X-26119250Y-12170750D02*
X-26119250Y-13370750D01*
G75*
G02*
X-26319250Y-13570750I-200000J0D01*
G01*
X-27719250Y-13570750D01*
G75*
G02*
X-27919250Y-13370750I0J200000D01*
G01*
X-27919250Y-12170750D01*
G75*
G02*
X-27719250Y-11970750I200000J0D01*
G01*
X-26319250Y-11970750D01*
G75*
G02*
X-26119250Y-12170750I0J-200000D01*
G01*
G37*
G36*
G01*
X-26119250Y-13870750D02*
X-26119250Y-15070750D01*
G75*
G02*
X-26319250Y-15270750I-200000J0D01*
G01*
X-27719250Y-15270750D01*
G75*
G02*
X-27919250Y-15070750I0J200000D01*
G01*
X-27919250Y-13870750D01*
G75*
G02*
X-27719250Y-13670750I200000J0D01*
G01*
X-26319250Y-13670750D01*
G75*
G02*
X-26119250Y-13870750I0J-200000D01*
G01*
G37*
G36*
G01*
X-23919250Y-13870750D02*
X-23919250Y-15070750D01*
G75*
G02*
X-24119250Y-15270750I-200000J0D01*
G01*
X-25519250Y-15270750D01*
G75*
G02*
X-25719250Y-15070750I0J200000D01*
G01*
X-25719250Y-13870750D01*
G75*
G02*
X-25519250Y-13670750I200000J0D01*
G01*
X-24119250Y-13670750D01*
G75*
G02*
X-23919250Y-13870750I0J-200000D01*
G01*
G37*
%TD*%
%TO.C,U1*%
G36*
G01*
X-32043750Y-31912500D02*
X-32043750Y-31362500D01*
G75*
G02*
X-31843750Y-31162500I200000J0D01*
G01*
X-30343750Y-31162500D01*
G75*
G02*
X-30143750Y-31362500I0J-200000D01*
G01*
X-30143750Y-31912500D01*
G75*
G02*
X-30343750Y-32112500I-200000J0D01*
G01*
X-31843750Y-32112500D01*
G75*
G02*
X-32043750Y-31912500I0J200000D01*
G01*
G37*
G36*
G01*
X-32043750Y-31112500D02*
X-32043750Y-30562500D01*
G75*
G02*
X-31843750Y-30362500I200000J0D01*
G01*
X-30343750Y-30362500D01*
G75*
G02*
X-30143750Y-30562500I0J-200000D01*
G01*
X-30143750Y-31112500D01*
G75*
G02*
X-30343750Y-31312500I-200000J0D01*
G01*
X-31843750Y-31312500D01*
G75*
G02*
X-32043750Y-31112500I0J200000D01*
G01*
G37*
G36*
G01*
X-32043750Y-30312500D02*
X-32043750Y-29762500D01*
G75*
G02*
X-31843750Y-29562500I200000J0D01*
G01*
X-30343750Y-29562500D01*
G75*
G02*
X-30143750Y-29762500I0J-200000D01*
G01*
X-30143750Y-30312500D01*
G75*
G02*
X-30343750Y-30512500I-200000J0D01*
G01*
X-31843750Y-30512500D01*
G75*
G02*
X-32043750Y-30312500I0J200000D01*
G01*
G37*
G36*
G01*
X-32043750Y-29512500D02*
X-32043750Y-28962500D01*
G75*
G02*
X-31843750Y-28762500I200000J0D01*
G01*
X-30343750Y-28762500D01*
G75*
G02*
X-30143750Y-28962500I0J-200000D01*
G01*
X-30143750Y-29512500D01*
G75*
G02*
X-30343750Y-29712500I-200000J0D01*
G01*
X-31843750Y-29712500D01*
G75*
G02*
X-32043750Y-29512500I0J200000D01*
G01*
G37*
G36*
G01*
X-32043750Y-28712500D02*
X-32043750Y-28162500D01*
G75*
G02*
X-31843750Y-27962500I200000J0D01*
G01*
X-30343750Y-27962500D01*
G75*
G02*
X-30143750Y-28162500I0J-200000D01*
G01*
X-30143750Y-28712500D01*
G75*
G02*
X-30343750Y-28912500I-200000J0D01*
G01*
X-31843750Y-28912500D01*
G75*
G02*
X-32043750Y-28712500I0J200000D01*
G01*
G37*
G36*
G01*
X-32043750Y-27912500D02*
X-32043750Y-27362500D01*
G75*
G02*
X-31843750Y-27162500I200000J0D01*
G01*
X-30343750Y-27162500D01*
G75*
G02*
X-30143750Y-27362500I0J-200000D01*
G01*
X-30143750Y-27912500D01*
G75*
G02*
X-30343750Y-28112500I-200000J0D01*
G01*
X-31843750Y-28112500D01*
G75*
G02*
X-32043750Y-27912500I0J200000D01*
G01*
G37*
G36*
G01*
X-32043750Y-27112500D02*
X-32043750Y-26562500D01*
G75*
G02*
X-31843750Y-26362500I200000J0D01*
G01*
X-30343750Y-26362500D01*
G75*
G02*
X-30143750Y-26562500I0J-200000D01*
G01*
X-30143750Y-27112500D01*
G75*
G02*
X-30343750Y-27312500I-200000J0D01*
G01*
X-31843750Y-27312500D01*
G75*
G02*
X-32043750Y-27112500I0J200000D01*
G01*
G37*
G36*
G01*
X-32043750Y-26312500D02*
X-32043750Y-25762500D01*
G75*
G02*
X-31843750Y-25562500I200000J0D01*
G01*
X-30343750Y-25562500D01*
G75*
G02*
X-30143750Y-25762500I0J-200000D01*
G01*
X-30143750Y-26312500D01*
G75*
G02*
X-30343750Y-26512500I-200000J0D01*
G01*
X-31843750Y-26512500D01*
G75*
G02*
X-32043750Y-26312500I0J200000D01*
G01*
G37*
G36*
G01*
X-32043750Y-25512500D02*
X-32043750Y-24962500D01*
G75*
G02*
X-31843750Y-24762500I200000J0D01*
G01*
X-30343750Y-24762500D01*
G75*
G02*
X-30143750Y-24962500I0J-200000D01*
G01*
X-30143750Y-25512500D01*
G75*
G02*
X-30343750Y-25712500I-200000J0D01*
G01*
X-31843750Y-25712500D01*
G75*
G02*
X-32043750Y-25512500I0J200000D01*
G01*
G37*
G36*
G01*
X-32043750Y-24712500D02*
X-32043750Y-24162500D01*
G75*
G02*
X-31843750Y-23962500I200000J0D01*
G01*
X-30343750Y-23962500D01*
G75*
G02*
X-30143750Y-24162500I0J-200000D01*
G01*
X-30143750Y-24712500D01*
G75*
G02*
X-30343750Y-24912500I-200000J0D01*
G01*
X-31843750Y-24912500D01*
G75*
G02*
X-32043750Y-24712500I0J200000D01*
G01*
G37*
G36*
G01*
X-32043750Y-23912500D02*
X-32043750Y-23362500D01*
G75*
G02*
X-31843750Y-23162500I200000J0D01*
G01*
X-30343750Y-23162500D01*
G75*
G02*
X-30143750Y-23362500I0J-200000D01*
G01*
X-30143750Y-23912500D01*
G75*
G02*
X-30343750Y-24112500I-200000J0D01*
G01*
X-31843750Y-24112500D01*
G75*
G02*
X-32043750Y-23912500I0J200000D01*
G01*
G37*
G36*
G01*
X-29668750Y-20987500D02*
X-29118750Y-20987500D01*
G75*
G02*
X-28918750Y-21187500I0J-200000D01*
G01*
X-28918750Y-22687500D01*
G75*
G02*
X-29118750Y-22887500I-200000J0D01*
G01*
X-29668750Y-22887500D01*
G75*
G02*
X-29868750Y-22687500I0J200000D01*
G01*
X-29868750Y-21187500D01*
G75*
G02*
X-29668750Y-20987500I200000J0D01*
G01*
G37*
G36*
G01*
X-28868750Y-20987500D02*
X-28318750Y-20987500D01*
G75*
G02*
X-28118750Y-21187500I0J-200000D01*
G01*
X-28118750Y-22687500D01*
G75*
G02*
X-28318750Y-22887500I-200000J0D01*
G01*
X-28868750Y-22887500D01*
G75*
G02*
X-29068750Y-22687500I0J200000D01*
G01*
X-29068750Y-21187500D01*
G75*
G02*
X-28868750Y-20987500I200000J0D01*
G01*
G37*
G36*
G01*
X-28068750Y-20987500D02*
X-27518750Y-20987500D01*
G75*
G02*
X-27318750Y-21187500I0J-200000D01*
G01*
X-27318750Y-22687500D01*
G75*
G02*
X-27518750Y-22887500I-200000J0D01*
G01*
X-28068750Y-22887500D01*
G75*
G02*
X-28268750Y-22687500I0J200000D01*
G01*
X-28268750Y-21187500D01*
G75*
G02*
X-28068750Y-20987500I200000J0D01*
G01*
G37*
G36*
G01*
X-27268750Y-20987500D02*
X-26718750Y-20987500D01*
G75*
G02*
X-26518750Y-21187500I0J-200000D01*
G01*
X-26518750Y-22687500D01*
G75*
G02*
X-26718750Y-22887500I-200000J0D01*
G01*
X-27268750Y-22887500D01*
G75*
G02*
X-27468750Y-22687500I0J200000D01*
G01*
X-27468750Y-21187500D01*
G75*
G02*
X-27268750Y-20987500I200000J0D01*
G01*
G37*
G36*
G01*
X-26468750Y-20987500D02*
X-25918750Y-20987500D01*
G75*
G02*
X-25718750Y-21187500I0J-200000D01*
G01*
X-25718750Y-22687500D01*
G75*
G02*
X-25918750Y-22887500I-200000J0D01*
G01*
X-26468750Y-22887500D01*
G75*
G02*
X-26668750Y-22687500I0J200000D01*
G01*
X-26668750Y-21187500D01*
G75*
G02*
X-26468750Y-20987500I200000J0D01*
G01*
G37*
G36*
G01*
X-25668750Y-20987500D02*
X-25118750Y-20987500D01*
G75*
G02*
X-24918750Y-21187500I0J-200000D01*
G01*
X-24918750Y-22687500D01*
G75*
G02*
X-25118750Y-22887500I-200000J0D01*
G01*
X-25668750Y-22887500D01*
G75*
G02*
X-25868750Y-22687500I0J200000D01*
G01*
X-25868750Y-21187500D01*
G75*
G02*
X-25668750Y-20987500I200000J0D01*
G01*
G37*
G36*
G01*
X-24868750Y-20987500D02*
X-24318750Y-20987500D01*
G75*
G02*
X-24118750Y-21187500I0J-200000D01*
G01*
X-24118750Y-22687500D01*
G75*
G02*
X-24318750Y-22887500I-200000J0D01*
G01*
X-24868750Y-22887500D01*
G75*
G02*
X-25068750Y-22687500I0J200000D01*
G01*
X-25068750Y-21187500D01*
G75*
G02*
X-24868750Y-20987500I200000J0D01*
G01*
G37*
G36*
G01*
X-24068750Y-20987500D02*
X-23518750Y-20987500D01*
G75*
G02*
X-23318750Y-21187500I0J-200000D01*
G01*
X-23318750Y-22687500D01*
G75*
G02*
X-23518750Y-22887500I-200000J0D01*
G01*
X-24068750Y-22887500D01*
G75*
G02*
X-24268750Y-22687500I0J200000D01*
G01*
X-24268750Y-21187500D01*
G75*
G02*
X-24068750Y-20987500I200000J0D01*
G01*
G37*
G36*
G01*
X-23268750Y-20987500D02*
X-22718750Y-20987500D01*
G75*
G02*
X-22518750Y-21187500I0J-200000D01*
G01*
X-22518750Y-22687500D01*
G75*
G02*
X-22718750Y-22887500I-200000J0D01*
G01*
X-23268750Y-22887500D01*
G75*
G02*
X-23468750Y-22687500I0J200000D01*
G01*
X-23468750Y-21187500D01*
G75*
G02*
X-23268750Y-20987500I200000J0D01*
G01*
G37*
G36*
G01*
X-22468750Y-20987500D02*
X-21918750Y-20987500D01*
G75*
G02*
X-21718750Y-21187500I0J-200000D01*
G01*
X-21718750Y-22687500D01*
G75*
G02*
X-21918750Y-22887500I-200000J0D01*
G01*
X-22468750Y-22887500D01*
G75*
G02*
X-22668750Y-22687500I0J200000D01*
G01*
X-22668750Y-21187500D01*
G75*
G02*
X-22468750Y-20987500I200000J0D01*
G01*
G37*
G36*
G01*
X-21668750Y-20987500D02*
X-21118750Y-20987500D01*
G75*
G02*
X-20918750Y-21187500I0J-200000D01*
G01*
X-20918750Y-22687500D01*
G75*
G02*
X-21118750Y-22887500I-200000J0D01*
G01*
X-21668750Y-22887500D01*
G75*
G02*
X-21868750Y-22687500I0J200000D01*
G01*
X-21868750Y-21187500D01*
G75*
G02*
X-21668750Y-20987500I200000J0D01*
G01*
G37*
G36*
G01*
X-20643750Y-23912500D02*
X-20643750Y-23362500D01*
G75*
G02*
X-20443750Y-23162500I200000J0D01*
G01*
X-18943750Y-23162500D01*
G75*
G02*
X-18743750Y-23362500I0J-200000D01*
G01*
X-18743750Y-23912500D01*
G75*
G02*
X-18943750Y-24112500I-200000J0D01*
G01*
X-20443750Y-24112500D01*
G75*
G02*
X-20643750Y-23912500I0J200000D01*
G01*
G37*
G36*
G01*
X-20643750Y-24712500D02*
X-20643750Y-24162500D01*
G75*
G02*
X-20443750Y-23962500I200000J0D01*
G01*
X-18943750Y-23962500D01*
G75*
G02*
X-18743750Y-24162500I0J-200000D01*
G01*
X-18743750Y-24712500D01*
G75*
G02*
X-18943750Y-24912500I-200000J0D01*
G01*
X-20443750Y-24912500D01*
G75*
G02*
X-20643750Y-24712500I0J200000D01*
G01*
G37*
G36*
G01*
X-20643750Y-25512500D02*
X-20643750Y-24962500D01*
G75*
G02*
X-20443750Y-24762500I200000J0D01*
G01*
X-18943750Y-24762500D01*
G75*
G02*
X-18743750Y-24962500I0J-200000D01*
G01*
X-18743750Y-25512500D01*
G75*
G02*
X-18943750Y-25712500I-200000J0D01*
G01*
X-20443750Y-25712500D01*
G75*
G02*
X-20643750Y-25512500I0J200000D01*
G01*
G37*
G36*
G01*
X-20643750Y-26312500D02*
X-20643750Y-25762500D01*
G75*
G02*
X-20443750Y-25562500I200000J0D01*
G01*
X-18943750Y-25562500D01*
G75*
G02*
X-18743750Y-25762500I0J-200000D01*
G01*
X-18743750Y-26312500D01*
G75*
G02*
X-18943750Y-26512500I-200000J0D01*
G01*
X-20443750Y-26512500D01*
G75*
G02*
X-20643750Y-26312500I0J200000D01*
G01*
G37*
G36*
G01*
X-20643750Y-27112500D02*
X-20643750Y-26562500D01*
G75*
G02*
X-20443750Y-26362500I200000J0D01*
G01*
X-18943750Y-26362500D01*
G75*
G02*
X-18743750Y-26562500I0J-200000D01*
G01*
X-18743750Y-27112500D01*
G75*
G02*
X-18943750Y-27312500I-200000J0D01*
G01*
X-20443750Y-27312500D01*
G75*
G02*
X-20643750Y-27112500I0J200000D01*
G01*
G37*
G36*
G01*
X-20643750Y-27912500D02*
X-20643750Y-27362500D01*
G75*
G02*
X-20443750Y-27162500I200000J0D01*
G01*
X-18943750Y-27162500D01*
G75*
G02*
X-18743750Y-27362500I0J-200000D01*
G01*
X-18743750Y-27912500D01*
G75*
G02*
X-18943750Y-28112500I-200000J0D01*
G01*
X-20443750Y-28112500D01*
G75*
G02*
X-20643750Y-27912500I0J200000D01*
G01*
G37*
G36*
G01*
X-20643750Y-28712500D02*
X-20643750Y-28162500D01*
G75*
G02*
X-20443750Y-27962500I200000J0D01*
G01*
X-18943750Y-27962500D01*
G75*
G02*
X-18743750Y-28162500I0J-200000D01*
G01*
X-18743750Y-28712500D01*
G75*
G02*
X-18943750Y-28912500I-200000J0D01*
G01*
X-20443750Y-28912500D01*
G75*
G02*
X-20643750Y-28712500I0J200000D01*
G01*
G37*
G36*
G01*
X-20643750Y-29512500D02*
X-20643750Y-28962500D01*
G75*
G02*
X-20443750Y-28762500I200000J0D01*
G01*
X-18943750Y-28762500D01*
G75*
G02*
X-18743750Y-28962500I0J-200000D01*
G01*
X-18743750Y-29512500D01*
G75*
G02*
X-18943750Y-29712500I-200000J0D01*
G01*
X-20443750Y-29712500D01*
G75*
G02*
X-20643750Y-29512500I0J200000D01*
G01*
G37*
G36*
G01*
X-20643750Y-30312500D02*
X-20643750Y-29762500D01*
G75*
G02*
X-20443750Y-29562500I200000J0D01*
G01*
X-18943750Y-29562500D01*
G75*
G02*
X-18743750Y-29762500I0J-200000D01*
G01*
X-18743750Y-30312500D01*
G75*
G02*
X-18943750Y-30512500I-200000J0D01*
G01*
X-20443750Y-30512500D01*
G75*
G02*
X-20643750Y-30312500I0J200000D01*
G01*
G37*
G36*
G01*
X-20643750Y-31112500D02*
X-20643750Y-30562500D01*
G75*
G02*
X-20443750Y-30362500I200000J0D01*
G01*
X-18943750Y-30362500D01*
G75*
G02*
X-18743750Y-30562500I0J-200000D01*
G01*
X-18743750Y-31112500D01*
G75*
G02*
X-18943750Y-31312500I-200000J0D01*
G01*
X-20443750Y-31312500D01*
G75*
G02*
X-20643750Y-31112500I0J200000D01*
G01*
G37*
G36*
G01*
X-20643750Y-31912500D02*
X-20643750Y-31362500D01*
G75*
G02*
X-20443750Y-31162500I200000J0D01*
G01*
X-18943750Y-31162500D01*
G75*
G02*
X-18743750Y-31362500I0J-200000D01*
G01*
X-18743750Y-31912500D01*
G75*
G02*
X-18943750Y-32112500I-200000J0D01*
G01*
X-20443750Y-32112500D01*
G75*
G02*
X-20643750Y-31912500I0J200000D01*
G01*
G37*
G36*
G01*
X-21668750Y-32387500D02*
X-21118750Y-32387500D01*
G75*
G02*
X-20918750Y-32587500I0J-200000D01*
G01*
X-20918750Y-34087500D01*
G75*
G02*
X-21118750Y-34287500I-200000J0D01*
G01*
X-21668750Y-34287500D01*
G75*
G02*
X-21868750Y-34087500I0J200000D01*
G01*
X-21868750Y-32587500D01*
G75*
G02*
X-21668750Y-32387500I200000J0D01*
G01*
G37*
G36*
G01*
X-22468750Y-32387500D02*
X-21918750Y-32387500D01*
G75*
G02*
X-21718750Y-32587500I0J-200000D01*
G01*
X-21718750Y-34087500D01*
G75*
G02*
X-21918750Y-34287500I-200000J0D01*
G01*
X-22468750Y-34287500D01*
G75*
G02*
X-22668750Y-34087500I0J200000D01*
G01*
X-22668750Y-32587500D01*
G75*
G02*
X-22468750Y-32387500I200000J0D01*
G01*
G37*
G36*
G01*
X-23268750Y-32387500D02*
X-22718750Y-32387500D01*
G75*
G02*
X-22518750Y-32587500I0J-200000D01*
G01*
X-22518750Y-34087500D01*
G75*
G02*
X-22718750Y-34287500I-200000J0D01*
G01*
X-23268750Y-34287500D01*
G75*
G02*
X-23468750Y-34087500I0J200000D01*
G01*
X-23468750Y-32587500D01*
G75*
G02*
X-23268750Y-32387500I200000J0D01*
G01*
G37*
G36*
G01*
X-24068750Y-32387500D02*
X-23518750Y-32387500D01*
G75*
G02*
X-23318750Y-32587500I0J-200000D01*
G01*
X-23318750Y-34087500D01*
G75*
G02*
X-23518750Y-34287500I-200000J0D01*
G01*
X-24068750Y-34287500D01*
G75*
G02*
X-24268750Y-34087500I0J200000D01*
G01*
X-24268750Y-32587500D01*
G75*
G02*
X-24068750Y-32387500I200000J0D01*
G01*
G37*
G36*
G01*
X-24868750Y-32387500D02*
X-24318750Y-32387500D01*
G75*
G02*
X-24118750Y-32587500I0J-200000D01*
G01*
X-24118750Y-34087500D01*
G75*
G02*
X-24318750Y-34287500I-200000J0D01*
G01*
X-24868750Y-34287500D01*
G75*
G02*
X-25068750Y-34087500I0J200000D01*
G01*
X-25068750Y-32587500D01*
G75*
G02*
X-24868750Y-32387500I200000J0D01*
G01*
G37*
G36*
G01*
X-25668750Y-32387500D02*
X-25118750Y-32387500D01*
G75*
G02*
X-24918750Y-32587500I0J-200000D01*
G01*
X-24918750Y-34087500D01*
G75*
G02*
X-25118750Y-34287500I-200000J0D01*
G01*
X-25668750Y-34287500D01*
G75*
G02*
X-25868750Y-34087500I0J200000D01*
G01*
X-25868750Y-32587500D01*
G75*
G02*
X-25668750Y-32387500I200000J0D01*
G01*
G37*
G36*
G01*
X-26468750Y-32387500D02*
X-25918750Y-32387500D01*
G75*
G02*
X-25718750Y-32587500I0J-200000D01*
G01*
X-25718750Y-34087500D01*
G75*
G02*
X-25918750Y-34287500I-200000J0D01*
G01*
X-26468750Y-34287500D01*
G75*
G02*
X-26668750Y-34087500I0J200000D01*
G01*
X-26668750Y-32587500D01*
G75*
G02*
X-26468750Y-32387500I200000J0D01*
G01*
G37*
G36*
G01*
X-27268750Y-32387500D02*
X-26718750Y-32387500D01*
G75*
G02*
X-26518750Y-32587500I0J-200000D01*
G01*
X-26518750Y-34087500D01*
G75*
G02*
X-26718750Y-34287500I-200000J0D01*
G01*
X-27268750Y-34287500D01*
G75*
G02*
X-27468750Y-34087500I0J200000D01*
G01*
X-27468750Y-32587500D01*
G75*
G02*
X-27268750Y-32387500I200000J0D01*
G01*
G37*
G36*
G01*
X-28068750Y-32387500D02*
X-27518750Y-32387500D01*
G75*
G02*
X-27318750Y-32587500I0J-200000D01*
G01*
X-27318750Y-34087500D01*
G75*
G02*
X-27518750Y-34287500I-200000J0D01*
G01*
X-28068750Y-34287500D01*
G75*
G02*
X-28268750Y-34087500I0J200000D01*
G01*
X-28268750Y-32587500D01*
G75*
G02*
X-28068750Y-32387500I200000J0D01*
G01*
G37*
G36*
G01*
X-28868750Y-32387500D02*
X-28318750Y-32387500D01*
G75*
G02*
X-28118750Y-32587500I0J-200000D01*
G01*
X-28118750Y-34087500D01*
G75*
G02*
X-28318750Y-34287500I-200000J0D01*
G01*
X-28868750Y-34287500D01*
G75*
G02*
X-29068750Y-34087500I0J200000D01*
G01*
X-29068750Y-32587500D01*
G75*
G02*
X-28868750Y-32387500I200000J0D01*
G01*
G37*
G36*
G01*
X-29668750Y-32387500D02*
X-29118750Y-32387500D01*
G75*
G02*
X-28918750Y-32587500I0J-200000D01*
G01*
X-28918750Y-34087500D01*
G75*
G02*
X-29118750Y-34287500I-200000J0D01*
G01*
X-29668750Y-34287500D01*
G75*
G02*
X-29868750Y-34087500I0J200000D01*
G01*
X-29868750Y-32587500D01*
G75*
G02*
X-29668750Y-32387500I200000J0D01*
G01*
G37*
%TD*%
%TO.C,RESET1*%
G36*
G01*
X-41656250Y-33625000D02*
X-41656250Y-32525000D01*
G75*
G02*
X-41456250Y-32325000I200000J0D01*
G01*
X-39656250Y-32325000D01*
G75*
G02*
X-39456250Y-32525000I0J-200000D01*
G01*
X-39456250Y-33625000D01*
G75*
G02*
X-39656250Y-33825000I-200000J0D01*
G01*
X-41456250Y-33825000D01*
G75*
G02*
X-41656250Y-33625000I0J200000D01*
G01*
G37*
G36*
G01*
X-47856250Y-37325000D02*
X-47856250Y-36225000D01*
G75*
G02*
X-47656250Y-36025000I200000J0D01*
G01*
X-45856250Y-36025000D01*
G75*
G02*
X-45656250Y-36225000I0J-200000D01*
G01*
X-45656250Y-37325000D01*
G75*
G02*
X-45856250Y-37525000I-200000J0D01*
G01*
X-47656250Y-37525000D01*
G75*
G02*
X-47856250Y-37325000I0J200000D01*
G01*
G37*
G36*
G01*
X-41656250Y-37325000D02*
X-41656250Y-36225000D01*
G75*
G02*
X-41456250Y-36025000I200000J0D01*
G01*
X-39656250Y-36025000D01*
G75*
G02*
X-39456250Y-36225000I0J-200000D01*
G01*
X-39456250Y-37325000D01*
G75*
G02*
X-39656250Y-37525000I-200000J0D01*
G01*
X-41456250Y-37525000D01*
G75*
G02*
X-41656250Y-37325000I0J200000D01*
G01*
G37*
G36*
G01*
X-47856250Y-33625000D02*
X-47856250Y-32525000D01*
G75*
G02*
X-47656250Y-32325000I200000J0D01*
G01*
X-45856250Y-32325000D01*
G75*
G02*
X-45656250Y-32525000I0J-200000D01*
G01*
X-45656250Y-33625000D01*
G75*
G02*
X-45856250Y-33825000I-200000J0D01*
G01*
X-47656250Y-33825000D01*
G75*
G02*
X-47856250Y-33625000I0J200000D01*
G01*
G37*
%TD*%
%TO.C,F1*%
G36*
G01*
X-46880000Y-9963000D02*
X-48370000Y-9963000D01*
G75*
G02*
X-48700000Y-9633000I0J330000D01*
G01*
X-48700000Y-8643000D01*
G75*
G02*
X-48370000Y-8313000I330000J0D01*
G01*
X-46880000Y-8313000D01*
G75*
G02*
X-46550000Y-8643000I0J-330000D01*
G01*
X-46550000Y-9633000D01*
G75*
G02*
X-46880000Y-9963000I-330000J0D01*
G01*
G37*
G36*
G01*
X-46880000Y-12763000D02*
X-48370000Y-12763000D01*
G75*
G02*
X-48700000Y-12433000I0J330000D01*
G01*
X-48700000Y-11443000D01*
G75*
G02*
X-48370000Y-11113000I330000J0D01*
G01*
X-46880000Y-11113000D01*
G75*
G02*
X-46550000Y-11443000I0J-330000D01*
G01*
X-46550000Y-12433000D01*
G75*
G02*
X-46880000Y-12763000I-330000J0D01*
G01*
G37*
%TD*%
%TO.C,D9*%
G36*
G01*
X46637500Y-37100000D02*
X45437500Y-37100000D01*
G75*
G02*
X45237500Y-36900000I0J200000D01*
G01*
X45237500Y-36000000D01*
G75*
G02*
X45437500Y-35800000I200000J0D01*
G01*
X46637500Y-35800000D01*
G75*
G02*
X46837500Y-36000000I0J-200000D01*
G01*
X46837500Y-36900000D01*
G75*
G02*
X46637500Y-37100000I-200000J0D01*
G01*
G37*
G36*
G01*
X46637500Y-40400000D02*
X45437500Y-40400000D01*
G75*
G02*
X45237500Y-40200000I0J200000D01*
G01*
X45237500Y-39300000D01*
G75*
G02*
X45437500Y-39100000I200000J0D01*
G01*
X46637500Y-39100000D01*
G75*
G02*
X46837500Y-39300000I0J-200000D01*
G01*
X46837500Y-40200000D01*
G75*
G02*
X46637500Y-40400000I-200000J0D01*
G01*
G37*
%TD*%
%TO.C,D8*%
G36*
G01*
X27587500Y-37100000D02*
X26387500Y-37100000D01*
G75*
G02*
X26187500Y-36900000I0J200000D01*
G01*
X26187500Y-36000000D01*
G75*
G02*
X26387500Y-35800000I200000J0D01*
G01*
X27587500Y-35800000D01*
G75*
G02*
X27787500Y-36000000I0J-200000D01*
G01*
X27787500Y-36900000D01*
G75*
G02*
X27587500Y-37100000I-200000J0D01*
G01*
G37*
G36*
G01*
X27587500Y-40400000D02*
X26387500Y-40400000D01*
G75*
G02*
X26187500Y-40200000I0J200000D01*
G01*
X26187500Y-39300000D01*
G75*
G02*
X26387500Y-39100000I200000J0D01*
G01*
X27587500Y-39100000D01*
G75*
G02*
X27787500Y-39300000I0J-200000D01*
G01*
X27787500Y-40200000D01*
G75*
G02*
X27587500Y-40400000I-200000J0D01*
G01*
G37*
%TD*%
%TO.C,D7*%
G36*
G01*
X8537500Y-37100000D02*
X7337500Y-37100000D01*
G75*
G02*
X7137500Y-36900000I0J200000D01*
G01*
X7137500Y-36000000D01*
G75*
G02*
X7337500Y-35800000I200000J0D01*
G01*
X8537500Y-35800000D01*
G75*
G02*
X8737500Y-36000000I0J-200000D01*
G01*
X8737500Y-36900000D01*
G75*
G02*
X8537500Y-37100000I-200000J0D01*
G01*
G37*
G36*
G01*
X8537500Y-40400000D02*
X7337500Y-40400000D01*
G75*
G02*
X7137500Y-40200000I0J200000D01*
G01*
X7137500Y-39300000D01*
G75*
G02*
X7337500Y-39100000I200000J0D01*
G01*
X8537500Y-39100000D01*
G75*
G02*
X8737500Y-39300000I0J-200000D01*
G01*
X8737500Y-40200000D01*
G75*
G02*
X8537500Y-40400000I-200000J0D01*
G01*
G37*
%TD*%
%TO.C,D6*%
G36*
G01*
X46637500Y-18050000D02*
X45437500Y-18050000D01*
G75*
G02*
X45237500Y-17850000I0J200000D01*
G01*
X45237500Y-16950000D01*
G75*
G02*
X45437500Y-16750000I200000J0D01*
G01*
X46637500Y-16750000D01*
G75*
G02*
X46837500Y-16950000I0J-200000D01*
G01*
X46837500Y-17850000D01*
G75*
G02*
X46637500Y-18050000I-200000J0D01*
G01*
G37*
G36*
G01*
X46637500Y-21350000D02*
X45437500Y-21350000D01*
G75*
G02*
X45237500Y-21150000I0J200000D01*
G01*
X45237500Y-20250000D01*
G75*
G02*
X45437500Y-20050000I200000J0D01*
G01*
X46637500Y-20050000D01*
G75*
G02*
X46837500Y-20250000I0J-200000D01*
G01*
X46837500Y-21150000D01*
G75*
G02*
X46637500Y-21350000I-200000J0D01*
G01*
G37*
%TD*%
%TO.C,D5*%
G36*
G01*
X27587500Y-18050000D02*
X26387500Y-18050000D01*
G75*
G02*
X26187500Y-17850000I0J200000D01*
G01*
X26187500Y-16950000D01*
G75*
G02*
X26387500Y-16750000I200000J0D01*
G01*
X27587500Y-16750000D01*
G75*
G02*
X27787500Y-16950000I0J-200000D01*
G01*
X27787500Y-17850000D01*
G75*
G02*
X27587500Y-18050000I-200000J0D01*
G01*
G37*
G36*
G01*
X27587500Y-21350000D02*
X26387500Y-21350000D01*
G75*
G02*
X26187500Y-21150000I0J200000D01*
G01*
X26187500Y-20250000D01*
G75*
G02*
X26387500Y-20050000I200000J0D01*
G01*
X27587500Y-20050000D01*
G75*
G02*
X27787500Y-20250000I0J-200000D01*
G01*
X27787500Y-21150000D01*
G75*
G02*
X27587500Y-21350000I-200000J0D01*
G01*
G37*
%TD*%
%TO.C,D4*%
G36*
G01*
X8537500Y-18050000D02*
X7337500Y-18050000D01*
G75*
G02*
X7137500Y-17850000I0J200000D01*
G01*
X7137500Y-16950000D01*
G75*
G02*
X7337500Y-16750000I200000J0D01*
G01*
X8537500Y-16750000D01*
G75*
G02*
X8737500Y-16950000I0J-200000D01*
G01*
X8737500Y-17850000D01*
G75*
G02*
X8537500Y-18050000I-200000J0D01*
G01*
G37*
G36*
G01*
X8537500Y-21350000D02*
X7337500Y-21350000D01*
G75*
G02*
X7137500Y-21150000I0J200000D01*
G01*
X7137500Y-20250000D01*
G75*
G02*
X7337500Y-20050000I200000J0D01*
G01*
X8537500Y-20050000D01*
G75*
G02*
X8737500Y-20250000I0J-200000D01*
G01*
X8737500Y-21150000D01*
G75*
G02*
X8537500Y-21350000I-200000J0D01*
G01*
G37*
%TD*%
%TO.C,D3*%
G36*
G01*
X46637500Y1000000D02*
X45437500Y1000000D01*
G75*
G02*
X45237500Y1200000I0J200000D01*
G01*
X45237500Y2100000D01*
G75*
G02*
X45437500Y2300000I200000J0D01*
G01*
X46637500Y2300000D01*
G75*
G02*
X46837500Y2100000I0J-200000D01*
G01*
X46837500Y1200000D01*
G75*
G02*
X46637500Y1000000I-200000J0D01*
G01*
G37*
G36*
G01*
X46637500Y-2300000D02*
X45437500Y-2300000D01*
G75*
G02*
X45237500Y-2100000I0J200000D01*
G01*
X45237500Y-1200000D01*
G75*
G02*
X45437500Y-1000000I200000J0D01*
G01*
X46637500Y-1000000D01*
G75*
G02*
X46837500Y-1200000I0J-200000D01*
G01*
X46837500Y-2100000D01*
G75*
G02*
X46637500Y-2300000I-200000J0D01*
G01*
G37*
%TD*%
%TO.C,D2*%
G36*
G01*
X27587500Y1000000D02*
X26387500Y1000000D01*
G75*
G02*
X26187500Y1200000I0J200000D01*
G01*
X26187500Y2100000D01*
G75*
G02*
X26387500Y2300000I200000J0D01*
G01*
X27587500Y2300000D01*
G75*
G02*
X27787500Y2100000I0J-200000D01*
G01*
X27787500Y1200000D01*
G75*
G02*
X27587500Y1000000I-200000J0D01*
G01*
G37*
G36*
G01*
X27587500Y-2300000D02*
X26387500Y-2300000D01*
G75*
G02*
X26187500Y-2100000I0J200000D01*
G01*
X26187500Y-1200000D01*
G75*
G02*
X26387500Y-1000000I200000J0D01*
G01*
X27587500Y-1000000D01*
G75*
G02*
X27787500Y-1200000I0J-200000D01*
G01*
X27787500Y-2100000D01*
G75*
G02*
X27587500Y-2300000I-200000J0D01*
G01*
G37*
%TD*%
%TO.C,D1*%
G36*
G01*
X8537500Y1000000D02*
X7337500Y1000000D01*
G75*
G02*
X7137500Y1200000I0J200000D01*
G01*
X7137500Y2100000D01*
G75*
G02*
X7337500Y2300000I200000J0D01*
G01*
X8537500Y2300000D01*
G75*
G02*
X8737500Y2100000I0J-200000D01*
G01*
X8737500Y1200000D01*
G75*
G02*
X8537500Y1000000I-200000J0D01*
G01*
G37*
G36*
G01*
X8537500Y-2300000D02*
X7337500Y-2300000D01*
G75*
G02*
X7137500Y-2100000I0J200000D01*
G01*
X7137500Y-1200000D01*
G75*
G02*
X7337500Y-1000000I200000J0D01*
G01*
X8537500Y-1000000D01*
G75*
G02*
X8737500Y-1200000I0J-200000D01*
G01*
X8737500Y-2100000D01*
G75*
G02*
X8537500Y-2300000I-200000J0D01*
G01*
G37*
%TD*%
%TO.C,C7*%
G36*
G01*
X-35373000Y-32569000D02*
X-34223000Y-32569000D01*
G75*
G02*
X-33873000Y-32919000I0J-350000D01*
G01*
X-33873000Y-33619000D01*
G75*
G02*
X-34223000Y-33969000I-350000J0D01*
G01*
X-35373000Y-33969000D01*
G75*
G02*
X-35723000Y-33619000I0J350000D01*
G01*
X-35723000Y-32919000D01*
G75*
G02*
X-35373000Y-32569000I350000J0D01*
G01*
G37*
G36*
G01*
X-35373000Y-30669000D02*
X-34223000Y-30669000D01*
G75*
G02*
X-33873000Y-31019000I0J-350000D01*
G01*
X-33873000Y-31719000D01*
G75*
G02*
X-34223000Y-32069000I-350000J0D01*
G01*
X-35373000Y-32069000D01*
G75*
G02*
X-35723000Y-31719000I0J350000D01*
G01*
X-35723000Y-31019000D01*
G75*
G02*
X-35373000Y-30669000I350000J0D01*
G01*
G37*
%TD*%
%TO.C,C6*%
G36*
G01*
X-35876000Y-26349000D02*
X-35876000Y-27499000D01*
G75*
G02*
X-36226000Y-27849000I-350000J0D01*
G01*
X-36926000Y-27849000D01*
G75*
G02*
X-37276000Y-27499000I0J350000D01*
G01*
X-37276000Y-26349000D01*
G75*
G02*
X-36926000Y-25999000I350000J0D01*
G01*
X-36226000Y-25999000D01*
G75*
G02*
X-35876000Y-26349000I0J-350000D01*
G01*
G37*
G36*
G01*
X-33976000Y-26349000D02*
X-33976000Y-27499000D01*
G75*
G02*
X-34326000Y-27849000I-350000J0D01*
G01*
X-35026000Y-27849000D01*
G75*
G02*
X-35376000Y-27499000I0J350000D01*
G01*
X-35376000Y-26349000D01*
G75*
G02*
X-35026000Y-25999000I350000J0D01*
G01*
X-34326000Y-25999000D01*
G75*
G02*
X-33976000Y-26349000I0J-350000D01*
G01*
G37*
%TD*%
%TO.C,C5*%
G36*
G01*
X-15300000Y-23814000D02*
X-16450000Y-23814000D01*
G75*
G02*
X-16800000Y-23464000I0J350000D01*
G01*
X-16800000Y-22764000D01*
G75*
G02*
X-16450000Y-22414000I350000J0D01*
G01*
X-15300000Y-22414000D01*
G75*
G02*
X-14950000Y-22764000I0J-350000D01*
G01*
X-14950000Y-23464000D01*
G75*
G02*
X-15300000Y-23814000I-350000J0D01*
G01*
G37*
G36*
G01*
X-15300000Y-25714000D02*
X-16450000Y-25714000D01*
G75*
G02*
X-16800000Y-25364000I0J350000D01*
G01*
X-16800000Y-24664000D01*
G75*
G02*
X-16450000Y-24314000I350000J0D01*
G01*
X-15300000Y-24314000D01*
G75*
G02*
X-14950000Y-24664000I0J-350000D01*
G01*
X-14950000Y-25364000D01*
G75*
G02*
X-15300000Y-25714000I-350000J0D01*
G01*
G37*
%TD*%
%TO.C,C4*%
G36*
G01*
X-31563000Y-14027000D02*
X-30413000Y-14027000D01*
G75*
G02*
X-30063000Y-14377000I0J-350000D01*
G01*
X-30063000Y-15077000D01*
G75*
G02*
X-30413000Y-15427000I-350000J0D01*
G01*
X-31563000Y-15427000D01*
G75*
G02*
X-31913000Y-15077000I0J350000D01*
G01*
X-31913000Y-14377000D01*
G75*
G02*
X-31563000Y-14027000I350000J0D01*
G01*
G37*
G36*
G01*
X-31563000Y-12127000D02*
X-30413000Y-12127000D01*
G75*
G02*
X-30063000Y-12477000I0J-350000D01*
G01*
X-30063000Y-13177000D01*
G75*
G02*
X-30413000Y-13527000I-350000J0D01*
G01*
X-31563000Y-13527000D01*
G75*
G02*
X-31913000Y-13177000I0J350000D01*
G01*
X-31913000Y-12477000D01*
G75*
G02*
X-31563000Y-12127000I350000J0D01*
G01*
G37*
%TD*%
%TO.C,C3*%
G36*
G01*
X-20094250Y-13527000D02*
X-21244250Y-13527000D01*
G75*
G02*
X-21594250Y-13177000I0J350000D01*
G01*
X-21594250Y-12477000D01*
G75*
G02*
X-21244250Y-12127000I350000J0D01*
G01*
X-20094250Y-12127000D01*
G75*
G02*
X-19744250Y-12477000I0J-350000D01*
G01*
X-19744250Y-13177000D01*
G75*
G02*
X-20094250Y-13527000I-350000J0D01*
G01*
G37*
G36*
G01*
X-20094250Y-15427000D02*
X-21244250Y-15427000D01*
G75*
G02*
X-21594250Y-15077000I0J350000D01*
G01*
X-21594250Y-14377000D01*
G75*
G02*
X-21244250Y-14027000I350000J0D01*
G01*
X-20094250Y-14027000D01*
G75*
G02*
X-19744250Y-14377000I0J-350000D01*
G01*
X-19744250Y-15077000D01*
G75*
G02*
X-20094250Y-15427000I-350000J0D01*
G01*
G37*
%TD*%
%TO.C,C2*%
G36*
G01*
X-32762500Y-18956250D02*
X-33912500Y-18956250D01*
G75*
G02*
X-34262500Y-18606250I0J350000D01*
G01*
X-34262500Y-17906250D01*
G75*
G02*
X-33912500Y-17556250I350000J0D01*
G01*
X-32762500Y-17556250D01*
G75*
G02*
X-32412500Y-17906250I0J-350000D01*
G01*
X-32412500Y-18606250D01*
G75*
G02*
X-32762500Y-18956250I-350000J0D01*
G01*
G37*
G36*
G01*
X-32762500Y-20856250D02*
X-33912500Y-20856250D01*
G75*
G02*
X-34262500Y-20506250I0J350000D01*
G01*
X-34262500Y-19806250D01*
G75*
G02*
X-33912500Y-19456250I350000J0D01*
G01*
X-32762500Y-19456250D01*
G75*
G02*
X-32412500Y-19806250I0J-350000D01*
G01*
X-32412500Y-20506250D01*
G75*
G02*
X-32762500Y-20856250I-350000J0D01*
G01*
G37*
%TD*%
%TO.C,C1*%
G36*
G01*
X-20731250Y-35937500D02*
X-20731250Y-37087500D01*
G75*
G02*
X-21081250Y-37437500I-350000J0D01*
G01*
X-21781250Y-37437500D01*
G75*
G02*
X-22131250Y-37087500I0J350000D01*
G01*
X-22131250Y-35937500D01*
G75*
G02*
X-21781250Y-35587500I350000J0D01*
G01*
X-21081250Y-35587500D01*
G75*
G02*
X-20731250Y-35937500I0J-350000D01*
G01*
G37*
G36*
G01*
X-18831250Y-35937500D02*
X-18831250Y-37087500D01*
G75*
G02*
X-19181250Y-37437500I-350000J0D01*
G01*
X-19881250Y-37437500D01*
G75*
G02*
X-20231250Y-37087500I0J350000D01*
G01*
X-20231250Y-35937500D01*
G75*
G02*
X-19881250Y-35587500I350000J0D01*
G01*
X-19181250Y-35587500D01*
G75*
G02*
X-18831250Y-35937500I0J-350000D01*
G01*
G37*
%TD*%
M02*
