M48
; DRILL file {KiCad (5.1.9)-1} date 06/16/21 12:23:40
; FORMAT={-:-/ absolute / inch / decimal}
; #@! TF.CreationDate,2021-06-16T12:23:40-05:00
; #@! TF.GenerationSoftware,Kicad,Pcbnew,(5.1.9)-1
; #@! TF.FileFunction,NonPlated,1,2,NPTH
FMAT,2
INCH
T1C0.0748
T2C0.1181
T3C0.1614
%
G90
G05
T1
X-0.2Y0.0
X-0.2Y-0.75
X-0.2Y-1.5
X0.2Y0.0
X0.2Y-0.75
X0.2Y-1.5
X0.55Y0.0
X0.55Y-0.75
X0.55Y-1.5
X0.95Y0.0
X0.95Y-0.75
X0.95Y-1.5
X1.3Y0.0
X1.3Y-0.75
X1.3Y-1.5
X1.7Y0.0
X1.7Y-0.75
X1.7Y-1.5
T2
X-0.15Y0.1
X-0.15Y-0.65
X-0.15Y-1.4
X0.1Y0.2
X0.1Y-0.55
X0.1Y-1.3
X0.6Y0.1
X0.6Y-0.65
X0.6Y-1.4
X0.85Y0.2
X0.85Y-0.55
X0.85Y-1.3
X1.35Y0.1
X1.35Y-0.65
X1.35Y-1.4
X1.6Y0.2
X1.6Y-0.55
X1.6Y-1.3
T3
X0.0Y0.0
X0.0Y-0.75
X0.0Y-1.5
X0.75Y0.0
X0.75Y-0.75
X0.75Y-1.5
X1.5Y0.0
X1.5Y-0.75
X1.5Y-1.5
T0
M30
