M48
; DRILL file {KiCad (5.1.9)-1} date 06/16/21 12:23:40
; FORMAT={-:-/ absolute / inch / decimal}
; #@! TF.CreationDate,2021-06-16T12:23:40-05:00
; #@! TF.GenerationSoftware,Kicad,Pcbnew,(5.1.9)-1
; #@! TF.FileFunction,Plated,1,2,PTH
FMAT,2
INCH
T1C0.0157
T2C0.0276
%
G90
G05
T1
X-1.905Y-1.4
X-1.525Y-0.795
X-1.375Y-0.76
X-1.2941Y-1.0509
X-1.2941Y-1.2141
X-0.7Y-1.44
X-0.57Y-0.985
X-0.3387Y-1.2112
X-0.28Y0.0037
X-0.28Y-0.5587
X-0.28Y-0.7462
X0.4113Y-1.2112
X0.47Y0.0037
X0.47Y-0.5587
X0.47Y-0.7462
X1.003Y-1.182
X1.22Y0.0037
X1.22Y-0.5587
X1.22Y-0.7462
T2
G00X-1.8499Y0.3399
M15
G01X-1.8499Y0.2926
M16
G05
G00X-1.8499Y0.1627
M15
G01X-1.8499Y0.1155
M16
G05
G00X-1.5625Y0.3399
M15
G01X-1.5625Y0.2926
M16
G05
G00X-1.5625Y0.1627
M15
G01X-1.5625Y0.1155
M16
G05
T0
M30
